<svg width="142" height="142" viewBox="0 0 142 142" fill="none" xmlns="http://www.w3.org/2000/svg">
<rect x="10" y="10" width="122" height="122" rx="61" fill="white"/>
<rect x="5" y="5" width="132" height="132" rx="66" stroke="black" stroke-opacity="0.1" stroke-width="10"/>
<path d="M56.7601 77.3289H59.9245V86.8222C59.9245 87.6961 59.2161 88.4044 58.3423 88.4044C57.4685 88.4044 56.7601 87.6961 56.7601 86.8222V77.3289Z" fill="#F6654B"/>
<path d="M69.4178 72.5823H72.5822V86.8222C72.5822 87.6961 71.8738 88.4044 71 88.4044C70.1262 88.4044 69.4178 87.6961 69.4178 86.8222V72.5823Z" fill="#F6654B"/>
<path d="M56.7601 55.1779C56.7601 54.3041 57.4685 53.5957 58.3423 53.5957C59.2161 53.5957 59.9245 54.3041 59.9245 55.1779V69.4179H56.7601V55.1779Z" fill="#F6654B"/>
<path d="M82.0755 77.3289H85.2399V86.8222C85.2399 87.6961 84.5316 88.4044 83.6577 88.4044C82.7839 88.4044 82.0755 87.6961 82.0755 86.8222V77.3289Z" fill="#F6654B"/>
<path d="M82.0755 55.1779C82.0755 54.3041 82.7839 53.5957 83.6577 53.5957C84.5316 53.5957 85.2399 54.3041 85.2399 55.1779V69.4179H82.0755V55.1779Z" fill="#F6654B"/>
<path d="M69.4178 55.1779C69.4178 54.3041 70.1262 53.5957 71 53.5957C71.8738 53.5957 72.5822 54.3041 72.5822 55.1779V64.6712H69.4178V55.1779Z" fill="#F6654B"/>
<path d="M77.3289 75.7467C77.3289 73.999 78.7456 72.5823 80.4933 72.5823H86.8222C88.5698 72.5823 89.9866 73.999 89.9866 75.7467V77.3289C89.9866 79.0766 88.5698 80.4934 86.8222 80.4934H80.4933C78.7456 80.4934 77.3289 79.0766 77.3289 77.3289V75.7467Z" fill="#F6654B"/>
<path d="M64.6711 64.6712C64.6711 62.9235 66.0879 61.5068 67.8356 61.5068H74.1644C75.9121 61.5068 77.3289 62.9235 77.3289 64.6712V66.2534C77.3289 68.0011 75.9121 69.4179 74.1644 69.4179H67.8356C66.0879 69.4179 64.6711 68.0011 64.6711 66.2534V64.6712Z" fill="#F6654B"/>
<path d="M52.0134 75.7467C52.0134 73.999 53.4302 72.5823 55.1779 72.5823H61.5067C63.2544 72.5823 64.6711 73.999 64.6711 75.7467V77.3289C64.6711 79.0766 63.2544 80.4934 61.5067 80.4934H55.1779C53.4302 80.4934 52.0134 79.0766 52.0134 77.3289V75.7467Z" fill="#F6654B"/>
</svg>
