<svg width="683" height="676" viewBox="0 0 683 676" fill="none" xmlns="http://www.w3.org/2000/svg">
<path d="M1.04602 207.328C56.2849 196.615 112.21 189.806 168.405 186.951C175.438 186.574 182.454 186.328 189.487 186.016C196.52 185.705 203.552 185.656 210.569 185.459C217.585 185.262 224.634 185.344 231.667 185.295C235.192 185.295 238.7 185.295 242.224 185.295C245.749 185.295 249.29 185.541 252.798 185.82C266.847 186.918 280.798 188.967 294.666 191.279C308.535 193.59 322.371 196.197 336.142 199.049C391.223 210.524 445.813 224.147 500.238 238.295C527.43 245.409 554.588 252.699 581.713 260.163C608.839 267.628 635.882 275.322 662.844 283.245C635.784 275.595 608.669 268.152 581.5 260.917C554.331 253.682 527.151 246.491 499.96 239.344C445.501 225.377 390.912 211.901 335.83 200.639C322.06 197.869 308.273 195.131 294.421 192.803C280.568 190.475 266.667 188.361 252.683 187.229C249.197 186.934 245.705 186.749 242.208 186.672C238.7 186.672 235.175 186.672 231.667 186.672C224.651 186.672 217.618 186.557 210.602 186.77C203.585 186.984 196.553 186.967 189.52 187.246C182.487 187.525 175.487 187.754 168.471 188.098C140.395 189.497 112.389 191.82 84.4551 195.065C56.4882 198.197 28.6196 202.065 1.04602 207.328Z" fill="#F6EFE0"/>
<path d="M5.53772 170.918C33.4063 170.213 61.2749 169.754 89.1436 169.393C117.012 169.033 144.881 169.016 172.749 169.016L214.569 169.164L235.47 169.312C238.962 169.312 242.437 169.312 245.929 169.459C249.421 169.607 252.913 169.672 256.388 169.934C270.322 170.852 284.257 172.377 298.027 174.164C311.797 175.951 325.666 177.885 339.436 180.066C394.502 188.77 449.272 199.147 503.992 209.852C531.315 215.251 558.637 220.781 585.959 226.442C613.281 232.103 640.532 237.961 667.712 244.016C640.39 238.278 613.068 232.677 585.746 227.213C558.424 221.748 531.101 216.317 503.779 210.918C449.058 200.426 394.19 190.197 339.174 181.688C325.42 179.541 311.633 177.508 297.83 175.689C284.027 173.869 270.175 172.311 256.306 171.344C252.831 171.066 249.372 170.951 245.896 170.836C242.421 170.721 238.929 170.721 235.454 170.656L214.552 170.426L172.749 170.148C144.881 170.049 117.012 170.082 89.1436 170.246C61.2749 170.328 33.4063 170.508 5.53772 170.918Z" fill="#F6EFE0"/>
<path d="M10.7345 128.918L93.783 135.476L176.799 142.279L218.306 145.672C232.142 146.82 245.995 147.836 259.814 149.295C266.732 149.918 273.617 150.82 280.519 151.574C287.421 152.328 294.322 153.213 301.207 154.033C314.989 155.727 328.759 157.486 342.518 159.312C397.567 166.705 452.534 174.639 507.484 182.672L589.877 194.885L672.204 207.573L507.304 183.705C452.337 175.852 397.354 168.098 342.289 160.885C314.781 157.262 287.24 153.623 259.65 150.656C245.864 149.164 232.011 148.082 218.192 146.885L176.684 143.344L93.701 136.263L10.7345 128.918Z" fill="#F6EFE0"/>
<path d="M17.964 70.46C44.6687 78.296 71.6029 85.3287 98.6026 92.0172C125.602 98.7057 152.701 105.132 179.93 110.837L200.356 115.066L220.831 119.099C227.651 120.46 234.503 121.64 241.339 122.935C248.175 124.23 255.027 125.394 261.896 126.427C289.388 130.558 317.06 133.591 344.715 136.607C400.043 142.607 455.468 147.689 510.911 152.558L594.09 159.574L677.302 166.41L594.025 160.361C566.287 158.175 538.55 155.929 510.812 153.623C455.354 148.951 399.911 144.033 344.551 138.214C330.704 136.749 316.874 135.159 303.06 133.443C289.24 131.804 275.437 129.935 261.683 127.804C254.798 126.755 247.929 125.542 241.093 124.23C234.257 122.919 227.405 121.722 220.585 120.328L200.126 116.23L179.684 111.902C125.34 100.148 71.2422 86.5582 17.964 70.46Z" fill="#F6EFE0"/>
<path d="M24.7999 15.1817C49.8161 28.2963 75.1929 40.6186 100.93 52.1486C126.602 63.8206 152.602 74.8369 179.077 84.5418C205.552 94.2466 232.585 102.574 260.437 107.001C288.289 111.427 316.306 114.64 344.371 117.312C400.545 122.525 456.829 125.962 513.222 127.623C527.32 128.148 541.418 128.295 555.517 128.591L576.68 128.705H587.254L597.828 128.607C626.041 128.377 654.27 127.738 682.352 124.902C654.303 128 626.057 128.902 597.844 129.394L587.27 129.558H576.68H555.517C541.402 129.312 527.287 129.197 513.189 128.738C456.763 127.23 400.42 123.951 344.158 118.902C316.06 116.132 287.994 112.984 260.142 108.296C232.29 103.607 205.11 95.181 178.635 85.509C125.783 65.837 74.652 41.6241 24.7999 15.1817Z" fill="#F6EFE0"/>
<path d="M309.699 140.738C309.009 142.199 307.903 143.423 306.52 144.258C305.136 145.092 303.537 145.499 301.923 145.427C300.31 145.355 298.753 144.808 297.449 143.855C296.145 142.901 295.152 141.584 294.594 140.067C294.036 138.551 293.939 136.904 294.315 135.333C294.691 133.761 295.522 132.336 296.705 131.236C297.888 130.136 299.37 129.41 300.964 129.149C302.559 128.889 304.194 129.105 305.666 129.771C306.657 130.219 307.549 130.86 308.289 131.657C309.03 132.453 309.605 133.389 309.98 134.41C310.355 135.43 310.524 136.516 310.476 137.602C310.427 138.689 310.163 139.755 309.699 140.738Z" fill="#F6EFE0"/>
<path d="M327.276 103.009L321.555 100.344L304.025 137.987L309.747 140.652L327.276 103.009Z" fill="#F6EFE0"/>
<path d="M338.994 141.131C338.301 142.592 337.193 143.815 335.807 144.647C334.422 145.479 332.821 145.882 331.207 145.807C329.592 145.732 328.036 145.181 326.734 144.224C325.431 143.267 324.441 141.946 323.887 140.428C323.333 138.91 323.241 137.262 323.621 135.691C324.001 134.12 324.838 132.697 326.025 131.6C327.212 130.503 328.696 129.781 330.292 129.526C331.888 129.271 333.524 129.493 334.994 130.164C335.982 130.616 336.87 131.259 337.607 132.057C338.345 132.854 338.916 133.791 339.288 134.811C339.66 135.831 339.826 136.916 339.775 138.001C339.725 139.086 339.459 140.15 338.994 141.131Z" fill="#F6EFE0"/>
<path d="M356.568 103.404L350.847 100.74L333.318 138.383L339.039 141.047L356.568 103.404Z" fill="#F6EFE0"/>
<path d="M356.535 103.492L319.191 105.378L321.535 100.345L358.879 98.4597L356.535 103.492Z" fill="#F6EFE0"/>
<path d="M352.109 112.968L314.781 114.869L317.125 109.837L354.453 107.935L352.109 112.968Z" fill="#F6EFE0"/>
<path d="M81.488 576.21C80.5171 578.297 78.9489 580.05 76.9818 581.246C75.0147 582.443 72.7369 583.029 70.4367 582.93C68.1365 582.832 65.9171 582.053 64.0593 580.694C62.2015 579.334 60.7888 577.453 59.9998 575.29C59.2107 573.127 59.0809 570.779 59.6267 568.542C60.1725 566.306 61.3693 564.281 63.0659 562.725C64.7624 561.168 66.8825 560.15 69.1578 559.799C71.4332 559.447 73.7616 559.779 75.8487 560.751C78.6397 562.06 80.7993 564.421 81.8559 567.317C82.9125 570.214 82.7802 573.41 81.488 576.21Z" fill="#F6EFE0"/>
<path d="M106.207 523.059L98.1528 519.309L73.4611 572.333L81.5158 576.083L106.207 523.059Z" fill="#F6EFE0"/>
<path d="M122.766 576.767C121.796 578.855 120.227 580.607 118.26 581.804C116.293 583 114.015 583.586 111.715 583.487C109.415 583.389 107.196 582.611 105.338 581.251C103.48 579.891 102.067 578.011 101.278 575.848C100.489 573.685 100.359 571.336 100.905 569.1C101.451 566.863 102.648 564.838 104.344 563.282C106.041 561.726 108.161 560.707 110.436 560.356C112.712 560.005 115.04 560.336 117.127 561.308C119.924 562.611 122.09 564.971 123.147 567.87C124.205 570.769 124.068 573.969 122.766 576.767Z" fill="#F6EFE0"/>
<path d="M147.522 523.62L139.467 519.869L114.775 572.893L122.83 576.644L147.522 523.62Z" fill="#F6EFE0"/>
<path d="M147.471 523.735L94.8649 526.407L98.1763 519.308L150.782 516.636L147.471 523.735Z" fill="#F6EFE0"/>
<path d="M141.258 537.095L88.6519 539.767L91.9469 532.669L144.553 530.013L141.258 537.095Z" fill="#F6EFE0"/>
<path d="M614.795 235.836C614.213 237.088 613.272 238.139 612.092 238.857C610.913 239.575 609.547 239.927 608.167 239.869C606.787 239.811 605.456 239.345 604.341 238.53C603.226 237.715 602.378 236.587 601.903 235.29C601.429 233.993 601.35 232.585 601.676 231.243C602.002 229.901 602.718 228.686 603.735 227.751C604.752 226.816 606.023 226.204 607.387 225.991C608.752 225.779 610.149 225.976 611.401 226.557C613.079 227.34 614.378 228.756 615.014 230.495C615.65 232.234 615.571 234.155 614.795 235.836Z" fill="#F6EFE0"/>
<path d="M629.646 203.917L624.816 201.668L609.993 233.5L614.823 235.75L629.646 203.917Z" fill="#F6EFE0"/>
<path d="M639.565 236.18C638.982 237.432 638.04 238.483 636.859 239.2C635.678 239.916 634.311 240.267 632.931 240.207C631.551 240.147 630.22 239.679 629.106 238.862C627.992 238.045 627.145 236.916 626.673 235.618C626.201 234.32 626.124 232.911 626.452 231.569C626.78 230.228 627.499 229.014 628.518 228.08C629.537 227.147 630.809 226.537 632.174 226.327C633.54 226.117 634.936 226.317 636.188 226.901C637.866 227.684 639.165 229.101 639.798 230.841C640.431 232.581 640.347 234.502 639.565 236.18Z" fill="#F6EFE0"/>
<path d="M654.414 204.267L649.584 202.018L634.76 233.85L639.59 236.099L654.414 204.267Z" fill="#F6EFE0"/>
<path d="M654.401 204.344L622.828 205.934L624.811 201.688L656.385 200.082L654.401 204.344Z" fill="#F6EFE0"/>
<path d="M148.111 105.869C147.528 107.122 146.588 108.173 145.408 108.891C144.229 109.609 142.862 109.961 141.483 109.903C140.103 109.845 138.771 109.379 137.657 108.564C136.542 107.749 135.693 106.621 135.219 105.324C134.745 104.027 134.666 102.619 134.992 101.277C135.318 99.9349 136.034 98.7198 137.051 97.785C138.067 96.8503 139.338 96.2379 140.703 96.0254C142.067 95.8128 143.464 96.0096 144.717 96.5909C146.395 97.3742 147.694 98.7903 148.33 100.529C148.966 102.268 148.887 104.189 148.111 105.869Z" fill="#F6EFE0"/>
<path d="M162.95 73.9736L158.12 71.7245L143.297 103.557L148.126 105.806L162.95 73.9736Z" fill="#F6EFE0"/>
<path d="M172.881 106.214C172.297 107.466 171.355 108.517 170.175 109.234C168.994 109.95 167.627 110.301 166.247 110.241C164.867 110.181 163.536 109.713 162.422 108.896C161.308 108.079 160.461 106.95 159.988 105.652C159.516 104.354 159.439 102.945 159.768 101.603C160.096 100.262 160.815 99.0475 161.833 98.1144C162.852 97.1813 164.124 96.5712 165.49 96.3613C166.855 96.1514 168.252 96.3511 169.504 96.9352C170.336 97.3212 171.084 97.8677 171.704 98.5435C172.325 99.2192 172.806 100.011 173.12 100.873C173.433 101.735 173.574 102.651 173.533 103.567C173.492 104.484 173.27 105.383 172.881 106.214Z" fill="#F6EFE0"/>
<path d="M187.74 74.3082L182.91 72.0591L168.087 103.891L172.917 106.14L187.74 74.3082Z" fill="#F6EFE0"/>
<path d="M187.717 74.378L156.143 75.9845L158.127 71.7223L189.7 70.1157L187.717 74.378Z" fill="#F6EFE0"/>
<path d="M523.369 604.996C522.786 606.248 521.844 607.299 520.663 608.016C519.483 608.733 518.116 609.083 516.736 609.023C515.356 608.963 514.024 608.495 512.91 607.678C511.796 606.862 510.95 605.733 510.477 604.435C510.005 603.137 509.928 601.728 510.256 600.386C510.585 599.044 511.304 597.83 512.322 596.897C513.341 595.964 514.613 595.354 515.978 595.144C517.344 594.934 518.741 595.134 519.992 595.718C520.825 596.104 521.573 596.65 522.193 597.326C522.814 598.002 523.295 598.793 523.608 599.656C523.922 600.518 524.063 601.433 524.022 602.35C523.981 603.266 523.759 604.166 523.369 604.996Z" fill="#F6EFE0"/>
<path d="M538.236 573.082L533.406 570.833L518.583 602.665L523.413 604.915L538.236 573.082Z" fill="#F6EFE0"/>
<path d="M548.156 605.341C547.57 606.59 546.627 607.639 545.446 608.353C544.265 609.067 542.898 609.415 541.519 609.354C540.14 609.292 538.81 608.822 537.698 608.005C536.585 607.188 535.74 606.059 535.269 604.762C534.797 603.464 534.721 602.056 535.049 600.715C535.378 599.375 536.096 598.161 537.114 597.229C538.132 596.296 539.403 595.686 540.767 595.475C542.131 595.265 543.527 595.463 544.779 596.045C545.612 596.433 546.36 596.981 546.981 597.659C547.601 598.336 548.082 599.129 548.396 599.992C548.71 600.856 548.85 601.773 548.809 602.69C548.768 603.608 548.546 604.509 548.156 605.341Z" fill="#F6EFE0"/>
<path d="M563.02 573.432L558.19 571.183L543.367 603.015L548.197 605.264L563.02 573.432Z" fill="#F6EFE0"/>
<path d="M562.992 573.488L531.418 575.095L533.402 570.849L564.976 569.243L562.992 573.488Z" fill="#F6EFE0"/>
<path d="M469.419 203.18C468.727 204.64 467.618 205.863 466.232 206.695C464.847 207.527 463.246 207.931 461.632 207.856C460.017 207.781 458.461 207.23 457.159 206.273C455.856 205.316 454.866 203.995 454.312 202.477C453.759 200.958 453.666 199.31 454.046 197.74C454.427 196.169 455.263 194.745 456.45 193.648C457.637 192.552 459.122 191.83 460.717 191.575C462.313 191.319 463.949 191.541 465.419 192.213C466.407 192.664 467.295 193.308 468.033 194.105C468.77 194.903 469.341 195.839 469.713 196.86C470.085 197.88 470.251 198.964 470.201 200.049C470.15 201.134 469.884 202.199 469.419 203.18Z" fill="#F6EFE0"/>
<path d="M486.995 165.464L481.274 162.8L463.744 200.443L469.466 203.107L486.995 165.464Z" fill="#F6EFE0"/>
<path d="M510.937 164.802L505.215 162.138L500.15 173.016L505.871 175.681L510.937 164.802Z" fill="#F6EFE0"/>
<path d="M510.255 166.262L478.927 167.836L481.271 162.804L512.599 161.23L510.255 166.262Z" fill="#F6EFE0"/>
<path d="M505.829 175.754L474.501 177.312L476.845 172.279L508.173 170.721L505.829 175.754Z" fill="#F6EFE0"/>
<path d="M398.239 532.358C398.823 535.444 398.478 538.634 397.249 541.525C396.019 544.415 393.961 546.877 391.333 548.597C388.705 550.318 385.626 551.221 382.485 551.192C379.344 551.163 376.282 550.204 373.686 548.435C371.09 546.667 369.077 544.168 367.901 541.255C366.725 538.343 366.439 535.147 367.079 532.071C367.719 528.996 369.256 526.18 371.497 523.978C373.737 521.776 376.58 520.288 379.666 519.702C383.807 518.92 388.089 519.813 391.571 522.186C395.054 524.559 397.452 528.217 398.239 532.358Z" fill="#F6EFE0"/>
<path d="M383.387 453.675L371.468 455.931L386.321 534.389L398.24 532.133L383.387 453.675Z" fill="#F6EFE0"/>
<path d="M419.988 425.889L408.069 428.143L412.358 450.823L424.278 448.568L419.988 425.889Z" fill="#F6EFE0"/>
<path d="M420.6 428.867L373.42 466.457L371.436 455.965L418.616 418.375L420.6 428.867Z" fill="#F6EFE0"/>
<path d="M424.337 448.637L377.158 486.227L375.174 475.735L422.354 438.145L424.337 448.637Z" fill="#F6EFE0"/>
<path d="M567.959 131.377C567.572 132.326 566.912 133.138 566.063 133.712C565.213 134.285 564.213 134.594 563.189 134.599C562.164 134.604 561.161 134.305 560.306 133.74C559.452 133.175 558.784 132.369 558.387 131.424C557.99 130.48 557.883 129.438 558.078 128.433C558.273 127.427 558.762 126.501 559.483 125.773C560.204 125.045 561.125 124.548 562.129 124.343C563.133 124.138 564.175 124.236 565.123 124.623C566.392 125.147 567.402 126.15 567.934 127.416C568.465 128.681 568.474 130.105 567.959 131.377Z" fill="#F6EFE0"/>
<path d="M577.874 107.267L574.219 105.767L564.33 129.866L567.985 131.366L577.874 107.267Z" fill="#F6EFE0"/>
<path d="M592.873 106.143L589.218 104.643L586.362 111.605L590.017 113.104L592.873 106.143Z" fill="#F6EFE0"/>
<path d="M592.516 107.05L572.926 108.935L574.254 105.722L593.844 103.82L592.516 107.05Z" fill="#F6EFE0"/>
<path d="M590.025 113.115L570.435 115.017L571.762 111.787L591.352 109.902L590.025 113.115Z" fill="#F6EFE0"/>
<path d="M157.684 611.242C157.603 612.264 157.22 613.239 156.584 614.043C155.948 614.848 155.088 615.445 154.113 615.761C153.137 616.076 152.09 616.094 151.104 615.814C150.118 615.534 149.237 614.967 148.573 614.186C147.909 613.405 147.492 612.444 147.374 611.426C147.256 610.408 147.443 609.377 147.912 608.465C148.38 607.553 149.108 606.801 150.005 606.303C150.901 605.805 151.925 605.584 152.946 605.669C154.313 605.781 155.579 606.431 156.467 607.476C157.355 608.521 157.793 609.875 157.684 611.242Z" fill="#F6EFE0"/>
<path d="M160.917 587.21L156.966 586.894L154.882 612.943L158.833 613.259L160.917 587.21Z" fill="#F6EFE0"/>
<path d="M173.794 579.615L169.856 579.297L169.25 586.797L173.188 587.115L173.794 579.615Z" fill="#F6EFE0"/>
<path d="M173.651 580.62L155.569 588.374L155.848 584.898L173.93 577.144L173.651 580.62Z" fill="#F6EFE0"/>
<path d="M173.126 587.16L155.045 594.914L155.323 591.439L173.405 583.685L173.126 587.16Z" fill="#F6EFE0"/>
<path d="M118.897 191.819C118.509 192.768 117.847 193.58 116.997 194.152C116.147 194.725 115.146 195.032 114.121 195.035C113.096 195.039 112.093 194.738 111.239 194.171C110.385 193.604 109.718 192.797 109.324 191.851C108.929 190.905 108.823 189.863 109.021 188.857C109.218 187.851 109.709 186.927 110.433 186.2C111.156 185.474 112.078 184.978 113.083 184.776C114.088 184.574 115.13 184.675 116.078 185.065C117.346 185.588 118.356 186.593 118.884 187.859C119.413 189.126 119.418 190.55 118.897 191.819Z" fill="#F6EFE0"/>
<path d="M128.78 167.666L125.125 166.166L115.236 190.265L118.891 191.765L128.78 167.666Z" fill="#F6EFE0"/>
<path d="M143.78 166.553L140.125 165.053L137.269 172.014L140.924 173.514L143.78 166.553Z" fill="#F6EFE0"/>
<path d="M143.422 167.492L123.832 169.377L125.16 166.164L144.75 164.262L143.422 167.492Z" fill="#F6EFE0"/>
<path d="M140.93 173.557L121.34 175.459L122.652 172.229L142.242 170.344L140.93 173.557Z" fill="#F6EFE0"/>
<path d="M342.715 204.262C342.325 205.209 341.664 206.018 340.814 206.589C339.964 207.16 338.964 207.466 337.941 207.47C336.917 207.473 335.915 207.172 335.062 206.607C334.209 206.041 333.543 205.235 333.147 204.291C332.752 203.347 332.645 202.306 332.84 201.301C333.035 200.296 333.524 199.372 334.244 198.645C334.964 197.917 335.884 197.419 336.887 197.214C337.89 197.009 338.931 197.106 339.879 197.492C340.511 197.749 341.085 198.128 341.57 198.608C342.055 199.088 342.44 199.659 342.703 200.288C342.967 200.917 343.103 201.592 343.105 202.274C343.107 202.956 342.975 203.631 342.715 204.262Z" fill="#F6EFE0"/>
<path d="M352.58 180.12L348.925 178.621L339.036 202.72L342.691 204.219L352.58 180.12Z" fill="#F6EFE0"/>
<path d="M367.579 179.013L363.924 177.513L361.068 184.475L364.723 185.974L367.579 179.013Z" fill="#F6EFE0"/>
<path d="M367.223 179.918L347.633 181.82L348.961 178.607L368.551 176.705L367.223 179.918Z" fill="#F6EFE0"/>
<path d="M364.731 186L345.141 187.901L346.469 184.672L366.059 182.77L364.731 186Z" fill="#F6EFE0"/>
<path d="M81.4225 113.296C80.5223 114.173 79.4297 114.829 78.2315 115.21C77.0334 115.592 75.7629 115.688 74.5209 115.492C72.0138 115.282 69.6031 114.429 67.521 113.017C65.4087 111.593 63.7748 109.564 62.8325 107.197C61.9327 104.802 61.7004 102.207 62.1604 99.6892C62.9222 94.5953 65.6611 90.0069 69.7832 86.9188C74.1041 83.9896 79.3991 82.8659 84.5372 83.7877C89.6349 84.5897 94.3532 86.9689 98.0289 90.5909C101.765 94.2569 104.058 99.1447 104.488 104.361C104.738 109.485 103.917 114.605 102.078 119.394C100.297 124.26 97.3069 128.592 93.3896 131.984C89.367 135.347 84.4614 137.481 79.2586 138.132C74.1281 138.73 68.9296 138.284 63.9764 136.819C59.0233 135.354 54.4183 132.9 50.4391 129.607C46.466 126.259 43.2857 122.071 41.1277 117.345C38.9735 112.605 37.9359 107.434 38.095 102.23C38.2976 97.0547 39.5644 91.9765 41.8163 87.3123C44.0575 82.6999 47.0241 78.4769 50.6031 74.8042C54.1137 71.2003 57.8833 67.858 61.8817 64.8043C69.7505 58.6896 78.0127 53.3289 85.3733 46.8864C89.0537 43.7682 92.4095 40.2861 95.3896 36.493C98.3285 32.8496 100.272 28.5059 101.029 23.8866C101.314 21.7039 101.009 19.4846 100.144 17.4604C99.7384 16.5164 99.1438 15.6657 98.3965 14.9607C97.6493 14.2558 96.7654 13.7117 95.7994 13.3621C94.8407 13.0611 93.8245 12.9903 92.8333 13.1555C91.8421 13.3207 90.9038 13.7172 90.0945 14.3129C88.3365 15.6361 86.9756 17.4167 86.1601 19.4604C84.6226 24.0233 83.5838 28.7393 83.0618 33.5259C82.3569 38.4438 81.7667 43.2799 81.2094 48.1815C79.0455 67.8534 77.4389 87.5254 75.4061 107.197C74.3406 117.033 73.2094 126.869 71.7504 136.705C71.0127 141.623 70.1111 146.541 69.1111 151.328C68.6141 153.76 67.929 156.15 67.0619 158.476C66.5146 159.597 65.7504 160.599 64.8133 161.424C63.8763 162.248 62.7852 162.879 61.603 163.279C62.7546 162.846 63.8085 162.188 64.7035 161.343C65.5985 160.499 66.3166 159.485 66.8161 158.361C67.594 156.022 68.1914 153.627 68.6029 151.197C69.5373 146.279 70.2423 141.476 70.8324 136.574C72.0291 126.738 72.898 116.902 73.7012 107.066C75.3406 87.3942 76.7176 67.7223 78.6192 47.9356C79.0946 43.0176 79.6028 38.0996 80.2586 33.1816C80.5864 30.7226 80.9799 28.2636 81.4389 25.7882C81.8537 23.2412 82.5407 20.746 83.488 18.3456C84.4845 15.7444 86.1878 13.4733 88.406 11.7883C89.601 10.9206 90.9822 10.3442 92.4395 10.1051C93.8968 9.86602 95.3898 9.97087 96.7994 10.4113C98.1737 10.8884 99.4356 11.6422 100.507 12.6263C101.579 13.6103 102.437 14.8037 103.029 16.1326C104.151 18.6629 104.559 21.4522 104.209 24.1981C103.442 29.3989 101.31 34.3034 98.0289 38.411C94.9481 42.4071 91.4654 46.0766 87.6355 49.3618C80.0946 55.9191 71.816 61.4928 64.0948 67.5092C56.3735 73.5255 48.8818 80.0992 44.7835 88.7057C42.7068 92.9616 41.5241 97.5979 41.3081 102.329C41.1449 107.042 42.0646 111.731 43.9966 116.033C45.9378 120.35 48.8229 124.176 52.4391 127.23C56.0654 130.293 60.2843 132.576 64.8325 133.935C69.3877 135.3 74.1688 135.746 78.8979 135.246C83.5822 134.754 88.0235 132.915 91.6847 129.951C98.9961 124 102.603 113.951 102.357 104.542C102.026 99.7999 100.008 95.3335 96.6683 91.9516C93.296 88.5442 88.9582 86.2551 84.2421 85.3942C81.8932 84.8472 79.4563 84.7937 77.0856 85.2371C74.7149 85.6806 72.4621 86.6113 70.4697 87.9704C68.4773 89.3294 66.7887 91.0873 65.5107 93.1327C64.2328 95.1781 63.3934 97.4665 63.0456 99.8531C62.5521 102.23 62.7222 104.697 63.5374 106.984C64.3792 109.257 65.8876 111.223 67.8652 112.624C69.8527 114.043 72.1739 114.924 74.6029 115.181C75.808 115.412 77.0502 115.362 78.2329 115.035C79.4156 114.708 80.5071 114.113 81.4225 113.296Z" fill="#F6EFE0"/>
<path d="M66.3241 159.443C65.4875 160.825 64.2613 161.928 62.7995 162.615C61.3377 163.303 59.7055 163.542 58.1078 163.305C56.5101 163.068 55.0181 162.363 53.8193 161.281C52.6205 160.198 51.7682 158.786 51.3696 157.221C50.9709 155.655 51.0436 154.007 51.5785 152.483C52.1134 150.959 53.0867 149.627 54.3761 148.654C55.6656 147.681 57.2137 147.111 58.8261 147.015C60.4385 146.919 62.0432 147.302 63.4389 148.115C64.379 148.663 65.2007 149.392 65.856 150.261C66.5113 151.129 66.9871 152.12 67.2557 153.174C67.5242 154.229 67.5802 155.326 67.4202 156.402C67.2603 157.478 66.8877 158.512 66.3241 159.443Z" fill="#F6EFE0"/>
<path opacity="0.3" d="M483.845 664.356C483.845 670.389 420.223 675.274 341.732 675.274C263.241 675.274 199.618 670.356 199.618 664.356C199.618 658.356 263.241 653.422 341.732 653.422C420.223 653.422 483.845 658.356 483.845 664.356Z" fill="#1F1500"/>
<path d="M291.289 541.816C287.006 556.03 278.605 568.655 267.147 578.094C255.69 587.533 241.691 593.363 226.92 594.847C212.149 596.331 197.27 593.402 184.164 586.43C171.058 579.458 160.313 568.757 153.288 555.679C146.264 542.602 143.274 527.735 144.698 512.958C146.122 498.181 151.895 484.159 161.288 472.663C170.681 461.167 183.271 452.715 197.468 448.374C211.664 444.033 226.828 443.999 241.044 448.276C250.486 451.117 259.276 455.791 266.912 462.029C274.548 468.268 280.879 475.951 285.545 484.637C290.211 493.324 293.12 502.844 294.106 512.655C295.091 522.466 294.134 532.375 291.289 541.816Z" fill="#F6654B"/>
<path d="M400.316 179.631L345.409 163.096L236.574 524.486L291.481 541.022L400.316 179.631Z" fill="#F6654B"/>
<path d="M555.467 507.309C551.186 521.528 542.784 534.158 531.325 543.602C519.865 553.046 505.862 558.88 491.087 560.366C476.312 561.852 461.428 558.923 448.317 551.95C435.207 544.977 424.458 534.272 417.431 521.19C410.404 508.109 407.414 493.237 408.84 478.456C410.265 463.674 416.041 449.648 425.438 438.15C434.835 426.651 447.431 418.198 461.632 413.858C475.833 409.518 491.003 409.487 505.222 413.769C514.664 416.609 523.454 421.283 531.09 427.522C538.726 433.761 545.057 441.443 549.723 450.129C554.389 458.816 557.298 468.337 558.284 478.148C559.269 487.959 558.312 497.868 555.467 507.309Z" fill="#F6654B"/>
<path d="M664.537 145.059L609.626 128.533L500.854 489.942L555.765 506.469L664.537 145.059Z" fill="#F6654B"/>
<path d="M664.352 145.836L330.879 211.393L345.42 163.066L678.893 97.5253L664.352 145.836Z" fill="#F6654B"/>
<path d="M636.926 236.901L303.47 302.458L318.011 254.147L651.467 188.59L636.926 236.901Z" fill="#F6654B"/>
<path fill-rule="evenodd" clip-rule="evenodd" d="M79.9402 202.575L79.9636 202.574L82.7832 196.524L37.8389 198.834L37.8134 198.822L37.8071 198.836L37.8 198.836L34.9804 204.885L34.9956 204.884L20.758 235.514C20.1554 235.03 19.4937 234.614 18.7838 234.278C17.0024 233.438 15.0118 233.146 13.064 233.438C11.1162 233.73 9.2989 234.593 7.84219 235.919C6.38548 237.244 5.35491 238.972 4.88099 240.884C4.40707 242.796 4.51112 244.805 5.17995 246.657C5.84878 248.51 7.05232 250.122 8.63815 251.29C10.224 252.458 12.1208 253.13 14.0883 253.219C16.0558 253.308 18.0056 252.812 19.6907 251.792C21.3758 250.772 22.7204 249.276 23.5543 247.491C23.5701 247.457 23.5857 247.423 23.6011 247.389L23.622 247.399L43.5889 204.443L71.3461 203.016L56.0159 235.982C55.4091 235.5 54.7433 235.087 54.0294 234.754C52.2451 233.922 50.2543 233.638 48.3088 233.938C46.3632 234.238 44.5504 235.109 43.0996 236.439C41.6488 237.77 40.6252 239.501 40.1584 241.413C39.6916 243.325 39.8025 245.333 40.477 247.183C41.1516 249.032 42.3596 250.64 43.9481 251.802C45.5366 252.965 47.4342 253.63 49.401 253.714C51.3677 253.798 53.3152 253.297 54.997 252.274C56.6788 251.251 58.0193 249.752 58.849 247.967C58.9282 247.796 59.0023 247.624 59.0713 247.451L79.9402 202.575Z" fill="#F6654B"/>
<path d="M173.094 153.181C173.212 156.33 172.393 159.443 170.741 162.127C169.09 164.811 166.68 166.944 163.815 168.259C160.951 169.573 157.762 170.008 154.65 169.51C151.539 169.011 148.645 167.601 146.334 165.458C144.024 163.315 142.401 160.535 141.67 157.47C140.94 154.404 141.135 151.191 142.23 148.236C143.326 145.282 145.273 142.718 147.825 140.87C150.377 139.022 153.42 137.972 156.569 137.853C158.661 137.772 160.749 138.104 162.712 138.831C164.676 139.558 166.477 140.665 168.012 142.089C169.547 143.512 170.786 145.225 171.658 147.128C172.53 149.032 173.018 151.088 173.094 153.181Z" fill="#9F402F"/>
<path d="M170.063 72.953L157.908 73.4136L160.94 153.437L173.095 152.977L170.063 72.953Z" fill="#9F402F"/>
<path d="M210.574 50.7873L198.418 51.2479L199.295 74.3786L211.45 73.918L210.574 50.7873Z" fill="#9F402F"/>
<path d="M210.7 53.8863L158.307 84.132L157.897 73.4272L210.29 43.1815L210.7 53.8863Z" fill="#9F402F"/>
<path d="M211.454 74.0502L159.061 104.296L158.668 93.591L211.044 63.3453L211.454 74.0502Z" fill="#9F402F"/>
<path d="M612.762 572.718C611.898 574.247 610.6 575.486 609.032 576.278C607.463 577.069 605.696 577.379 603.952 577.166C602.208 576.953 600.567 576.229 599.235 575.084C597.903 573.938 596.94 572.424 596.468 570.732C595.996 569.04 596.037 567.246 596.585 565.577C597.132 563.908 598.162 562.438 599.544 561.354C600.927 560.27 602.599 559.62 604.351 559.487C606.103 559.353 607.854 559.742 609.385 560.603C610.405 561.175 611.301 561.942 612.023 562.861C612.745 563.78 613.279 564.833 613.592 565.958C613.906 567.084 613.994 568.261 613.852 569.421C613.71 570.581 613.339 571.701 612.762 572.718Z" fill="#9F402F"/>
<path d="M634.685 533.713L628.772 530.382L606.849 569.305L612.763 572.635L634.685 533.713Z" fill="#9F402F"/>
<path d="M660.442 534.983L654.529 531.652L648.189 542.908L654.103 546.238L660.442 534.983Z" fill="#9F402F"/>
<path d="M659.631 536.489L625.893 535.571L628.827 530.374L662.565 531.276L659.631 536.489Z" fill="#9F402F"/>
<path d="M654.106 546.292L620.369 545.39L623.303 540.177L657.04 541.095L654.106 546.292Z" fill="#9F402F"/>
<path d="M1.30843 346.703C5.91495 349.982 152.93 395.621 159.619 393.818C160.356 393.605 161.897 386.998 168.536 370.588C168.848 369.802 173.077 367.539 179.536 364.49C203.798 353.015 259.732 330.064 259.732 330.064L202.356 246.13L111.898 297.999L88.3732 311.491C88.3732 311.491 20.0296 324.458 12.8821 327.212C5.73462 329.966 -3.29809 343.408 1.30843 346.703Z" fill="#F7A9A0"/>
<path d="M1.30844 346.72C5.91496 349.998 152.93 395.621 159.619 393.818C160.356 393.605 161.897 386.998 168.537 370.588C146.406 368.244 31.4557 344.359 31.0131 330.031C30.8492 324.376 50.226 319.195 53.7178 318.31C35.6852 321.9 16.5214 325.867 12.9313 327.261C5.8166 330.048 -3.29807 343.408 1.30844 346.72Z" fill="#1F1500"/>
<path d="M146.832 271.917L154.864 287.983L194.897 368.162C194.897 368.162 288.503 331.589 316.535 318.786C317.437 318.376 391.403 406.375 454.55 436.162C502.943 458.997 542.599 448.866 574.975 406.654L500.616 347.392C439.206 294.163 374.256 218.032 324.699 211.328C270.863 203.918 146.832 271.917 146.832 271.917Z" fill="#1F1500"/>
<path d="M166.045 271.868C174.438 287.622 172.241 282.983 180.471 298.835C184.504 306.589 204.848 345.54 207.405 353.392C207.405 353.572 207.192 353.703 207.094 353.556C202.176 346.851 182.75 307.474 178.864 299.655C170.93 283.655 173.373 288.179 165.602 272.081C165.586 272.052 165.577 272.02 165.574 271.987C165.57 271.953 165.574 271.92 165.584 271.888C165.595 271.857 165.611 271.828 165.633 271.802C165.655 271.777 165.682 271.757 165.712 271.743C165.742 271.728 165.774 271.72 165.808 271.719C165.841 271.717 165.874 271.722 165.905 271.734C165.936 271.746 165.965 271.764 165.989 271.787C166.013 271.81 166.032 271.837 166.045 271.868Z" fill="#9F402F"/>
<path d="M161.225 300.737L194.88 368.162C194.88 368.162 288.519 331.605 316.535 318.786C317.437 318.376 391.403 406.375 454.534 436.162C502.943 458.997 542.615 448.866 574.959 406.654L500.615 347.376C492.419 340.326 484.222 332.884 476.026 325.261C398.682 319.359 229.175 306.081 161.225 300.737Z" fill="#9F402F"/>
<path d="M37.9967 527.669C43.4557 529.177 197.176 521.112 202.831 517.177C203.438 516.718 202.602 509.981 203.159 492.292C203.159 491.456 206.438 487.866 211.356 482.768C230.175 463.637 274.765 422.801 274.765 422.801L191.946 363.785L125.012 443.768L107.586 464.555C107.586 464.555 47.931 500.423 42.177 505.341C36.4229 510.259 32.5213 526.144 37.9967 527.669Z" fill="#F7A9A0"/>
<path d="M37.9803 527.669C43.4556 529.177 197.176 521.112 202.831 517.177C203.438 516.718 202.602 509.981 203.176 492.292C181.602 497.735 65.4718 515.112 60.1112 501.751C57.9965 496.505 74.3898 484.948 77.357 482.915C61.6194 492.522 45.013 502.85 42.1769 505.341C36.4721 510.472 32.5377 526.144 37.9803 527.669Z" fill="#1F1500"/>
<path d="M594.303 341.933C594.303 341.933 611.5 402.309 581.91 431.686C560.599 452.85 530.386 457.67 503.714 456.489C430.026 453.211 359.928 371.359 335.305 369.015C322.666 367.818 234.487 473.719 234.487 473.719L151.569 407.719C169.209 389.113 272.88 261.819 330.879 256.179C370.567 252.327 479.222 325.031 481.55 323.851C485.37 321.884 502.156 311.72 502.156 311.72L594.303 341.933Z" fill="#1F1500"/>
<path d="M166.208 398.457C176.454 405.523 186.159 413.359 195.946 420.981C205.733 428.604 215.388 436.244 224.962 444.03C230.405 448.457 235.814 452.899 241.077 457.506C241.208 457.62 241.077 457.801 240.896 457.702C230.749 450.489 220.946 442.834 211.143 435.194C201.339 427.555 191.7 419.932 182.094 412.244C176.667 407.834 171.159 403.441 165.963 398.785C165.799 398.572 166.012 398.326 166.208 398.457Z" fill="#9F402F"/>
<path d="M533.156 338.277C533.255 337.933 533.779 338.13 533.73 338.458C532.444 347.884 534.522 357.461 539.599 365.507C545.419 374.425 554.992 380.26 563.582 386.211C564.418 386.769 563.582 388.064 562.664 387.67C557.236 385.151 552.097 382.051 547.337 378.424C542.947 375.252 539.249 371.219 536.468 366.572C533.981 362.344 532.402 357.645 531.832 352.773C531.262 347.902 531.713 342.965 533.156 338.277Z" fill="#9F402F"/>
<path d="M480.812 330.163C482.878 328.294 485.091 326.556 487.222 324.753C492.271 320.491 497.353 316.212 502.566 312.163C503.075 311.786 503.763 312.573 503.304 312.999C499.681 316.359 495.894 319.556 492.173 322.835C490.26 324.496 488.337 326.135 486.403 327.753C484.446 329.215 482.635 330.862 480.993 332.671C479.485 334.605 480.665 336.704 482.845 337.326C484.806 337.724 486.844 337.348 488.534 336.277C492.468 334.228 495.845 330.9 499.288 328.081C501.402 326.441 503.501 324.802 505.632 323.064C507.763 321.327 510.271 319.687 512.534 317.95C512.681 317.835 512.878 318.064 512.747 318.179C510.697 320.179 508.747 322.294 506.681 324.277C504.616 326.261 502.55 328.228 500.452 330.179C498.353 332.13 496.419 333.802 494.337 335.523C492.588 337.072 490.594 338.319 488.435 339.212C484.944 340.54 479.354 339.982 478.37 335.572C478.259 334.535 478.428 333.487 478.857 332.536C479.286 331.585 479.961 330.766 480.812 330.163Z" fill="#9F402F"/>
<path d="M235.962 448.129C257.175 423.637 314.929 360.933 328.322 350.08C329.68 349.009 331.243 348.228 332.915 347.785C334.588 347.342 336.333 347.248 338.043 347.507C341.814 348.048 345.043 350.507 348.174 352.523L359.371 359.736L382.321 374.605C396.698 383.9 410.993 393.31 425.485 402.473C438.289 410.806 451.704 418.16 465.616 424.473C492.37 436.112 525.304 442.014 552.09 427.145C564.223 420.247 573.438 409.179 578.025 395.998C582.844 382.883 584.025 368.588 584.238 354.654C584.238 351.277 584.238 347.906 584.238 344.539C584.238 344.359 584.5 344.343 584.5 344.539C585.729 370.67 584.5 401.211 564.172 420.44C542.566 440.866 509.369 440.899 482.501 432.785C452.403 423.686 426.108 405.277 399.977 388.359L354.338 358.621C350.65 356.228 347.01 353.703 343.24 351.457C339.469 349.212 335.125 347.654 331.322 350.392C318.666 359.49 239.372 445.637 236.569 448.637C236.224 448.998 235.634 448.506 235.962 448.129Z" fill="#9F402F"/>
<path d="M422.649 290.327C401.764 278.261 380.125 267.229 357.076 259.573C351.296 257.612 345.347 256.191 339.306 255.327C336.238 254.882 333.126 254.821 330.043 255.147C326.981 255.505 323.958 256.142 321.011 257.048C309.257 260.671 298.634 266.884 288.47 273.442C278.431 280.215 268.761 287.52 259.503 295.327C250.241 303.114 241.208 311.163 232.536 319.573C215.129 336.337 198.599 353.988 183.012 372.457C191.208 363.572 199.405 354.753 207.913 346.228C216.421 337.704 224.962 329.163 233.782 320.95C251.454 304.556 269.716 288.72 289.781 275.458C299.781 268.901 310.273 262.753 321.634 259.18C327.238 257.299 333.194 256.705 339.06 257.442C344.982 258.275 350.827 259.591 356.535 261.376C368.014 265.033 379.249 269.413 390.174 274.491C401.19 279.278 411.993 284.655 422.649 290.327Z" fill="#9F402F"/>
<path d="M501.665 231.327C501.638 231.596 501.709 231.866 501.866 232.086C502.023 232.306 502.254 232.462 502.517 232.524L506.894 232.819C510.993 221.852 515.37 213.147 514.206 216.541C512.441 221.893 511.432 227.466 511.206 233.098C513.14 233.213 517.616 233.426 519.862 233.524C523.583 214.246 528.173 199.934 527.845 204.344C526.452 222.147 527.353 227.868 528.402 233.967C549.304 234.967 576.713 235.95 596.549 236.213C599.008 225.541 601.189 214 601.467 214.803C604.074 220.836 604.664 229.557 604.615 236.295C610.943 236.295 615.992 236.295 619.074 236.016C619.074 236.016 620.713 227.049 620.943 224.098C621.635 216.561 621.008 208.961 619.09 201.639C617.107 194.18 613.582 187.574 610.238 180.82C610.221 180.765 610.193 180.715 610.156 180.672C607.951 176.243 606.252 171.58 605.09 166.771C605.096 166.732 605.096 166.694 605.09 166.656C604.307 163.145 603.819 159.576 603.631 155.984C602.926 142.869 596.172 131.394 584.664 127.984C563.173 106.017 541.156 115.312 534.271 132.213C533.615 133.853 532.96 135.738 532.337 137.804C529.976 145.41 527.812 155.295 525.779 162.918C525.779 162.918 525.779 162.918 525.779 163C525.046 165.993 524.132 168.938 523.042 171.82C517.321 185.672 504.599 193.475 501.665 231.327Z" fill="#1F1500"/>
<path d="M589.664 131.574C593.389 133.494 596.555 136.344 598.853 139.849C601.151 143.353 602.503 147.392 602.779 151.574C603.369 157.18 603.631 162.639 605.565 167.967C607.683 173.151 610.544 178 614.057 182.361C619.319 189.442 622.942 196.508 623.631 205.951C624.319 215.393 623.713 226.819 620.549 235.77H620.467C623.073 226.704 623.336 214.164 621.975 204.623C620.483 194.197 615.073 187.656 609.549 179.738C605.092 173.445 602.352 166.1 601.598 158.426C601.106 153.689 601.254 148.738 599.533 144.263C597.484 138.935 593.287 135.541 589.123 132.525C589.025 132.441 588.959 132.325 588.937 132.198C588.915 132.07 588.938 131.939 589.002 131.827C589.066 131.715 589.167 131.628 589.288 131.582C589.408 131.536 589.541 131.533 589.664 131.574Z" fill="#1F1500"/>
<path d="M510.107 186.656C515.583 179.18 521.255 172.82 524.55 163.541C527.533 155.098 529.32 146.181 532.353 137.754C532.353 137.728 532.363 137.703 532.382 137.685C532.4 137.666 532.425 137.656 532.451 137.656C532.477 137.656 532.502 137.666 532.521 137.685C532.539 137.703 532.55 137.728 532.55 137.754C527.828 152.721 526.714 167.82 517.484 180.377C512.468 187.229 507.452 193.492 504.091 201.688C500.659 210.316 498.794 219.487 498.583 228.77C498.583 229.098 498.173 229.081 498.14 228.77C497.094 213.766 501.327 198.868 510.107 186.656Z" fill="#1F1500"/>
<path d="M583.402 127.459C584.566 130.738 602.631 134.017 611.369 122.164C620.106 110.312 610.418 95.0171 595.533 101.263C586.123 105.214 580.91 120.591 583.402 127.459Z" fill="#1F1500"/>
<path d="M612.615 105.542C609.692 101.983 605.645 99.5254 601.139 98.5744C599.056 98.0792 596.879 98.1411 594.827 98.754C592.775 99.367 590.921 100.509 589.451 102.066C586.453 105.376 584.413 109.439 583.549 113.82C583.043 116.05 582.741 118.322 582.648 120.607C582.45 122.914 582.683 125.238 583.336 127.459C582.196 125.356 581.53 123.028 581.385 120.64C581.159 118.248 581.219 115.837 581.566 113.46C582.171 108.569 584.278 103.987 587.598 100.345C589.394 98.4896 591.661 97.1579 594.156 96.4925C596.628 95.9046 599.212 95.9781 601.647 96.7056C603.978 97.3595 606.152 98.4798 608.037 99.9986C609.923 101.517 611.48 103.403 612.615 105.542Z" fill="#1F1500"/>
<path d="M537.402 234.18C498.353 244.311 435.206 255.753 423.321 245.147C417.665 240.081 406.469 232.278 405.026 219.131C401.895 190.459 413.092 151.41 424.436 133.574C428.469 127.23 465.845 139.754 465.681 147.787C465.321 166.606 457.255 196.803 458.993 198.164C465.419 203.229 507.37 205.18 535.32 208.344C570.385 212.327 555.189 229.557 537.402 234.18Z" fill="#F7A9A0"/>
<path d="M495.058 247.475L500.599 198.787C500.599 198.787 534.566 203.393 553.402 211.901C572.238 220.41 564.877 230.442 545.714 236.491C526.55 242.54 495.058 247.475 495.058 247.475Z" fill="#1F1500"/>
<path d="M511.271 203.016C511.074 210.623 509.894 231.213 507.288 244.508H506.943C507.353 233.131 509.894 210.557 510.796 203.016C510.812 202.836 511.288 202.869 511.271 203.016Z" fill="#1F1500"/>
<path opacity="0.1" d="M545.714 236.344C526.517 242.36 495.058 247.475 495.058 247.475L497.894 222.573L564.369 222.098C564.681 227.508 557.435 232.672 545.714 236.344Z" fill="#1F1500"/>
<path d="M475.976 321.146C475.976 321.146 594.598 371.195 599.303 370.506C599.303 370.506 601.779 307.228 595.434 255.13C588.664 199.311 558.107 205.737 546.418 211.278C532.566 217.836 500.697 247.917 497.239 254.458C491.468 265.278 497.665 280.933 497.665 280.933L475.976 321.146Z" fill="#1F1500"/>
<path opacity="0.1" d="M598.27 287.606C598.762 294.966 599.074 302.245 599.287 309.294C598.484 309.294 597.648 309.294 596.893 309.294C591.451 309.294 585.91 309.917 580.123 310.327C574.336 310.737 568.353 311.146 562.09 311.441C558.992 311.589 555.812 311.704 552.599 311.737H550.156C549.353 311.737 548.517 311.737 547.714 311.638C546.066 311.57 544.424 311.406 542.796 311.146L541.533 310.95C541.108 310.88 540.686 310.787 540.271 310.671C539.435 310.507 538.632 310.261 537.779 310.015C536.927 309.769 536.14 309.441 535.337 309.163C534.533 308.884 533.779 308.458 533.025 308.081C530.153 306.561 527.411 304.807 524.829 302.835C519.714 298.983 514.993 294.835 510.173 290.819C505.648 286.95 501.206 283.13 497.206 279.606C495.862 275.556 492.534 263.409 497.288 254.54C497.288 254.409 497.452 254.278 497.517 254.147C498.292 254.561 499.042 255.021 499.763 255.524C501.258 256.571 502.681 257.716 504.025 258.95C506.551 261.291 508.806 263.908 510.747 266.753C514.119 271.959 517.126 277.393 519.747 283.015C522.177 288.244 525.431 293.049 529.386 297.245C531.307 299.148 533.521 300.731 535.943 301.933C536.566 302.196 537.156 302.458 537.763 302.671L538.648 302.933L539.107 303.064L539.55 303.179C540.173 303.304 540.802 303.397 541.435 303.458C541.763 303.458 542.074 303.54 542.402 303.54H543.369C544.698 303.523 546.024 303.408 547.337 303.196C548.681 302.955 550.025 302.644 551.369 302.261C554.125 301.459 556.83 300.49 559.468 299.36C564.91 297.114 570.467 294.442 576.385 292.54C582.439 290.486 588.667 288.988 594.992 288.065C596.09 287.901 597.189 287.753 598.27 287.606Z" fill="#1F1500"/>
<path opacity="0.1" d="M599.729 331.228C599.729 333.441 599.729 335.638 599.729 337.785C599.254 337.277 598.762 336.769 598.27 336.277C594.576 332.418 589.936 329.593 584.812 328.081C579.779 326.753 574.336 327.277 568.877 328.081C566.14 328.474 563.369 328.966 560.533 329.408C557.697 329.851 554.845 330.31 551.927 330.572C549.009 330.835 546.058 331.048 543.091 331.081C540.123 331.113 537.123 331.081 534.107 330.818C528.083 330.423 522.101 329.535 516.222 328.163C514.763 327.802 513.288 327.441 511.845 326.999C510.402 326.556 508.96 326.13 507.566 325.638C506.173 325.146 504.747 324.638 503.32 324.13C501.894 323.622 500.566 322.999 499.206 322.392C492.771 319.554 486.586 316.181 480.714 312.31L487.435 299.835L490.468 301.261L494.206 302.901L496.025 303.737L497.911 304.523C499.157 305.032 500.402 305.556 501.632 306.163C502.239 306.441 502.878 306.655 503.501 306.9L505.37 307.622C506.632 308.097 507.845 308.655 509.124 309.097C510.402 309.54 511.615 309.966 512.845 310.458C514.074 310.95 515.337 311.392 516.599 311.769L518.468 312.425L520.353 313.032C525.389 314.601 530.52 315.849 535.714 316.769C540.959 317.638 546.287 318.081 551.746 318.54L560.107 319.179C562.943 319.376 565.795 319.589 568.713 319.884C571.631 320.179 574.549 320.523 577.533 321.015C580.535 321.519 583.486 322.287 586.353 323.31L587.418 323.736L588.467 324.195C589.172 324.49 589.861 324.835 590.549 325.179C591.238 325.523 591.828 325.966 592.5 326.327L594.418 327.49C595.598 328.359 596.844 329.13 598.025 330.048C598.631 330.376 599.107 330.786 599.729 331.228Z" fill="#1F1500"/>
<path opacity="0.1" d="M594.746 250.163C594.926 251.409 595.123 252.688 595.287 254.032H592.975L589.5 253.901C588.336 253.901 587.156 253.737 585.992 253.622C581.176 253.28 576.437 252.231 571.926 250.508C567.507 248.54 563.425 245.89 559.828 242.655C556.304 239.573 553.091 236.262 549.828 233.081C546.632 229.837 543.166 226.87 539.468 224.213C537.351 222.71 535.075 221.445 532.681 220.442L534.32 219.164C536.46 220.176 538.535 221.32 540.533 222.59C544.484 225.098 548.255 227.786 552.009 230.557C555.763 233.327 559.369 236.098 563.009 238.754C566.455 241.416 570.162 243.723 574.074 245.639C574.549 245.835 574.992 246.049 575.5 246.245L577.025 246.753C578.025 247.13 579.107 247.36 580.156 247.639C581.205 247.917 582.303 248.147 583.435 248.409C584.566 248.671 585.615 248.819 586.713 249.049C589.271 249.458 591.992 249.852 594.746 250.163Z" fill="#1F1500"/>
<path opacity="0.1" d="M593.09 241.557C593.402 242.95 593.713 244.36 593.976 245.885C591.074 245.573 588.156 245.278 585.189 244.901C580.475 244.478 575.848 243.374 571.451 241.622C567.21 239.519 563.401 236.639 560.222 233.131C556.943 229.852 553.976 226.245 551.009 222.721C548.32 219.442 545.714 216.278 543.107 213.147C544.271 212.426 545.419 211.819 546.386 211.328L547.386 210.885C549.615 214.164 551.632 217.442 553.664 220.721C556.009 224.615 558.668 228.31 561.615 231.77C564.472 235.218 568.108 237.937 572.222 239.704C573.252 240.086 574.303 240.409 575.369 240.672C576.451 240.92 577.546 241.111 578.648 241.245C580.879 241.5 583.123 241.632 585.369 241.639C587.926 241.672 590.517 241.606 593.09 241.557Z" fill="#1F1500"/>
<path d="M518.681 280.425C523.843 282.512 528.84 284.983 533.632 287.819C536.009 289.245 538.287 290.786 540.55 292.392C541.681 293.179 542.828 293.933 543.976 294.687C545.163 295.508 546.446 296.179 547.796 296.687C547.811 296.681 547.827 296.678 547.843 296.68C547.859 296.681 547.875 296.686 547.889 296.695C547.902 296.704 547.914 296.716 547.921 296.731C547.929 296.745 547.933 296.761 547.933 296.778C547.933 296.794 547.929 296.81 547.921 296.824C547.914 296.839 547.902 296.851 547.889 296.86C547.875 296.869 547.859 296.874 547.843 296.876C547.827 296.877 547.811 296.874 547.796 296.868C545.171 296.254 542.667 295.206 540.386 293.769C537.976 292.343 535.632 290.786 533.238 289.327C528.32 286.376 523.566 283.442 518.484 280.851C518.238 280.753 518.435 280.327 518.681 280.425Z" fill="#1F1500"/>
<path d="M504.124 281.13C508.636 282.008 513.097 283.136 517.484 284.507C519.681 285.212 521.812 286.015 523.927 286.901C524.943 287.327 525.96 287.753 526.96 288.212C527.96 288.671 529.091 289.343 530.238 289.851C530.353 289.851 530.238 290.097 530.238 290.048C529.173 289.622 528.042 289.376 526.96 289.015L523.681 287.933C521.501 287.212 519.32 286.524 517.124 285.769C512.779 284.294 508.435 282.851 504.009 281.524C503.78 281.425 503.894 281.081 504.124 281.13Z" fill="#1F1500"/>
<path d="M569.352 237.786C574.697 264.344 581.861 320.851 602.303 331.638C626.237 344.277 630.172 309.753 628.663 291.294C627.418 276.065 604.844 243.983 592.451 227.688C579.32 210.426 562.484 203.606 569.352 237.786Z" fill="#F7A9A0"/>
<path d="M621.746 263.163L575.517 279.557C575.517 279.557 564.746 247.032 564.041 226.377C563.336 205.721 575.648 207.885 589.484 222.508C603.32 237.131 621.746 263.163 621.746 263.163Z" fill="#1F1500"/>
<path d="M574.926 270.425C581.926 267.458 601.156 259.966 614.27 256.802C614.352 256.802 614.467 257.098 614.402 257.13C603.877 261.475 582.287 268.606 575.058 270.884C574.959 270.917 574.795 270.474 574.926 270.425Z" fill="#1F1500"/>
<path d="M563.041 244.819C564.385 246.786 567.074 249.934 567.287 250.311C566.976 249.295 566.238 245.54 565.549 241.901C565.546 241.867 565.554 241.832 565.573 241.803C565.592 241.774 565.621 241.753 565.654 241.743C565.688 241.734 565.723 241.736 565.755 241.75C565.787 241.764 565.813 241.788 565.828 241.819C567.549 245.311 574.484 275.917 575.664 279.524C577.061 278.904 578.489 278.357 579.943 277.884C580.385 277.77 580.123 278.212 580.074 278.229C579.172 278.786 575.156 281.048 574.877 280.573C574.189 279.114 568.566 255.18 568.09 253.655C567.861 253.294 564.025 246.918 562.976 244.803L563.041 244.819Z" fill="#1F1500"/>
<path d="M545.009 223.95L544.32 223.491C544.304 223.545 544.304 223.602 544.32 223.655C544.205 222.704 538.632 215.459 534.14 209.541C528.533 202.213 523.222 195.278 522.665 193.574C521.697 190.295 523.779 171.197 523.861 170.377L524.681 170.475C524.681 170.672 522.533 190.147 523.451 193.426C523.894 194.983 529.648 202.491 534.73 209.131C543.959 221.032 545.484 223.262 545.009 223.95Z" fill="#1F1500"/>
<path d="M544.796 162.557C542.976 171.213 535.353 176.918 527.763 175.328C520.173 173.738 515.501 165.492 517.321 156.771C519.14 148.049 526.78 142.41 534.37 144.017C541.96 145.623 546.648 153.918 544.796 162.557Z" fill="#1F1500"/>
<path d="M549.058 164.115C547.025 173.738 538.55 180.098 530.107 178.311C521.665 176.525 516.468 167.295 518.484 157.672C520.501 148.049 529.009 141.705 537.435 143.476C545.861 145.246 551.091 154.525 549.058 164.115Z" fill="#DBDBDB"/>
<path d="M573.451 217.59C572.566 219.803 559.287 233.049 548.861 230.934C545.468 230.245 548.418 211.524 548.418 211.524L548.32 210.098L546.959 190.049L571.976 178.951L575.549 177.524C575.549 177.524 575.549 183.033 575.549 189.885V190.852C575.549 191.246 575.549 191.623 575.549 191.983C575.549 193 575.549 194.049 575.549 195.082C575.549 196.114 575.549 196.721 575.549 197.492C575.549 198.262 575.549 199.131 575.467 199.967C575.201 205.881 574.527 211.769 573.451 217.59Z" fill="#F7A9A0"/>
<path d="M575.484 189.885C572.692 195.028 568.813 199.501 564.116 202.992C559.419 206.483 554.017 208.908 548.288 210.098L546.927 190.049L571.943 178.951L575.517 177.524C575.517 177.524 575.55 183.033 575.484 189.885Z" fill="#1F1500"/>
<path d="M527.468 151.639C516.861 185.262 535.812 195.393 543.058 197.672C549.615 199.737 572.336 205.868 586.336 173.59C600.336 141.312 588.057 125.689 573.221 120.164C558.386 114.64 538.058 118 527.468 151.639Z" fill="#F7A9A0"/>
<path d="M534.533 148.459C535.347 148.5 536.162 148.5 536.976 148.459C537.829 148.591 538.702 148.447 539.468 148.049C539.683 147.875 539.836 147.634 539.901 147.365C539.966 147.095 539.941 146.811 539.828 146.558C539.526 146.092 539.106 145.716 538.61 145.465C538.115 145.215 537.563 145.1 537.009 145.131C535.879 145.035 534.754 145.356 533.845 146.033C533.623 146.195 533.456 146.421 533.366 146.681C533.277 146.941 533.269 147.222 533.344 147.486C533.419 147.75 533.573 147.985 533.786 148.159C533.998 148.333 534.259 148.438 534.533 148.459Z" fill="#1F1500"/>
<path d="M557.664 154.525C556.915 154.218 556.182 153.873 555.468 153.492C554.646 153.229 553.932 152.705 553.435 152C553.32 151.747 553.293 151.463 553.358 151.192C553.424 150.922 553.578 150.681 553.796 150.508C554.273 150.231 554.816 150.084 555.369 150.084C555.922 150.084 556.465 150.231 556.943 150.508C557.996 150.934 558.854 151.734 559.353 152.754C559.449 152.994 559.474 153.256 559.425 153.509C559.377 153.762 559.256 153.996 559.078 154.183C558.9 154.369 558.672 154.501 558.422 154.561C558.171 154.622 557.908 154.609 557.664 154.525Z" fill="#1F1500"/>
<path d="M548.369 179.213C547.828 179.803 547.287 180.606 546.419 180.721C545.525 180.739 544.638 180.572 543.812 180.229C543.795 180.216 543.773 180.211 543.751 180.214C543.73 180.217 543.71 180.228 543.697 180.246C543.684 180.263 543.679 180.285 543.682 180.307C543.685 180.328 543.696 180.347 543.714 180.361C544.08 180.812 544.561 181.158 545.105 181.362C545.65 181.567 546.239 181.623 546.812 181.524C547.297 181.376 547.726 181.086 548.044 180.691C548.363 180.297 548.556 179.816 548.599 179.311C548.632 179.115 548.451 179.115 548.369 179.213Z" fill="#1F1500"/>
<path d="M539.435 169.492C539.435 169.492 538.271 172.918 537.943 174.574C537.943 174.721 538.304 174.885 538.861 175.016C540.229 175.547 541.716 175.694 543.161 175.439C544.606 175.185 545.953 174.54 547.058 173.574C547.08 173.543 547.092 173.507 547.092 173.469C547.092 173.432 547.081 173.395 547.059 173.364C547.037 173.333 547.006 173.31 546.971 173.298C546.936 173.286 546.897 173.285 546.861 173.295C544.462 174.325 541.795 174.555 539.254 173.951C539.254 173.459 541.451 168.148 541.189 168.082C539.878 167.943 538.555 167.982 537.254 168.197C539.5 161 542.861 154.213 544.992 147C545.004 146.972 545.01 146.942 545.01 146.912C545.011 146.881 545.005 146.851 544.993 146.823C544.982 146.795 544.965 146.769 544.944 146.748C544.923 146.726 544.897 146.709 544.869 146.697C544.841 146.685 544.811 146.679 544.781 146.679C544.75 146.678 544.72 146.684 544.692 146.696C544.664 146.707 544.638 146.724 544.617 146.745C544.595 146.767 544.578 146.792 544.566 146.82C540.533 153.672 537.779 161.902 535.287 169.279C535.058 170.213 538.714 169.639 539.435 169.492Z" fill="#1F1500"/>
<path d="M540.632 174.934C541.257 176.152 542.182 177.19 543.32 177.951C543.953 178.341 544.693 178.525 545.435 178.475C547.074 178.361 547.353 176.951 547.287 175.688C547.257 175.01 547.142 174.338 546.943 173.688C545.029 174.775 542.815 175.212 540.632 174.934Z" fill="#1F1500"/>
<path d="M543.369 177.951C544.003 178.341 544.742 178.525 545.484 178.475C547.123 178.361 547.402 176.951 547.337 175.688C546.517 175.562 545.679 175.717 544.959 176.128C544.238 176.539 543.678 177.181 543.369 177.951Z" fill="#FF9BBC"/>
<path d="M537.517 158.541C537.517 158.443 537.32 158.541 537.287 158.656C536.582 160.771 535.419 163.066 533.271 163.049C533.271 163.049 533.173 163.164 533.271 163.18C535.664 163.705 537.189 160.639 537.517 158.541Z" fill="#1F1500"/>
<path d="M533.714 156.164C533.538 156.543 533.401 156.938 533.304 157.344C533.069 157.579 532.804 157.783 532.517 157.951C532.243 158.119 531.928 158.208 531.607 158.208C531.286 158.208 530.971 158.119 530.697 157.951C529.583 157.213 529.714 155.705 530.271 154.475C530.271 154.377 530.386 154.361 530.402 154.475C530.566 155.361 530.812 156.312 531.566 156.557C532.32 156.803 532.976 156.344 533.664 156.213L533.714 156.164Z" fill="#1F1500"/>
<path d="M536.812 160.82C536.508 161.348 536.066 161.784 535.533 162.082C535.237 162.235 534.91 162.323 534.577 162.34C534.243 162.357 533.91 162.303 533.599 162.18C533.28 162.055 532.995 161.856 532.767 161.6C532.539 161.343 532.375 161.037 532.287 160.705C532.148 160.123 532.148 159.516 532.287 158.934C532.372 158.59 532.476 158.251 532.599 157.918C532.858 157.217 533.279 156.588 533.828 156.082C533.603 156.57 533.433 157.081 533.32 157.607C533.21 158.075 533.139 158.552 533.107 159.033C533.107 160.033 533.287 160.967 534.009 161.18C534.73 161.393 535.517 161.098 536.156 160.328C536.783 159.512 537.332 158.64 537.796 157.721C537.718 158.818 537.381 159.88 536.812 160.82Z" fill="#1F1500"/>
<path d="M550.533 162.443C550.533 162.361 550.664 162.59 550.648 162.672C549.943 164.787 549.484 167.312 551.205 168.59C551.205 168.59 551.205 168.738 551.205 168.705C548.894 167.639 549.533 164.361 550.533 162.443Z" fill="#1F1500"/>
<path d="M555.025 162.721C554.94 163.13 554.819 163.53 554.664 163.918C554.704 164.244 554.786 164.564 554.91 164.869C555.026 165.17 555.224 165.433 555.482 165.627C555.74 165.822 556.047 165.939 556.369 165.967C557.713 166.049 558.5 164.77 558.812 163.443C558.812 163.344 558.812 163.279 558.713 163.328C558.058 163.934 557.304 164.541 556.55 164.295C555.795 164.049 555.533 163.279 555.074 162.754L555.025 162.721Z" fill="#1F1500"/>
<path d="M549.779 164.721C549.708 165.33 549.798 165.946 550.041 166.508C550.192 166.806 550.403 167.071 550.659 167.285C550.916 167.499 551.213 167.659 551.533 167.754C551.864 167.844 552.211 167.855 552.547 167.787C552.883 167.719 553.198 167.573 553.468 167.361C553.934 166.982 554.304 166.499 554.55 165.951C554.694 165.627 554.815 165.293 554.91 164.951C555.125 164.239 555.17 163.487 555.041 162.754C554.926 163.276 554.75 163.782 554.517 164.262C554.327 164.709 554.096 165.137 553.828 165.541C553.271 166.361 552.533 166.967 551.812 166.721C551.091 166.475 550.664 165.738 550.615 164.738C550.608 163.71 550.696 162.684 550.877 161.672C550.279 162.589 549.903 163.633 549.779 164.721Z" fill="#1F1500"/>
<path d="M584.779 174.197C579.041 173.443 580.222 161.312 580.222 161.312C580.222 161.312 568.746 158.934 568.402 141.64C567.689 146.668 568.458 151.795 570.615 156.394C570.615 156.394 550.812 150 545.828 131.246C545.828 131.246 547.468 140.607 549.976 144.361C549.976 144.361 541.976 140.197 539.271 132.427C539.271 132.427 533.681 141.476 530.37 143.607C530.37 143.607 538.648 108.328 570.713 119.017C570.713 119.017 590.992 124.705 594.959 142.525C598.926 160.344 584.779 174.197 584.779 174.197Z" fill="#1F1500"/>
<path d="M580.189 174.492C580.189 174.492 590.025 165.41 594.369 169.18C598.713 172.951 589.533 187.213 583.336 188.115C582.545 188.277 581.73 188.278 580.939 188.117C580.148 187.955 579.398 187.635 578.734 187.175C578.071 186.715 577.507 186.126 577.078 185.442C576.649 184.758 576.363 183.994 576.238 183.197L580.189 174.492Z" fill="#F7A9A0"/>
<path d="M591.648 173.213C591.669 173.213 591.69 173.222 591.705 173.237C591.721 173.253 591.729 173.273 591.729 173.295C591.729 173.317 591.721 173.338 591.705 173.353C591.69 173.368 591.669 173.377 591.648 173.377C587.271 174.115 584.336 177.361 581.992 180.885C582.314 180.534 582.708 180.257 583.148 180.074C583.587 179.891 584.062 179.806 584.537 179.825C585.013 179.844 585.479 179.966 585.903 180.183C586.327 180.4 586.699 180.707 586.992 181.082C587.09 181.18 586.992 181.311 586.844 181.262C586.188 180.885 585.432 180.719 584.678 180.787C583.925 180.854 583.21 181.152 582.631 181.639C581.664 182.465 580.79 183.394 580.025 184.41C579.762 184.721 579.156 184.41 579.385 184.016V183.918C580.467 178.787 585.992 172.557 591.648 173.213Z" fill="#1F1500"/>
<path d="M457.485 269.458C451.927 269.458 447.255 267.13 443.55 259.737C439.387 251.442 452.862 210.557 461.763 183.492C464.714 174.541 467.042 167.475 468.059 163.639C469.78 157.082 470.55 141 470.55 140.836H471.37C471.37 141.508 470.599 157.23 468.845 163.787C467.829 167.656 465.567 174.738 462.55 183.705C454.223 209 440.272 251.327 444.288 259.327C450.485 271.72 459.255 269.163 471.386 265.884C475.534 264.634 479.748 263.616 484.009 262.835C496.681 260.721 503.157 262.261 508.37 263.507C514.927 265.065 519.156 266.098 531.402 257.819C537.599 253.639 543.5 225.032 543.566 224.754C544.648 221.737 554.943 215.95 564.877 210.36C571.844 206.442 578.435 202.737 580.598 200.672C583.582 197.819 587.664 187.295 587.697 187.197L588.467 187.492C588.303 187.934 584.271 198.278 581.156 201.262C578.926 203.41 572.303 207.131 565.271 211.098C555.91 216.36 545.287 222.327 544.337 225.016C544.107 226.147 538.32 254.163 531.845 258.524C519.304 266.999 514.861 265.95 508.157 264.343C503.025 263.114 496.681 261.589 484.124 263.688C479.896 264.46 475.715 265.467 471.599 266.704C467.033 268.228 462.289 269.153 457.485 269.458Z" fill="#1F1500"/>
<path d="M472.277 153.115L473.386 140.623L469.81 140.306L468.701 152.797L472.277 153.115Z" fill="#1F1500"/>
<path d="M592.926 168.115C592.926 168.115 598.943 149.508 596.008 137.672C592.729 124.558 578.074 110.836 559.369 114.968C559.369 114.968 579.549 118.968 588.32 136.623C592.336 144.82 586.484 167.049 586.484 167.049L592.926 168.115Z" fill="#DBDBDB"/>
<path d="M572.877 173.18C570.353 182.803 575.172 192.393 583.615 194.59C592.058 196.787 600.926 190.787 603.451 181.164C605.975 171.541 601.156 161.951 592.713 159.754C584.271 157.558 575.386 163.557 572.877 173.18Z" fill="#DBDBDB"/>
<path d="M577.467 173.787C575.205 182.443 579.533 191.065 587.123 193.049C594.713 195.033 602.696 189.623 604.959 180.984C607.221 172.344 602.893 163.705 595.303 161.721C587.713 159.738 579.729 165.148 577.467 173.787Z" fill="#1F1500"/>
<path d="M598.844 322.687C609.32 338.212 622.844 331.376 626.238 318.753C634.205 289.097 621.238 236.786 615.123 223.131C614.27 221.196 563.517 233.557 565.287 242.934C567.763 256.048 577.599 291.179 598.844 322.687Z" fill="#F7A9A0"/>
<path d="M595.025 316.507C593.198 314.063 591.501 311.524 589.943 308.9C588.304 306.277 586.894 303.54 585.484 300.704C584.074 297.868 582.828 295.032 581.697 292.064C580.526 289.071 579.551 286.004 578.779 282.884C579.468 284.294 580.025 285.769 580.713 287.163C581.402 288.556 581.992 290.015 582.664 291.409C584.009 294.212 585.32 297.032 586.713 299.802L595.025 316.507Z" fill="#1F1500"/>
<path d="M613.68 230.459C613.68 230.459 617.615 211.065 619.582 198.246C620.68 191.098 621.483 178.672 619.893 173.049C617.5 164.639 602.172 131 593.926 134.541C586.467 137.82 603.32 164.984 603.32 164.984C603.32 164.984 588.746 136 580.484 141.509C572.222 147.017 595.336 175.262 595.336 175.262C595.336 175.262 579.697 145.754 572.074 152.853C566.32 158.164 585.812 184.918 585.812 184.918C585.812 184.918 572.205 159.705 566.041 164.918C559.222 170.672 575.68 196.508 575.68 196.508C562.238 212.393 559.09 228.819 565.271 241.721C566.32 243.77 613.68 230.459 613.68 230.459Z" fill="#F7A9A0"/>
<path d="M608.943 174.689C607.303 171.213 605.762 167.705 603.877 164.394C601.992 161.082 599.975 157.836 597.779 154.705C594.998 150.567 591.753 146.761 588.107 143.361C594.139 149.918 601.09 161.623 602.975 164.935C604.861 168.246 606.926 171.492 608.811 174.771L608.943 174.689Z" fill="#1F1500"/>
<path d="M597.156 181.721C594.943 177.393 592.893 173 590.484 168.754C588.074 164.508 585.434 160.754 582.762 156.705C582.549 156.394 582.451 156.607 582.648 156.918C585.172 161.066 587.172 165.115 589.648 169.279C592.123 173.443 594.762 177.475 597.057 181.787L597.156 181.721Z" fill="#1F1500"/>
<path d="M588.09 189.606C584.845 182.873 580.917 176.49 576.369 170.557C576.14 170.262 576.041 170.557 576.254 170.869C580.271 177.115 583.467 182 587.844 189.705C587.926 189.836 588.156 189.737 588.09 189.606Z" fill="#1F1500"/>
<path d="M572.877 152.246C572.168 152.569 571.615 153.158 571.336 153.885C571.097 154.631 571.002 155.416 571.058 156.197C571.183 157.772 571.525 159.322 572.074 160.803C573.15 163.782 574.483 166.662 576.058 169.41L578.172 173.197L575.271 169.918C574.044 168.501 572.658 167.23 571.14 166.131C570.413 165.622 569.603 165.245 568.746 165.016C567.962 164.824 567.134 164.941 566.435 165.344C565.88 165.884 565.522 166.594 565.418 167.361C565.253 168.241 565.203 169.139 565.271 170.033C565.43 171.887 565.793 173.717 566.353 175.492C567.511 179.109 568.981 182.62 570.746 185.983C571.599 187.623 572.549 189.344 573.435 191.033L576.303 195.951L576.599 196.475L576.189 196.901C573.405 199.806 570.998 203.05 569.025 206.557C567.008 210.048 565.433 213.776 564.336 217.655C563.28 221.558 562.816 225.598 562.959 229.639C563.129 233.707 563.897 237.728 565.238 241.573C563.636 237.79 562.635 233.78 562.271 229.688C561.947 225.557 562.285 221.401 563.271 217.377C564.245 213.362 565.767 209.5 567.795 205.901C569.801 202.258 572.257 198.882 575.107 195.852L574.992 196.803L572.025 191.885C571.123 190.246 570.14 188.508 569.304 186.77C567.535 183.308 566.071 179.699 564.927 175.983C564.341 174.092 563.978 172.139 563.845 170.164C563.778 169.142 563.849 168.117 564.058 167.115C564.135 166.545 564.328 165.997 564.624 165.504C564.92 165.01 565.313 164.583 565.779 164.246C566.783 163.704 567.957 163.569 569.058 163.869C570.049 164.164 570.981 164.63 571.812 165.246C573.381 166.438 574.796 167.82 576.025 169.361L575.222 169.918C573.712 167.102 572.487 164.142 571.566 161.082C571.092 159.534 570.827 157.93 570.779 156.312C570.753 155.491 570.904 154.675 571.222 153.918C571.371 153.543 571.595 153.201 571.88 152.914C572.164 152.627 572.503 152.4 572.877 152.246Z" fill="#1F1500"/>
<path d="M488.648 85.9352L490.944 146.459C491.206 148.279 490.075 149.459 488.419 149.115L458.764 142.836C457.875 142.573 457.079 142.064 456.467 141.368C455.855 140.672 455.452 139.817 455.304 138.902L452.993 78.3779C452.747 76.5582 453.878 75.3779 455.534 75.7222L485.173 82.0008C486.065 82.2614 486.865 82.7692 487.48 83.4655C488.095 84.1618 488.5 85.0181 488.648 85.9352Z" fill="#9F402F"/>
<path d="M485.14 85.1647L487.435 145.689C487.698 147.492 486.55 148.689 484.894 148.344L455.255 142.049C454.366 141.79 453.568 141.285 452.953 140.592C452.338 139.898 451.931 139.046 451.78 138.131L449.485 77.6074C449.223 75.7877 450.37 74.6074 452.026 74.9517L481.665 81.2303C482.557 81.4909 483.356 81.9987 483.971 82.695C484.587 83.3913 484.992 84.2476 485.14 85.1647Z" fill="#F6654B"/>
<path d="M476.452 86.0663C476.353 86.5674 476.405 87.0867 476.602 87.558C476.798 88.0294 477.131 88.4315 477.557 88.7132C477.983 88.9948 478.484 89.1433 478.994 89.1398C479.505 89.1362 480.003 88.9807 480.426 88.6931C480.848 88.4054 481.175 87.9987 481.365 87.5247C481.555 87.0506 481.6 86.5306 481.494 86.031C481.388 85.5313 481.135 85.0746 480.769 84.7189C480.402 84.3632 479.938 84.1246 479.435 84.0335C478.771 83.9131 478.085 84.0588 477.527 84.4391C476.969 84.8194 476.583 85.4038 476.452 86.0663Z" fill="#1F1500"/>
<path d="M422.239 120.689C428.961 106.722 432.829 104.165 432.239 89.3614C431.846 79.6565 437.878 75.2303 442.944 83.9844C451.141 98.3121 446.321 118.148 442.649 124.541L422.239 120.689Z" fill="#F7A9A0"/>
<path d="M415.96 165.016C415.96 165.016 413.551 143.164 419.239 127.574C423.157 116.787 434.337 94.2793 468.026 88.0334C476.009 86.5416 488.452 90.099 476.222 97.2629C467.567 102.345 460.55 102.968 456.058 106.837C456.058 106.837 471.337 113.23 472.452 121.295C473.477 128.353 473.998 135.475 474.009 142.607C472.708 142.909 471.388 143.122 470.058 143.246C470.058 143.246 470.435 150.885 463.108 159.918L415.96 165.016Z" fill="#F7A9A0"/>
<path d="M424.633 117.869C429.895 114.968 441.173 109.001 452.091 107.328C464.222 105.476 488.075 105.165 489.353 114.132C490.304 120.689 481.157 121.623 481.157 121.623C481.157 121.623 490.993 123.574 490.599 129.705C490.189 135.279 483.107 135.574 483.107 135.574C483.107 135.574 488.911 137.787 487.468 143.082C485.747 149.459 473.878 143.771 466.567 148.722C464.944 149.836 424.633 117.869 424.633 117.869Z" fill="#F7A9A0"/>
<path d="M451.911 120.476C461.492 117.819 471.655 118.151 481.042 121.427C481.272 121.525 481.337 121.738 481.042 121.705C471.396 120.155 461.598 119.781 451.862 120.591C451.862 120.591 451.862 120.492 451.911 120.476Z" fill="#1F1500"/>
<path d="M454.14 132.656C458.976 131.492 472.829 130.869 483.157 135.345C483.402 135.443 483.435 135.672 483.157 135.64C473.613 133.591 463.868 132.628 454.108 132.771C454.108 132.771 454.091 132.672 454.14 132.656Z" fill="#1F1500"/>
<path d="M203.012 127.689C203.587 129.303 203.865 131.008 203.831 132.722C203.871 134.435 203.593 136.142 203.012 137.754C202.438 136.14 202.161 134.435 202.192 132.722C202.166 131.009 202.444 129.305 203.012 127.689Z" fill="#1F1500"/>
<path d="M189.651 141.41C192.921 140.339 196.447 140.339 199.716 141.41C196.45 142.504 192.917 142.504 189.651 141.41Z" fill="#1F1500"/>
<path d="M203.339 154.722C202.246 151.461 202.246 147.933 203.339 144.672C204.433 147.933 204.433 151.461 203.339 154.722Z" fill="#1F1500"/>
<path d="M216.7 141.05C213.434 142.143 209.901 142.143 206.635 141.05C208.247 140.466 209.953 140.188 211.667 140.23C213.38 140.199 215.085 140.476 216.7 141.05Z" fill="#1F1500"/>
<path d="M650.631 471.096C651.724 474.362 651.724 477.895 650.631 481.161C649.537 477.895 649.537 474.362 650.631 471.096Z" fill="#1F1500"/>
<path d="M637.27 484.784C638.885 484.211 640.59 483.933 642.303 483.965C644.017 483.922 645.724 484.2 647.336 484.784C644.07 485.878 640.536 485.878 637.27 484.784Z" fill="#1F1500"/>
<path d="M650.959 498.145C650.384 496.53 650.107 494.825 650.139 493.112C650.099 491.398 650.377 489.692 650.959 488.079C651.533 489.694 651.811 491.399 651.778 493.112C651.803 494.825 651.525 496.528 650.959 498.145Z" fill="#1F1500"/>
<path d="M664.319 484.456C662.705 485.031 661 485.308 659.286 485.276C657.573 485.317 655.866 485.039 654.254 484.456C657.52 483.363 661.053 483.363 664.319 484.456Z" fill="#1F1500"/>
<path d="M34.6688 536.833C35.2433 538.442 35.5211 540.141 35.4885 541.849C35.5305 543.563 35.2526 545.27 34.6688 546.882C33.5754 543.622 33.5754 540.093 34.6688 536.833Z" fill="#1F1500"/>
<path d="M21.3082 550.505C24.5743 549.411 28.1076 549.411 31.3737 550.505C29.7613 551.087 28.0548 551.365 26.341 551.325C24.6278 551.356 22.9229 551.078 21.3082 550.505Z" fill="#1F1500"/>
<path d="M34.9967 563.865C34.4209 562.251 34.1432 560.546 34.177 558.833C34.1376 557.119 34.4155 555.413 34.9967 553.8C36.0902 557.066 36.0902 560.599 34.9967 563.865Z" fill="#1F1500"/>
<path d="M48.2917 550.193C45.0256 551.287 41.4923 551.287 38.2262 550.193C41.4923 549.1 45.0256 549.1 48.2917 550.193Z" fill="#1F1500"/>
<path d="M627.467 251.032C628.016 252.037 628.298 253.166 628.286 254.311C628.304 255.457 628.022 256.587 627.467 257.59C626.905 256.59 626.622 255.457 626.647 254.311C626.629 253.165 626.912 252.035 627.467 251.032Z" fill="#1F1500"/>
<path d="M618.615 260.081C619.644 259.543 620.789 259.261 621.951 259.261C623.112 259.261 624.257 259.543 625.287 260.081C624.257 260.62 623.112 260.901 621.951 260.901C620.789 260.901 619.644 260.62 618.615 260.081Z" fill="#1F1500"/>
<path d="M627.68 268.934C627.125 267.931 626.842 266.801 626.86 265.655C626.834 264.508 627.117 263.376 627.68 262.376C628.235 263.379 628.518 264.509 628.5 265.655C628.511 266.8 628.229 267.929 627.68 268.934Z" fill="#1F1500"/>
<path d="M636.533 259.868C635.503 260.407 634.358 260.688 633.197 260.688C632.035 260.688 630.89 260.407 629.86 259.868C630.89 259.33 632.035 259.048 633.197 259.048C634.358 259.048 635.503 259.33 636.533 259.868Z" fill="#1F1500"/>
<path d="M404.387 81.3778C404.942 82.3803 405.224 83.5107 405.207 84.6565C405.233 85.8032 404.95 86.9358 404.387 87.9351C403.832 86.9326 403.549 85.8022 403.567 84.6565C403.556 83.5115 403.838 82.3828 404.387 81.3778Z" fill="#1F1500"/>
<path d="M395.535 90.4435C396.564 89.9049 397.709 89.6235 398.871 89.6235C400.032 89.6235 401.177 89.9049 402.207 90.4435C401.177 90.9821 400.032 91.2634 398.871 91.2634C397.709 91.2634 396.564 90.9821 395.535 90.4435Z" fill="#1F1500"/>
<path d="M404.6 99.2958C404.056 98.289 403.774 97.1615 403.78 96.0172C403.762 94.8715 404.045 93.741 404.6 92.7385C405.162 93.7384 405.445 94.8707 405.42 96.0172C405.438 97.1629 405.155 98.2933 404.6 99.2958Z" fill="#1F1500"/>
<path d="M413.452 90.2303C412.423 90.7689 411.278 91.0502 410.116 91.0502C408.954 91.0502 407.81 90.7689 406.78 90.2303C407.81 89.6917 408.954 89.4104 410.116 89.4104C411.278 89.4104 412.423 89.6917 413.452 90.2303Z" fill="#1F1500"/>
<path d="M86.7832 574.636C87.3218 575.665 87.6031 576.81 87.6031 577.972C87.6031 579.134 87.3218 580.278 86.7832 581.308C86.2446 580.278 85.9633 579.134 85.9633 577.972C85.9633 576.81 86.2446 575.665 86.7832 574.636Z" fill="#1F1500"/>
<path d="M77.9308 583.701C78.9603 583.163 80.1049 582.881 81.2668 582.881C82.4287 582.881 83.5733 583.163 84.6029 583.701C83.5733 584.24 82.4287 584.521 81.2668 584.521C80.1049 584.521 78.9603 584.24 77.9308 583.701Z" fill="#1F1500"/>
<path d="M86.9962 592.554C86.4577 591.527 86.1764 590.385 86.1764 589.226C86.1764 588.067 86.4577 586.925 86.9962 585.898C87.5348 586.925 87.8161 588.067 87.8161 589.226C87.8161 590.385 87.5348 591.527 86.9962 592.554Z" fill="#1F1500"/>
<path d="M95.8322 583.488C94.8027 584.027 93.6581 584.308 92.4962 584.308C91.3343 584.308 90.1897 584.027 89.1602 583.488C90.1897 582.95 91.3343 582.668 92.4962 582.668C93.6581 582.668 94.8027 582.95 95.8322 583.488Z" fill="#1F1500"/>
<path d="M334.568 398.228C335.661 401.488 335.661 405.016 334.568 408.277C333.474 405.016 333.474 401.488 334.568 398.228Z" fill="#1F1500"/>
<path d="M321.207 411.9C324.473 410.806 328.007 410.806 331.273 411.9C329.66 412.482 327.954 412.76 326.24 412.719C324.527 412.75 322.822 412.473 321.207 411.9Z" fill="#1F1500"/>
<path d="M334.896 425.26C334.32 423.646 334.042 421.941 334.076 420.227C334.037 418.514 334.315 416.807 334.896 415.195C335.469 416.809 335.747 418.514 335.715 420.227C335.741 421.94 335.464 423.644 334.896 425.26Z" fill="#1F1500"/>
<path d="M348.289 411.588C345.019 412.659 341.493 412.659 338.224 411.588C341.49 410.495 345.023 410.495 348.289 411.588Z" fill="#1F1500"/>
<path d="M676.335 55.8864C675.651 62.5635 673.123 68.9186 669.034 74.2412C664.945 79.5637 659.456 83.6439 653.181 86.0254C646.906 88.4069 640.092 88.9959 633.501 87.7264C626.91 86.4569 620.802 83.3791 615.86 78.8371L597.746 81.5092L606.811 65.8536C604.738 60.756 603.853 55.2526 604.226 49.762C604.599 44.2713 606.219 38.9379 608.962 34.1674C611.706 29.3968 615.501 25.3147 620.06 22.2314C624.618 19.1482 629.82 17.1449 635.269 16.374C640.718 15.6031 646.271 16.0848 651.506 17.7826C656.741 19.4803 661.52 22.3494 665.479 26.1716C669.438 29.9938 672.474 34.6686 674.355 39.8403C676.237 45.0121 676.914 50.5448 676.335 56.0176V55.8864Z" fill="white"/>
<path d="M676.335 55.8864C675.62 62.5442 673.091 68.8779 669.024 74.1977C667.036 76.8905 664.641 79.2576 661.926 81.214C656.539 85.2498 650.149 87.733 643.45 88.3943C641.778 88.5498 640.095 88.5827 638.418 88.4926C636.734 88.4568 635.056 88.2813 633.401 87.968C626.727 86.7384 620.528 83.6729 615.5 79.1157L615.926 79.2468L597.894 82.0173L596.582 82.2304L597.238 81.0665L606.254 65.3781V66.001C604.13 60.8119 603.227 55.2042 603.613 49.6105C604 44.0168 605.666 38.5867 608.484 33.739C611.284 28.9454 615.127 24.8439 619.729 21.7391C624.362 18.6403 629.646 16.649 635.172 15.9195C640.662 15.1565 646.254 15.6692 651.513 17.4177C656.773 19.1662 661.559 22.1034 665.499 26.0014C669.446 29.8406 672.471 34.5241 674.348 39.7001C676.225 44.8761 676.904 50.4101 676.335 55.8864ZM676.335 55.8864C676.869 50.4206 676.156 44.9049 674.251 39.7542C672.346 34.6035 669.298 29.9518 665.336 26.1489C661.352 22.4139 656.586 19.6137 651.385 17.9523C646.179 16.3382 640.674 15.929 635.287 16.7555C629.918 17.5547 624.803 19.5735 620.336 22.6571C615.912 25.7604 612.215 29.7876 609.5 34.4603C606.832 39.1574 605.263 44.3978 604.91 49.7881C604.573 55.1631 605.441 60.5456 607.451 65.542L607.582 65.8699L607.418 66.165L598.303 81.7878L597.648 80.837L615.779 78.296H616.025L616.205 78.4599C621.05 82.9573 627.049 86.0218 633.533 87.3123C635.153 87.64 636.798 87.8373 638.451 87.9025C640.088 88.0157 641.731 88.0157 643.369 87.9025C646.675 87.6382 649.929 86.9211 653.041 85.7713C656.162 84.6376 659.1 83.0525 661.762 81.0665C663.109 80.0562 664.39 78.9611 665.598 77.7878C666.764 76.6081 667.859 75.36 668.876 74.0501C672.984 68.7959 675.565 62.5113 676.335 55.8864Z" fill="#1F1500"/>
<path d="M655.68 58.9519C651.606 64.3619 646.418 68.8342 640.467 72.0665C634.522 68.831 629.34 64.359 625.27 58.9519C619.926 51.8536 620.188 40.7717 627.844 38.3783C636.303 35.7226 640.467 48.4602 640.467 48.4602C640.467 48.4602 644.696 35.6406 653.106 38.3783C660.729 40.8537 661.024 51.8536 655.68 58.9519Z" fill="#1F1500"/>
</svg>
