<svg width="55" height="51" viewBox="0 0 55 51" fill="none" xmlns="http://www.w3.org/2000/svg">
<path d="M24.4907 16.9671L22.1034 21.3163L20.9963 20.8465L22.4669 16.1076C22.8975 14.7225 23.3965 13.3603 23.9637 12.0245L28.531 1.26516C28.8018 0.627271 29.5389 0.329122 30.1775 0.600118L30.2911 0.647969C30.9297 0.918965 31.2275 1.65549 30.9562 2.29485L26.389 13.0541C25.8226 14.3899 25.189 15.6943 24.4907 16.9671Z" fill="black"/>
<path d="M28.7236 23.6568L31.5916 19.6079C32.4304 18.4244 33.3274 17.2846 34.2808 16.1906L41.9604 7.37776C42.4167 6.85569 43.2097 6.80061 43.7324 7.25609L43.8254 7.33763C44.348 7.79377 44.4031 8.58616 43.947 9.1096L36.2672 17.9225C35.3142 19.0151 34.3071 20.0599 33.2488 21.0517L29.6307 24.4469L28.7236 23.6568Z" fill="black"/>
<path d="M25.7524 27.981C24.8944 27.233 24.8042 25.9308 25.553 25.072C26.301 24.2138 27.6035 24.1238 28.4624 24.8717C29.3204 25.6204 29.4099 26.9226 28.6619 27.7821C27.9139 28.6403 26.6106 28.7304 25.7524 27.981Z" fill="black"/>
<path d="M5.92407 39.5582V27.9752C7.24768 29.9918 9.42834 31.7373 12.2166 33.0638V47.6045C8.34827 45.6022 5.92407 42.739 5.92407 39.5582Z" fill="black"/>
<path d="M14.606 48.6614C17.358 49.6954 20.6063 50.3462 24.1073 50.4834V35.7597C20.623 35.631 17.3954 35.0232 14.606 34.0427V48.6614Z" fill="black"/>
<path fill-rule="evenodd" clip-rule="evenodd" d="M26.4962 50.4999C29.9082 50.4044 33.0898 49.8192 35.8219 48.8689C37.6442 49.9069 39.7528 50.4999 42 50.4999C48.9036 50.4999 54.5 44.9035 54.5 37.9999C54.5 31.9736 50.2354 26.9432 44.5594 25.7622C44.8973 24.9559 45.076 24.1153 45.076 23.2513C45.076 20.4073 43.1382 17.8165 39.9624 15.8687L38.1589 17.9381L38.1938 17.9563L38.1974 17.9581C38.2369 17.9787 38.2769 17.9995 38.3152 18.0211C41.0515 19.5521 42.6211 21.4593 42.6211 23.2513C42.6211 23.9933 42.3524 24.7547 41.8436 25.5009C37.6901 25.5518 34.0242 27.6286 31.7885 30.7889C29.7947 31.1932 27.6625 31.4077 25.4996 31.4077C20.6777 31.4077 16.0068 30.3407 12.6852 28.4829C9.94849 26.9512 8.37854 25.0448 8.37854 23.2513C8.37854 21.4593 9.94849 19.5521 12.6852 18.0211C15.0002 16.7254 17.9716 15.8157 21.1919 15.3831C21.5055 14.397 21.8538 13.4152 22.2363 12.4505C12.9791 13.3208 5.92407 17.8238 5.92407 23.2513C5.92407 29.3017 14.6886 34.2065 25.4998 34.2065C27.1169 34.2065 28.6884 34.0968 30.1914 33.8899C30.005 34.4254 29.8541 34.9775 29.7413 35.5434C28.6885 35.6661 27.6049 35.7439 26.4962 35.7734V50.4999ZM36.6639 39.6039C37.432 38.9639 38.0439 38.4319 38.5 38.0079C38.9561 37.5759 39.3361 37.1279 39.64 36.6639C39.944 36.1999 40.0959 35.7439 40.0959 35.2959C40.0959 34.8879 40 34.5679 39.808 34.3359C39.616 34.1039 39.3199 33.9879 38.92 33.9879C38.52 33.9879 38.212 34.1239 37.996 34.3959C37.78 34.6599 37.668 35.0239 37.66 35.4879H36.028C36.0601 34.5279 36.344 33.7999 36.88 33.3039C37.424 32.8079 38.1121 32.5599 38.944 32.5599C39.856 32.5599 40.556 32.8039 41.0439 33.2919C41.532 33.7719 41.776 34.4079 41.776 35.1999C41.776 35.8239 41.608 36.4199 41.272 36.9879C40.936 37.5559 40.552 38.0519 40.12 38.4759C39.688 38.8919 39.124 39.3959 38.428 39.9879H41.968V41.3799H36.04V40.1319L36.6639 39.6039ZM46.8906 41.4999L45.5226 39.4359L44.3107 41.4999H42.5106L44.6826 38.1639L42.4866 34.8519H44.3826L45.7386 36.9039L46.9626 34.8519H48.7626L46.5786 38.1639L48.7866 41.4999H46.8906Z" fill="black"/>
<path d="M21.1246 22.0828C20.0768 21.6381 18.8654 22.1272 18.4205 23.1755C17.9757 24.2238 18.4652 25.4352 19.5132 25.8799C20.5612 26.3247 21.7717 25.8356 22.2173 24.7873C22.6621 23.739 22.1733 22.5291 21.1246 22.0828Z" fill="black"/>
<path d="M27.7118 13.6161C27.4957 14.1253 27.2655 14.6302 27.0295 15.1336C28.9731 15.2251 30.8696 15.4868 32.6401 15.9024C32.8247 15.682 33.0095 15.4625 33.1976 15.2466L34.6592 13.569C32.6899 12.984 30.5225 12.5836 28.2262 12.4041L27.7118 13.6161Z" fill="black"/>
</svg>
