<svg width="50" height="51" viewBox="0 0 50 51" fill="none" xmlns="http://www.w3.org/2000/svg">
<g clip-path="url(#clip0_276_941)">
<path d="M5.42401 27.9752V39.5582C5.42401 42.739 7.84823 45.6022 11.7165 47.6045V33.0638C8.92831 31.7373 6.74764 29.9918 5.42401 27.9752Z" fill="black"/>
<path d="M14.1059 48.6614C16.858 49.6954 20.1063 50.3462 23.6073 50.4834V35.7597C20.123 35.631 16.8954 35.0232 14.1059 34.0427V48.6614Z" fill="black"/>
<path d="M25.9962 50.4999C29.6492 50.3977 33.0381 49.7341 35.894 48.6621V34.0428C32.9986 35.0604 29.6323 35.6768 25.9962 35.7734V50.4999Z" fill="black"/>
<path d="M38.2836 33.0638V47.6031C42.1518 45.6022 44.5761 42.739 44.5761 39.5582V27.9752C43.2531 29.9918 41.0721 31.7373 38.2836 33.0638Z" fill="black"/>
<path d="M25.0529 25.072C24.3042 25.9308 24.3943 27.233 25.2524 27.981C26.1105 28.7304 27.4139 28.6403 28.1618 27.7821C28.9099 26.9226 28.8204 25.6204 27.9623 24.8717C27.1035 24.1238 25.801 24.2138 25.0529 25.072Z" fill="black"/>
<path d="M31.0916 19.6079L28.2236 23.6568L29.1308 24.4469L32.7487 21.0517C33.8071 20.0599 34.8142 19.0151 35.7672 17.9225L43.447 9.10959C43.9031 8.58615 43.848 7.79377 43.3254 7.33762L43.2324 7.25608C42.7098 6.80061 41.9167 6.85568 41.4604 7.37776L33.7808 16.1905C32.8274 17.2846 31.9304 18.4244 31.0916 19.6079Z" fill="black"/>
<path d="M20.6247 22.0828C19.5767 21.6381 18.3653 22.1272 17.9205 23.1755C17.4758 24.2238 17.9652 25.4352 19.0132 25.8799C20.0612 26.3247 21.2718 25.8356 21.7173 24.7873C22.1621 23.739 21.6733 22.5291 20.6247 22.0828Z" fill="black"/>
<path d="M27.2118 13.6161C26.9958 14.1253 26.7655 14.6302 26.5296 15.1336C28.4732 15.2251 30.3696 15.4868 32.1402 15.9024C32.3247 15.6821 32.5096 15.4625 32.6976 15.2466L34.1593 13.569C32.1899 12.984 30.0224 12.5836 27.7263 12.4041L27.2118 13.6161Z" fill="black"/>
<path d="M44.576 23.2513C44.576 20.4073 42.6381 17.8165 39.4624 15.8687L37.6589 17.9381C37.7107 17.9653 37.7643 17.9925 37.8151 18.0211C40.5515 19.5521 42.1211 21.4593 42.1211 23.2513C42.1211 25.0447 40.5515 26.9512 37.8151 28.4829C34.4932 30.3407 29.8225 31.4077 24.9996 31.4077C20.1777 31.4077 15.5067 30.3407 12.1851 28.4829C9.44843 26.9512 7.8785 25.0447 7.8785 23.2513C7.8785 21.4593 9.44843 19.5521 12.1851 18.0211C14.5002 16.7254 17.4715 15.8157 20.6919 15.3831C21.0055 14.397 21.3537 13.4152 21.7363 12.4505C12.4791 13.3208 5.42401 17.8238 5.42401 23.2513C5.42401 29.3017 14.1886 34.2065 24.9997 34.2065C35.8122 34.2066 44.576 29.3017 44.576 23.2513Z" fill="black"/>
<path d="M21.6033 21.3163L23.9907 16.9671C24.689 15.6943 25.3225 14.3899 25.889 13.0541L30.4561 2.29484C30.7275 1.65549 30.4297 0.918966 29.7911 0.64797L29.6774 0.600118C29.0389 0.329122 28.3016 0.627267 28.0309 1.26516L23.4637 12.0245C22.8965 13.3603 22.3974 14.7225 21.9669 16.1076L20.4963 20.8465L21.6033 21.3163Z" fill="black"/>
</g>
<defs>
<clipPath id="clip0_276_941">
<rect width="50" height="50" fill="white" transform="translate(0 0.5)"/>
</clipPath>
</defs>
</svg>
