<svg width="980" height="270" viewBox="0 0 980 270" fill="none" xmlns="http://www.w3.org/2000/svg">
<g clip-path="url(#clip0_1_1025)">
<rect width="980" height="270" rx="20" fill="url(#paint0_linear_1_1025)"/>
<path d="M527.688 83.4358C566.002 76.0056 604.791 71.2828 643.767 69.3026C648.645 69.041 653.512 68.8705 658.39 68.6545C663.267 68.4384 668.145 68.4043 673.012 68.2679C677.878 68.1314 682.767 68.1883 687.645 68.1542C690.09 68.1542 692.523 68.1542 694.968 68.1542C697.412 68.1542 699.868 68.3247 702.302 68.518C712.046 69.2798 721.722 70.7011 731.341 72.3043C740.96 73.9075 750.557 75.7154 760.108 77.6938C798.312 85.653 836.175 95.1017 873.924 104.914C892.784 109.849 911.621 114.905 930.435 120.082C949.248 125.259 968.006 130.596 986.706 136.091C967.937 130.785 949.131 125.623 930.287 120.605C911.442 115.587 892.59 110.599 873.731 105.642C835.959 95.9545 798.096 86.6081 759.892 78.7967C750.341 76.8752 740.779 74.9763 731.171 73.3618C721.563 71.7472 711.921 70.2804 702.222 69.4959C699.804 69.2912 697.382 69.1623 694.956 69.1093C692.523 69.1093 690.079 69.1093 687.645 69.1093C682.779 69.1093 677.901 69.0297 673.035 69.1775C668.168 69.3253 663.29 69.3139 658.412 69.5072C653.535 69.7005 648.679 69.8597 643.813 70.0985C624.339 71.0687 604.915 72.6795 585.54 74.9308C566.143 77.1026 546.813 79.786 527.688 83.4358Z" fill="#F6EFE0"/>
<path d="M530.804 58.1825C550.133 57.6936 569.463 57.3752 588.792 57.1251C608.122 56.8749 627.451 56.8635 646.781 56.8635L675.786 56.9659L690.283 57.0682C692.705 57.0682 695.116 57.0682 697.537 57.1705C699.959 57.2729 702.381 57.3183 704.792 57.5003C714.456 58.137 724.121 59.1944 733.672 60.4338C743.223 61.6731 752.842 63.0148 762.393 64.5271C800.586 70.5647 838.574 77.7621 876.528 85.1868C895.479 88.9315 914.429 92.767 933.379 96.6935C952.33 100.62 971.231 104.683 990.083 108.882C971.132 104.903 952.182 101.018 933.232 97.228C914.281 93.4379 895.331 89.6705 876.38 85.9259C838.426 78.6489 800.37 71.5539 762.212 65.6527C752.672 64.1632 743.109 62.7533 733.536 61.4912C723.962 60.2291 714.354 59.1489 704.735 58.4781C702.324 58.2848 699.925 58.2052 697.515 58.1256C695.104 58.046 692.682 58.046 690.272 58.0006L675.775 57.8414L646.781 57.6481C627.451 57.5799 608.122 57.6026 588.792 57.7163C569.463 57.7731 550.133 57.8982 530.804 58.1825Z" fill="#F6EFE0"/>
<path d="M534.408 29.0519L592.01 33.6L649.589 38.3186L678.378 40.6723C687.975 41.4682 697.583 42.1732 707.168 43.1851C711.966 43.6172 716.742 44.2425 721.529 44.7656C726.315 45.2886 731.102 45.9026 735.878 46.4711C745.436 47.646 754.987 48.8665 764.531 50.1323C802.712 55.2603 840.837 60.7635 878.95 66.335L936.097 74.8058L993.198 83.6064L878.825 67.0513C840.7 61.6049 802.564 56.2268 764.372 51.2239C745.292 48.7111 726.19 46.1869 707.054 44.1288C697.492 43.0942 687.884 42.3437 678.299 41.5137L649.509 39.0577L591.953 34.1458L534.408 29.0519Z" fill="#F6EFE0"/>
<path d="M539.423 -11.4945C557.945 -6.05952 576.626 -1.18168 595.353 3.45739C614.08 8.09646 632.875 12.5536 651.761 16.5104L665.928 19.444L680.13 22.2411C684.86 23.1848 689.612 24.0035 694.354 24.9017C699.095 25.8 703.848 26.6072 708.612 27.3236C727.68 30.1889 746.873 32.2924 766.055 34.3845C804.429 38.546 842.872 42.0708 881.326 45.4478L939.019 50.3142L996.734 55.0556L938.974 50.86C919.735 49.344 900.497 47.7862 881.258 46.1868C842.793 42.9463 804.338 39.5352 765.941 35.4988C756.337 34.483 746.744 33.3801 737.163 32.19C727.578 31.053 718.004 29.7568 708.464 28.2787C703.689 27.551 698.925 26.7096 694.183 25.7999C689.442 24.8903 684.689 24.0603 679.959 23.0938L665.769 20.2513L651.59 17.2495C613.898 9.09704 576.376 -0.32891 539.423 -11.4945Z" fill="#F6EFE0"/>
<path d="M544.164 -49.835C561.515 -40.7388 579.116 -32.1922 596.968 -24.1951C614.773 -16.0995 632.807 -8.45864 651.17 -1.72745C669.533 5.00375 688.282 10.7798 707.6 13.8498C726.918 16.9198 746.35 19.1484 765.816 21.0017C804.778 24.6175 843.816 27.0014 882.93 28.1536C892.708 28.5174 902.486 28.6198 912.265 28.8245L926.944 28.904H934.278L941.612 28.8358C961.18 28.6766 980.759 28.2332 1000.24 26.2661C980.782 28.4151 961.191 29.0405 941.623 29.3816L934.289 29.4953H926.944H912.265C902.475 29.3247 892.685 29.2451 882.907 28.9268C843.77 27.8807 804.691 25.6067 765.668 22.1046C746.179 20.183 726.714 18 707.396 14.7481C688.077 11.4962 669.226 5.65186 650.863 -1.0566C614.205 -14.7009 578.741 -31.4948 544.164 -49.835Z" fill="#F6EFE0"/>
<path d="M741.768 37.2498C741.289 38.2631 740.522 39.1123 739.563 39.691C738.603 40.2696 737.494 40.5518 736.375 40.5021C735.255 40.4524 734.175 40.073 733.271 39.4116C732.367 38.7502 731.678 37.8363 731.291 36.7846C730.904 35.733 730.837 34.5905 731.097 33.5007C731.358 32.4109 731.935 31.4224 732.755 30.6594C733.576 29.8963 734.604 29.3928 735.709 29.212C736.815 29.0311 737.95 29.1811 738.971 29.6431C739.658 29.9541 740.276 30.3987 740.79 30.9511C741.304 31.5035 741.702 32.1526 741.963 32.8605C742.223 33.5685 742.34 34.3212 742.306 35.0748C742.273 35.8283 742.09 36.5677 741.768 37.2498Z" fill="#F6EFE0"/>
<path d="M753.959 11.0811L749.991 9.23315L737.833 35.342L741.801 37.1899L753.959 11.0811Z" fill="#F6EFE0"/>
<path d="M762.086 37.5227C761.606 38.5356 760.837 39.3839 759.876 39.961C758.915 40.538 757.805 40.8181 756.685 40.766C755.565 40.7138 754.486 40.3319 753.583 39.668C752.679 39.0042 751.992 38.0881 751.608 37.035C751.224 35.9819 751.16 34.8387 751.424 33.7492C751.688 32.6597 752.268 31.6725 753.091 30.9117C753.914 30.1509 754.944 29.6505 756.051 29.4733C757.158 29.2961 758.292 29.4502 759.312 29.916C759.997 30.2291 760.613 30.6752 761.125 31.2285C761.636 31.7818 762.032 32.4312 762.29 33.139C762.548 33.8468 762.663 34.5988 762.628 35.3513C762.593 36.1039 762.409 36.842 762.086 37.5227Z" fill="#F6EFE0"/>
<path d="M774.276 11.3554L770.307 9.50745L758.149 35.6163L762.118 37.4642L774.276 11.3554Z" fill="#F6EFE0"/>
<path d="M774.253 11.4166L748.351 12.7241L749.977 9.23348L775.878 7.9259L774.253 11.4166Z" fill="#F6EFE0"/>
<path d="M771.183 17.9886L745.292 19.3075L746.918 15.8169L772.809 14.4979L771.183 17.9886Z" fill="#F6EFE0"/>
<path d="M953.38 103.209C952.976 104.077 952.324 104.807 951.505 105.305C950.687 105.803 949.74 106.047 948.783 106.006C947.826 105.966 946.902 105.643 946.129 105.077C945.356 104.512 944.767 103.73 944.438 102.831C944.109 101.931 944.054 100.954 944.28 100.023C944.507 99.0926 945.004 98.2498 945.709 97.6015C946.414 96.9531 947.295 96.5284 948.242 96.381C949.188 96.2335 950.157 96.37 951.026 96.7732C952.19 97.3165 953.091 98.2987 953.532 99.5049C953.973 100.711 953.918 102.043 953.38 103.209Z" fill="#F6EFE0"/>
<path d="M963.68 81.0706L960.331 79.5106L950.049 101.589L953.399 103.149L963.68 81.0706Z" fill="#F6EFE0"/>
<path d="M970.56 103.447C970.156 104.316 969.502 105.045 968.683 105.542C967.864 106.039 966.916 106.282 965.959 106.24C965.002 106.199 964.079 105.874 963.306 105.308C962.533 104.741 961.946 103.958 961.618 103.058C961.291 102.158 961.237 101.18 961.465 100.25C961.693 99.3191 962.192 98.477 962.898 97.8298C963.604 97.1826 964.487 96.7594 965.434 96.6139C966.381 96.4683 967.35 96.6068 968.218 97.0119C969.382 97.5549 970.282 98.5379 970.722 99.7447C971.161 100.952 971.103 102.283 970.56 103.447Z" fill="#F6EFE0"/>
<path d="M980.859 81.3129L977.509 79.7529L967.227 101.832L970.577 103.391L980.859 81.3129Z" fill="#F6EFE0"/>
<path d="M980.85 81.3664L958.951 82.4693L960.327 79.5245L982.226 78.4102L980.85 81.3664Z" fill="#F6EFE0"/>
<path d="M629.691 13.0653C629.287 13.9339 628.635 14.6633 627.817 15.1613C626.999 15.6592 626.051 15.9034 625.094 15.8629C624.137 15.8225 623.214 15.4992 622.44 14.9339C621.667 14.3687 621.079 13.5868 620.75 12.6872C620.421 11.7877 620.366 10.8107 620.592 9.87995C620.818 8.94917 621.315 8.10634 622.02 7.45801C622.725 6.80967 623.607 6.38495 624.553 6.23753C625.5 6.0901 626.469 6.2266 627.338 6.62976C628.501 7.17305 629.402 8.15529 629.843 9.36146C630.285 10.5676 630.23 11.8994 629.691 13.0653Z" fill="#F6EFE0"/>
<path d="M639.984 -9.05747L636.634 -10.6174L626.352 11.4612L629.702 13.0211L639.984 -9.05747Z" fill="#F6EFE0"/>
<path d="M646.872 13.304C646.467 14.1725 645.814 14.9013 644.995 15.3985C644.176 15.8957 643.228 16.1388 642.27 16.0971C641.313 16.0554 640.39 15.7307 639.617 15.1642C638.845 14.5977 638.257 13.8148 637.93 12.9145C637.602 12.0142 637.549 11.0369 637.776 10.1063C638.004 9.1757 638.503 8.33354 639.209 7.68635C639.916 7.03916 640.798 6.61601 641.745 6.47043C642.692 6.32485 643.661 6.46338 644.529 6.86848C645.107 7.13618 645.625 7.51526 646.056 7.98395C646.486 8.45265 646.82 9.00174 647.037 9.5997C647.255 10.1977 647.352 10.8327 647.324 11.4684C647.295 12.1041 647.142 12.7279 646.872 13.304Z" fill="#F6EFE0"/>
<path d="M657.178 -8.82529L653.828 -10.3853L643.547 11.6934L646.897 13.2533L657.178 -8.82529Z" fill="#F6EFE0"/>
<path d="M852.548 80.5591C852.068 81.572 851.299 82.4203 850.338 82.9973C849.377 83.5744 848.267 83.8545 847.147 83.8023C846.027 83.7502 844.948 83.3682 844.044 82.7044C843.141 82.0405 842.454 81.1245 842.07 80.0713C841.686 79.0182 841.622 77.8751 841.886 76.7856C842.149 75.6961 842.729 74.7089 843.553 73.9481C844.376 73.1873 845.406 72.6868 846.513 72.5097C847.62 72.3325 848.754 72.4865 849.774 72.9524C850.459 73.2655 851.075 73.7116 851.587 74.2649C852.098 74.8182 852.494 75.4676 852.752 76.1754C853.01 76.8832 853.125 77.6352 853.09 78.3877C853.055 79.1403 852.871 79.8784 852.548 80.5591Z" fill="#F6EFE0"/>
<path d="M864.739 54.3997L860.771 52.5518L848.612 78.6606L852.581 80.5085L864.739 54.3997Z" fill="#F6EFE0"/>
<path d="M881.344 53.9407L877.376 52.0928L873.862 59.6378L877.831 61.4858L881.344 53.9407Z" fill="#F6EFE0"/>
<path d="M880.871 54.9533L859.143 56.0449L860.769 52.5542L882.497 51.4626L880.871 54.9533Z" fill="#F6EFE0"/>
<path d="M877.802 61.5367L856.073 62.6169L857.699 59.1262L879.428 58.046L877.802 61.5367Z" fill="#F6EFE0"/>
<path d="M792.877 254.3L784.61 255.865L794.912 310.283L803.179 308.718L792.877 254.3Z" fill="#F6EFE0"/>
<path d="M818.264 235.028L809.996 236.592L812.971 252.322L821.239 250.759L818.264 235.028Z" fill="#F6EFE0"/>
<path d="M818.688 237.094L785.964 263.166L784.588 255.889L817.312 229.817L818.688 237.094Z" fill="#F6EFE0"/>
<path d="M821.28 250.806L788.556 276.878L787.181 269.601L819.904 243.529L821.28 250.806Z" fill="#F6EFE0"/>
<path d="M920.895 30.7575C920.626 31.4154 920.168 31.9788 919.579 32.3765C918.99 32.7743 918.297 32.9884 917.586 32.9919C916.876 32.9953 916.18 32.788 915.587 32.3961C914.994 32.0041 914.531 31.4452 914.256 30.79C913.981 30.1347 913.906 29.4126 914.041 28.7149C914.177 28.0173 914.516 27.3754 915.016 26.8705C915.516 26.3656 916.154 26.0203 916.851 25.8783C917.547 25.7364 918.27 25.8041 918.928 26.0729C919.808 26.4358 920.509 27.132 920.877 28.0097C921.246 28.8873 921.252 29.8751 920.895 30.7575Z" fill="#F6EFE0"/>
<path d="M927.771 14.0345L925.236 12.9943L918.378 29.7092L920.913 30.7494L927.771 14.0345Z" fill="#F6EFE0"/>
<path d="M938.175 13.2552L935.64 12.215L933.658 17.0432L936.194 18.0835L938.175 13.2552Z" fill="#F6EFE0"/>
<path d="M937.928 13.884L924.34 15.1916L925.261 12.963L938.849 11.644L937.928 13.884Z" fill="#F6EFE0"/>
<path d="M936.199 18.0909L922.612 19.4098L923.533 17.1699L937.12 15.8623L936.199 18.0909Z" fill="#F6EFE0"/>
<path d="M609.429 72.6796C609.16 73.3374 608.701 73.9004 608.111 74.2975C607.522 74.6945 606.827 74.9077 606.116 74.91C605.406 74.9123 604.71 74.7037 604.118 74.3105C603.525 73.9173 603.063 73.3573 602.789 72.7012C602.515 72.0452 602.442 71.3226 602.579 70.625C602.716 69.9274 603.057 69.2861 603.558 68.7822C604.06 68.2784 604.7 67.9346 605.397 67.7945C606.093 67.6544 606.816 67.7242 607.474 67.995C608.354 68.3576 609.054 69.0545 609.42 69.9328C609.787 70.8111 609.79 71.7989 609.429 72.6796Z" fill="#F6EFE0"/>
<path d="M616.283 55.9268L613.748 54.8866L606.89 71.6015L609.425 72.6417L616.283 55.9268Z" fill="#F6EFE0"/>
<path d="M626.688 55.1546L624.153 54.1144L622.172 58.9427L624.707 59.9829L626.688 55.1546Z" fill="#F6EFE0"/>
<path d="M626.439 55.8061L612.852 57.1137L613.773 54.8851L627.36 53.5662L626.439 55.8061Z" fill="#F6EFE0"/>
<path d="M624.711 60.0131L611.124 61.3321L612.033 59.0921L625.621 57.7845L624.711 60.0131Z" fill="#F6EFE0"/>
<path d="M764.667 81.3096C764.397 81.9661 763.938 82.5278 763.349 82.9237C762.759 83.3197 762.066 83.5321 761.356 83.5343C760.646 83.5364 759.951 83.3281 759.359 82.9357C758.768 82.5433 758.306 81.9844 758.031 81.3295C757.757 80.6746 757.683 79.9531 757.818 79.2561C757.954 78.5591 758.292 77.9178 758.792 77.4133C759.292 76.9087 759.929 76.5635 760.625 76.4212C761.321 76.2789 762.043 76.3458 762.7 76.6137C763.139 76.7921 763.537 77.0552 763.873 77.3881C764.209 77.7209 764.476 78.1168 764.659 78.5531C764.842 78.9894 764.937 79.4575 764.938 79.9305C764.94 80.4035 764.848 80.8722 764.667 81.3096Z" fill="#F6EFE0"/>
<path d="M771.509 64.5651L768.974 63.5249L762.116 80.2398L764.651 81.28L771.509 64.5651Z" fill="#F6EFE0"/>
<path d="M781.913 63.7971L779.378 62.7568L777.397 67.5851L779.932 68.6254L781.913 63.7971Z" fill="#F6EFE0"/>
<path d="M781.666 64.4247L768.079 65.7437L769 63.5151L782.587 62.1962L781.666 64.4247Z" fill="#F6EFE0"/>
<path d="M779.938 68.6431L766.35 69.9621L767.271 67.7222L780.859 66.4032L779.938 68.6431Z" fill="#F6EFE0"/>
<path d="M583.437 18.216C582.812 18.8248 582.055 19.2796 581.224 19.5441C580.393 19.8086 579.511 19.8755 578.65 19.7396C576.911 19.5936 575.239 19.0023 573.795 18.0227C572.33 17.0347 571.197 15.6281 570.543 13.9863C569.919 12.3246 569.758 10.5248 570.077 8.7787C570.605 5.24559 572.505 2.06312 575.364 -0.0787323C578.361 -2.11039 582.033 -2.88979 585.597 -2.25046C589.133 -1.69421 592.406 -0.0440156 594.955 2.4682C597.546 5.01091 599.136 8.40102 599.435 12.0192C599.608 15.5731 599.039 19.1241 597.763 22.4458C596.528 25.8206 594.454 28.8257 591.737 31.1781C588.947 33.5108 585.545 34.991 581.936 35.442C578.378 35.8573 574.772 35.5476 571.336 34.5314C567.901 33.5152 564.707 31.8137 561.947 29.5294C559.191 27.2074 556.986 24.3025 555.489 21.0245C553.995 17.737 553.275 14.1505 553.385 10.5411C553.526 6.95144 554.404 3.42924 555.966 0.194152C557.521 -3.00497 559.578 -5.93401 562.061 -8.48135C564.496 -10.981 567.11 -13.2991 569.884 -15.4172C575.341 -19.6583 581.072 -23.3764 586.177 -27.8449C588.73 -30.0076 591.057 -32.4228 593.124 -35.0537C595.163 -37.5807 596.51 -40.5935 597.036 -43.7974C597.234 -45.3113 597.022 -46.8506 596.422 -48.2545C596.141 -48.9093 595.728 -49.4994 595.21 -49.9883C594.692 -50.4772 594.079 -50.8546 593.409 -51.0971C592.744 -51.3059 592.039 -51.3549 591.351 -51.2404C590.664 -51.1258 590.013 -50.8508 589.452 -50.4376C588.232 -49.5198 587.288 -48.2848 586.723 -46.8674C585.656 -43.7026 584.936 -40.4316 584.574 -37.1117C584.085 -33.7006 583.676 -30.3464 583.289 -26.9467C581.788 -13.3023 580.674 0.341962 579.264 13.9863C578.525 20.8084 577.74 27.6306 576.728 34.4527C576.217 37.8638 575.591 41.2749 574.898 44.595C574.553 46.2818 574.078 47.9393 573.477 49.5525C573.097 50.3304 572.567 51.0254 571.917 51.5973C571.267 52.1691 570.51 52.6064 569.69 52.8839C570.489 52.5835 571.22 52.1272 571.841 51.5416C572.461 50.956 572.96 50.2528 573.306 49.4729C573.846 47.8507 574.26 46.1896 574.545 44.5041C575.193 41.093 575.682 37.7615 576.092 34.3618C576.922 27.5396 577.524 20.7175 578.081 13.8953C579.219 0.251006 580.174 -13.3933 581.493 -27.1172C581.822 -30.5283 582.175 -33.9394 582.63 -37.3504C582.857 -39.056 583.13 -40.7615 583.448 -42.4784C583.736 -44.245 584.212 -45.9756 584.87 -47.6405C585.561 -49.4447 586.742 -51.02 588.281 -52.1886C589.109 -52.7905 590.067 -53.1903 591.078 -53.3561C592.089 -53.5219 593.125 -53.4492 594.102 -53.1437C595.055 -52.8128 595.931 -52.29 596.674 -51.6074C597.417 -50.9249 598.012 -50.0972 598.423 -49.1755C599.201 -47.4205 599.484 -45.4858 599.242 -43.5814C598.71 -39.9741 597.231 -36.5724 594.955 -33.7233C592.818 -30.9517 590.403 -28.4066 587.746 -26.128C582.516 -21.5799 576.774 -17.714 571.419 -13.5411C566.063 -9.36824 560.867 -4.80876 558.024 1.16062C556.584 4.11252 555.764 7.32819 555.614 10.6093C555.501 13.8787 556.139 17.1305 557.479 20.1148C558.825 23.1089 560.826 25.7627 563.334 27.8807C565.849 30.0053 568.776 31.5885 571.93 32.5312C575.09 33.4781 578.406 33.7873 581.686 33.4408C584.935 33.0991 588.015 31.8235 590.555 29.7682C595.626 25.6408 598.127 18.6708 597.957 12.1443C597.727 8.85551 596.328 5.75762 594.011 3.41194C591.672 1.0486 588.664 -0.539065 585.393 -1.13617C583.763 -1.5156 582.073 -1.55271 580.429 -1.24515C578.785 -0.937588 577.222 -0.292048 575.84 0.650603C574.458 1.59325 573.287 2.8125 572.401 4.23118C571.514 5.64986 570.932 7.23708 570.691 8.8924C570.349 10.5412 570.467 12.2523 571.032 13.8385C571.616 15.4148 572.662 16.7781 574.034 17.7498C575.412 18.7346 577.022 19.3457 578.707 19.5236C579.543 19.6838 580.404 19.6492 581.225 19.4224C582.045 19.1956 582.802 18.7828 583.437 18.216Z" fill="#F6EFE0"/>
<path d="M572.965 50.2233C572.385 51.1816 571.534 51.9471 570.52 52.4237C569.506 52.9003 568.374 53.0667 567.266 52.902C566.158 52.7373 565.123 52.2489 564.292 51.4981C563.46 50.7473 562.869 49.7675 562.593 48.6819C562.316 47.5962 562.367 46.4531 562.738 45.396C563.109 44.3389 563.784 43.4149 564.678 42.7402C565.572 42.0655 566.646 41.67 567.764 41.6035C568.883 41.537 569.996 41.8024 570.964 42.3664C571.616 42.7463 572.186 43.2523 572.64 43.8547C573.095 44.4572 573.425 45.1441 573.611 45.8754C573.797 46.6068 573.836 47.3678 573.725 48.1143C573.614 48.8608 573.356 49.5777 572.965 50.2233Z" fill="#F6EFE0"/>
<path d="M728.999 315.435C726.028 325.293 720.201 334.049 712.254 340.596C704.307 347.143 694.598 351.187 684.353 352.216C674.108 353.245 663.788 351.214 654.698 346.378C645.607 341.543 638.155 334.12 633.282 325.05C628.41 315.979 626.337 305.668 627.324 295.419C628.312 285.17 632.316 275.444 638.831 267.47C645.346 259.497 654.078 253.634 663.925 250.624C673.771 247.613 684.289 247.589 694.149 250.556C700.698 252.526 706.795 255.768 712.091 260.095C717.387 264.422 721.779 269.75 725.015 275.775C728.251 281.8 730.269 288.404 730.952 295.209C731.636 302.013 730.972 308.886 728.999 315.435Z" fill="#85E96D"/>
<path d="M804.619 64.2258L766.536 52.7567L691.049 303.414L729.132 314.883L804.619 64.2258Z" fill="#85E96D"/>
<path d="M912.231 291.5C909.261 301.362 903.434 310.123 895.486 316.673C887.537 323.223 877.825 327.27 867.577 328.3C857.329 329.331 847.006 327.299 837.912 322.463C828.819 317.626 821.364 310.202 816.49 301.128C811.616 292.055 809.542 281.74 810.531 271.488C811.519 261.236 815.526 251.507 822.043 243.532C828.561 235.557 837.297 229.694 847.147 226.684C856.997 223.673 867.519 223.652 877.381 226.622C883.93 228.592 890.027 231.833 895.323 236.161C900.619 240.488 905.01 245.816 908.247 251.841C911.483 257.866 913.501 264.469 914.184 271.274C914.868 278.079 914.204 284.952 912.231 291.5Z" fill="#85E96D"/>
<path d="M987.88 40.247L949.795 28.7845L874.351 279.455L912.437 290.918L987.88 40.247Z" fill="#85E96D"/>
<path d="M987.752 40.786L756.458 86.2557L766.544 52.7361L997.838 7.27783L987.752 40.786Z" fill="#85E96D"/>
<path d="M968.73 103.948L737.447 149.417L747.533 115.909L978.815 70.4396L968.73 103.948Z" fill="#85E96D"/>
<path d="M543.3 111.293C542.722 112.531 541.789 113.569 540.62 114.276C539.451 114.983 538.099 115.327 536.734 115.266C535.37 115.204 534.054 114.738 532.954 113.928C531.854 113.118 531.02 112 530.556 110.715C530.092 109.43 530.02 108.036 530.348 106.71C530.677 105.384 531.392 104.186 532.402 103.266C533.413 102.347 534.673 101.748 536.024 101.545C537.375 101.343 538.756 101.546 539.991 102.128C541.641 102.91 542.915 104.312 543.534 106.029C544.154 107.746 544.07 109.638 543.3 111.293Z" fill="#85E96D"/>
<path d="M557.974 79.7602L553.19 77.5364L538.563 109.005L543.347 111.229L557.974 79.7602Z" fill="#85E96D"/>
<path d="M567.78 111.623C567.205 112.861 566.275 113.901 565.108 114.61C563.942 115.32 562.591 115.667 561.227 115.609C559.863 115.551 558.547 115.09 557.445 114.283C556.343 113.477 555.505 112.362 555.038 111.079C554.57 109.796 554.493 108.403 554.817 107.077C555.14 105.751 555.85 104.55 556.856 103.627C557.863 102.704 559.12 102.101 560.47 101.893C561.819 101.685 563.2 101.881 564.437 102.458C566.095 103.231 567.378 104.63 568.005 106.349C568.632 108.067 568.551 109.964 567.78 111.623Z" fill="#85E96D"/>
<path d="M582.435 80.0837L577.651 77.859L563.018 109.325L567.802 111.55L582.435 80.0837Z" fill="#85E96D"/>
<path d="M582.425 80.1385L551.225 81.7417L553.181 77.5461L584.381 75.9429L582.425 80.1385Z" fill="#85E96D"/>
<path d="M647.019 45.8798C647.101 48.064 646.533 50.2233 645.388 52.0848C644.242 53.9463 642.571 55.4263 640.584 56.3378C638.597 57.2492 636.385 57.5512 634.227 57.2054C632.069 56.8597 630.062 55.8818 628.459 54.3954C626.857 52.9091 625.731 50.9809 625.224 48.8547C624.718 46.7286 624.853 44.5 625.613 42.4506C626.372 40.4013 627.723 38.6232 629.493 37.3413C631.263 36.0594 633.374 35.3311 635.558 35.2487C637.009 35.1924 638.457 35.4229 639.819 35.927C641.181 36.4311 642.43 37.1989 643.494 38.1865C644.559 39.174 645.418 40.3619 646.023 41.682C646.628 43.0022 646.967 44.4287 647.019 45.8798Z" fill="#6D5629"/>
<path d="M644.917 -9.76525L636.487 -9.4458L638.59 46.0581L647.02 45.7386L644.917 -9.76525Z" fill="#6D5629"/>
<path d="M673.626 -9.00441L637.287 11.9737L637.014 4.54894L673.342 -16.4292L673.626 -9.00441Z" fill="#6D5629"/>
<path d="M527.871 180.106C531.066 182.38 633.034 214.035 637.673 212.784C638.185 212.636 639.254 208.054 643.859 196.672C644.075 196.126 647.008 194.557 651.488 192.443C668.316 184.483 707.111 168.565 707.111 168.565L667.315 110.349L604.574 146.325L588.258 155.682C588.258 155.682 540.855 164.676 535.898 166.587C530.94 168.497 524.675 177.82 527.871 180.106Z" fill="#F7A9A0"/>
<path d="M527.87 180.117C531.066 182.391 633.034 214.035 637.673 212.784C638.185 212.636 639.254 208.054 643.859 196.672C628.509 195.046 548.78 178.48 548.473 168.542C548.36 164.619 561.799 161.026 564.221 160.412C551.714 162.903 538.422 165.654 535.932 166.621C530.997 168.554 524.675 177.82 527.87 180.117Z" fill="#1F1500"/>
<path d="M628.804 128.235L634.376 139.378L662.142 194.989C662.142 194.989 727.066 169.622 746.509 160.742C747.135 160.458 798.437 221.494 842.235 242.153C875.8 257.992 903.305 250.965 925.761 221.687L874.186 180.583C831.593 143.664 786.544 90.8606 752.172 86.2102C714.832 81.0708 628.804 128.235 628.804 128.235Z" fill="#1F1500"/>
<path d="M642.13 128.201C647.952 139.127 646.428 135.91 652.136 146.905C654.933 152.283 669.044 179.299 670.817 184.745C670.817 184.87 670.67 184.961 670.601 184.859C667.19 180.208 653.717 152.897 651.022 147.473C645.519 136.376 647.213 139.514 641.823 128.348C641.812 128.328 641.806 128.306 641.803 128.283C641.801 128.26 641.804 128.237 641.811 128.215C641.818 128.193 641.83 128.172 641.845 128.155C641.86 128.138 641.879 128.124 641.899 128.114C641.92 128.104 641.943 128.098 641.966 128.097C641.989 128.096 642.012 128.1 642.033 128.108C642.055 128.116 642.075 128.128 642.091 128.144C642.108 128.16 642.121 128.179 642.13 128.201Z" fill="#6D5629"/>
<path d="M638.787 148.224L662.13 194.99C662.13 194.99 727.077 169.634 746.509 160.742C747.135 160.458 798.437 221.494 842.224 242.153C875.8 257.992 903.316 250.965 925.75 221.687L874.186 180.572C868.501 175.683 862.816 170.521 857.13 165.234C803.486 161.14 685.917 151.93 638.787 148.224Z" fill="#6D5629"/>
<path d="M553.317 305.622C557.104 306.668 663.722 301.074 667.645 298.345C668.066 298.027 667.486 293.354 667.873 281.085C667.873 280.505 670.147 278.015 673.558 274.479C686.611 261.21 717.538 232.887 717.538 232.887L660.095 191.954L613.671 247.429L601.584 261.847C601.584 261.847 560.208 286.725 556.217 290.136C552.226 293.547 549.52 304.565 553.317 305.622Z" fill="#F7A9A0"/>
<path d="M939.167 176.797C939.167 176.797 951.094 218.674 930.571 239.049C915.79 253.728 894.834 257.071 876.335 256.252C825.226 253.978 776.606 197.207 759.528 195.581C750.762 194.751 689.601 268.202 689.601 268.202L632.09 222.426C644.325 209.521 716.23 121.23 756.458 117.319C783.986 114.647 859.348 165.074 860.962 164.256C863.612 162.891 875.255 155.842 875.255 155.842L939.167 176.797Z" fill="#1F1500"/>
<path d="M642.244 216.002C649.35 220.902 656.082 226.337 662.87 231.624C669.658 236.912 676.355 242.21 682.995 247.611C686.77 250.681 690.522 253.762 694.172 256.957C694.263 257.037 694.172 257.162 694.047 257.094C687.009 252.091 680.209 246.781 673.41 241.482C666.61 236.184 659.925 230.897 653.262 225.564C649.498 222.505 645.678 219.458 642.073 216.229C641.96 216.081 642.108 215.911 642.244 216.002Z" fill="#6D5629"/>
<path d="M896.756 174.261C896.824 174.023 897.188 174.159 897.154 174.387C896.262 180.924 897.703 187.567 901.224 193.147C905.261 199.333 911.901 203.381 917.859 207.508C918.439 207.895 917.859 208.793 917.222 208.52C913.457 206.773 909.893 204.623 906.591 202.107C903.547 199.907 900.982 197.11 899.053 193.887C897.328 190.954 896.233 187.695 895.837 184.316C895.442 180.937 895.755 177.513 896.756 174.261Z" fill="#6D5629"/>
<path d="M860.451 168.633C861.883 167.337 863.418 166.132 864.896 164.881C868.398 161.925 871.923 158.957 875.539 156.149C875.891 155.887 876.369 156.433 876.051 156.729C873.538 159.059 870.911 161.277 868.33 163.551C867.004 164.703 865.67 165.84 864.328 166.962C862.971 167.976 861.715 169.119 860.576 170.373C859.53 171.715 860.348 173.17 861.861 173.602C863.22 173.877 864.634 173.617 865.806 172.874C868.535 171.453 870.877 169.145 873.265 167.189C874.732 166.052 876.187 164.915 877.665 163.71C879.143 162.505 880.883 161.368 882.452 160.162C882.554 160.083 882.691 160.242 882.6 160.322C881.179 161.709 879.826 163.175 878.393 164.551C876.96 165.927 875.528 167.292 874.072 168.645C872.617 169.998 871.275 171.157 869.831 172.351C868.618 173.426 867.235 174.29 865.738 174.91C863.316 175.831 859.439 175.444 858.757 172.385C858.68 171.666 858.797 170.939 859.094 170.279C859.392 169.62 859.86 169.052 860.451 168.633Z" fill="#6D5629"/>
<path d="M690.624 250.454C705.338 233.466 745.395 189.975 754.684 182.448C755.626 181.705 756.711 181.163 757.871 180.856C759.03 180.549 760.241 180.483 761.427 180.663C764.042 181.038 766.282 182.744 768.454 184.142L776.22 189.145L792.138 199.458C802.11 205.905 812.025 212.431 822.076 218.787C830.957 224.567 840.262 229.668 849.91 234.046C868.467 242.119 891.309 246.213 909.888 235.9C918.303 231.115 924.695 223.439 927.876 214.296C931.219 205.2 932.038 195.285 932.186 185.62C932.186 183.278 932.186 180.94 932.186 178.605C932.186 178.48 932.367 178.469 932.367 178.605C933.22 196.729 932.367 217.912 918.268 231.249C903.282 245.417 880.258 245.439 861.622 239.811C840.746 233.501 822.508 220.732 804.384 208.998L772.729 188.372C770.171 186.712 767.647 184.961 765.031 183.403C762.416 181.845 759.403 180.765 756.765 182.664C747.987 188.975 692.989 248.725 691.045 250.806C690.806 251.056 690.397 250.715 690.624 250.454Z" fill="#6D5629"/>
<path d="M820.109 141.003C805.623 132.635 790.614 124.983 774.628 119.673C770.619 118.313 766.493 117.327 762.303 116.728C760.175 116.419 758.017 116.377 755.878 116.603C753.754 116.852 751.657 117.293 749.613 117.922C741.461 120.435 734.093 124.744 727.043 129.292C720.08 133.99 713.374 139.057 706.952 144.471C700.528 149.872 694.263 155.455 688.248 161.288C676.174 172.915 664.709 185.159 653.898 197.968C659.584 191.806 665.269 185.689 671.17 179.776C677.071 173.864 682.995 167.94 689.112 162.243C701.369 150.873 714.036 139.889 727.953 130.691C734.889 126.143 742.166 121.879 750.045 119.4C753.933 118.095 758.064 117.683 762.132 118.195C766.24 118.773 770.293 119.685 774.253 120.924C782.214 123.46 790.007 126.498 797.584 130.02C805.225 133.34 812.718 137.069 820.109 141.003Z" fill="#6D5629"/>
<path d="M874.914 100.082C874.895 100.268 874.944 100.455 875.053 100.608C875.162 100.761 875.322 100.869 875.505 100.912L878.541 101.117C881.383 93.5099 884.419 87.4723 883.612 89.8259C882.388 93.5386 881.688 97.4038 881.531 101.31C882.873 101.389 885.977 101.537 887.535 101.605C890.116 88.2341 893.299 78.3078 893.072 81.3664C892.105 93.7145 892.731 97.6828 893.458 101.912C907.956 102.606 926.967 103.288 940.725 103.47C942.43 96.0682 943.942 88.0635 944.136 88.6207C945.944 92.8049 946.353 98.8539 946.319 103.527C950.708 103.527 954.21 103.527 956.347 103.334C956.347 103.334 957.484 97.1142 957.644 95.0676C958.124 89.84 957.689 84.5686 956.359 79.4903C954.983 74.3169 952.538 69.7346 950.219 65.0501C950.207 65.0125 950.188 64.9777 950.162 64.9478C948.633 61.8759 947.454 58.6415 946.649 55.3058C946.652 55.2794 946.652 55.2526 946.649 55.2262C946.105 52.7914 945.767 50.3154 945.637 47.8242C945.148 38.728 940.463 30.7688 932.481 28.4038C917.575 13.1676 902.305 19.6145 897.529 31.3373C897.074 32.4743 896.619 33.7819 896.187 35.2145C894.55 40.4903 893.049 47.3466 891.639 52.6338C891.639 52.6338 891.639 52.6338 891.639 52.6906C891.131 54.7662 890.496 56.809 889.74 58.8078C885.772 68.4157 876.949 73.828 874.914 100.082Z" fill="#1F1500"/>
<path d="M935.949 30.8939C938.533 32.2252 940.728 34.2022 942.322 36.6329C943.916 39.0636 944.854 41.8652 945.045 44.7656C945.455 48.6542 945.636 52.4405 946.978 56.1358C948.447 59.7316 950.431 63.0945 952.868 66.1189C956.518 71.0309 959.031 75.9315 959.508 82.4807C959.986 89.03 959.565 96.9551 957.371 103.163H957.314C959.122 96.8755 959.304 88.1772 958.36 81.5598C957.325 74.3283 953.573 69.7915 949.741 64.2997C946.65 59.9354 944.749 54.8409 944.227 49.5184C943.885 46.2324 943.988 42.7985 942.794 39.6945C941.373 35.9991 938.462 33.6455 935.574 31.5533C935.506 31.4949 935.46 31.4146 935.445 31.3263C935.43 31.238 935.446 31.1471 935.49 31.0692C935.534 30.9913 935.604 30.9312 935.688 30.8992C935.772 30.8672 935.864 30.8654 935.949 30.8939Z" fill="#1F1500"/>
<path d="M880.769 69.0979C884.567 63.9131 888.501 59.5014 890.786 53.0658C892.856 47.2101 894.095 41.0247 896.199 35.1804C896.199 35.1623 896.206 35.145 896.219 35.1322C896.232 35.1194 896.249 35.1122 896.267 35.1122C896.285 35.1122 896.302 35.1194 896.315 35.1322C896.328 35.145 896.335 35.1623 896.335 35.1804C893.061 45.5614 892.287 56.0335 885.886 64.7431C882.407 69.4959 878.927 73.8393 876.596 79.5244C874.216 85.5087 872.922 91.8695 872.776 98.3081C872.776 98.5355 872.492 98.5241 872.469 98.3081C871.743 87.9012 874.679 77.568 880.769 69.0979Z" fill="#1F1500"/>
<path d="M931.606 28.0399C932.413 30.314 944.943 32.588 951.003 24.3673C957.064 16.1466 950.344 5.53818 940.02 9.87025C933.493 12.6105 929.877 23.2758 931.606 28.0399Z" fill="#1F1500"/>
<path d="M951.867 12.8379C949.841 10.3694 947.033 8.66505 943.908 8.0055C942.463 7.66197 940.953 7.70493 939.53 8.13007C938.107 8.5552 936.821 9.34752 935.801 10.4274C933.722 12.7228 932.307 15.5411 931.708 18.5798C931.357 20.1266 931.147 21.7023 931.083 23.2871C930.945 24.8873 931.107 26.499 931.56 28.0399C930.769 26.5809 930.308 24.9664 930.207 23.3099C930.05 21.6508 930.092 19.9788 930.332 18.3297C930.752 14.9376 932.214 11.7593 934.516 9.23348C935.762 7.94666 937.334 7.023 939.065 6.56147C940.78 6.15371 942.572 6.20469 944.261 6.70929C945.877 7.16283 947.385 7.93987 948.693 8.99332C950 10.0468 951.08 11.3547 951.867 12.8379Z" fill="#1F1500"/>
<path d="M899.701 102.06C872.617 109.087 828.818 117.024 820.575 109.667C816.652 106.154 808.886 100.741 807.886 91.6223C805.714 71.7358 813.48 44.6518 821.348 32.2809C824.145 27.8807 850.069 36.5675 849.956 42.139C849.706 55.192 844.111 76.136 845.317 77.0798C849.774 80.5932 878.87 81.9462 898.257 84.1407C922.578 86.9037 912.037 98.8538 899.701 102.06Z" fill="#F7A9A0"/>
<path d="M870.331 111.282L874.174 77.512C874.174 77.512 897.734 80.707 910.798 86.6082C923.862 92.5093 918.757 99.4679 905.465 103.664C892.174 107.859 870.331 111.282 870.331 111.282Z" fill="#1F1500"/>
<path d="M881.576 80.4455C881.44 85.7213 880.621 100.002 878.813 109.224H878.575C878.859 101.333 880.621 85.6758 881.247 80.4455C881.258 80.3204 881.588 80.3431 881.576 80.4455Z" fill="#1F1500"/>
<path opacity="0.1" d="M905.465 103.561C892.151 107.734 870.331 111.282 870.331 111.282L872.298 94.0101L918.405 93.6804C918.621 97.4326 913.595 101.014 905.465 103.561Z" fill="#1F1500"/>
<path d="M857.096 162.38C857.096 162.38 939.372 197.093 942.635 196.615C942.635 196.615 944.352 152.726 939.952 116.592C935.256 77.8758 914.061 82.3329 905.954 86.1761C896.347 90.7242 874.243 111.589 871.844 116.125C867.841 123.63 872.139 134.488 872.139 134.488L857.096 162.38Z" fill="#1F1500"/>
<path opacity="0.1" d="M941.919 139.116C942.26 144.221 942.476 149.27 942.624 154.159C942.066 154.159 941.487 154.159 940.964 154.159C937.189 154.159 933.345 154.591 929.332 154.875C925.318 155.159 921.168 155.444 916.825 155.648C914.676 155.751 912.47 155.83 910.241 155.853H908.547C907.99 155.853 907.41 155.853 906.853 155.785C905.71 155.737 904.571 155.624 903.442 155.444L902.566 155.307C902.271 155.259 901.979 155.195 901.691 155.114C901.111 155 900.554 154.83 899.962 154.659C899.371 154.489 898.825 154.261 898.268 154.068C897.711 153.875 897.188 153.579 896.665 153.317C894.673 152.264 892.771 151.047 890.98 149.679C887.432 147.007 884.158 144.13 880.815 141.345C877.677 138.661 874.595 136.012 871.821 133.567C870.889 130.759 868.58 122.333 871.878 116.182C871.878 116.091 871.992 116 872.037 115.909C872.575 116.197 873.095 116.516 873.595 116.864C874.631 117.591 875.619 118.385 876.551 119.241C878.303 120.864 879.867 122.68 881.213 124.653C883.552 128.264 885.638 132.033 887.455 135.932C889.141 139.559 891.398 142.891 894.141 145.802C895.473 147.122 897.009 148.22 898.689 149.054C899.121 149.236 899.53 149.417 899.951 149.565L900.565 149.747L900.883 149.838L901.19 149.918C901.623 150.004 902.059 150.069 902.498 150.111C902.725 150.111 902.941 150.168 903.169 150.168H903.84C904.761 150.156 905.681 150.076 906.591 149.929C907.524 149.762 908.456 149.546 909.388 149.281C911.3 148.725 913.176 148.053 915.005 147.268C918.78 145.711 922.635 143.857 926.739 142.538C930.938 141.114 935.257 140.075 939.645 139.434C940.406 139.321 941.168 139.218 941.919 139.116Z" fill="#1F1500"/>
<path opacity="0.1" d="M942.931 169.372C942.931 170.907 942.931 172.431 942.931 173.92C942.601 173.568 942.26 173.215 941.919 172.874C939.356 170.198 936.138 168.238 932.584 167.189C929.093 166.268 925.318 166.632 921.532 167.189C919.633 167.462 917.711 167.803 915.744 168.11C913.777 168.417 911.799 168.736 909.775 168.918C907.751 169.099 905.704 169.247 903.646 169.27C901.588 169.293 899.508 169.27 897.416 169.088C893.237 168.814 889.088 168.198 885.011 167.246C883.999 166.996 882.975 166.746 881.975 166.439C880.974 166.132 879.974 165.836 879.007 165.495C878.041 165.154 877.051 164.801 876.062 164.449C875.073 164.097 874.152 163.664 873.208 163.244C868.745 161.275 864.455 158.936 860.383 156.251L865.044 147.598L867.148 148.587L869.74 149.724L871.002 150.304L872.31 150.85C873.174 151.203 874.038 151.566 874.891 151.987C875.312 152.18 875.755 152.328 876.187 152.499L877.483 152.999C878.359 153.329 879.2 153.715 880.087 154.022C880.974 154.329 881.816 154.625 882.668 154.966C883.521 155.307 884.397 155.614 885.272 155.876L886.568 156.331L887.876 156.751C891.369 157.84 894.927 158.705 898.53 159.344C902.168 159.946 905.864 160.253 909.65 160.572L915.449 161.015C917.416 161.152 919.394 161.299 921.418 161.504C923.442 161.709 925.466 161.948 927.535 162.289C929.617 162.638 931.664 163.171 933.653 163.88L934.392 164.176L935.119 164.494C935.608 164.699 936.086 164.938 936.563 165.177C937.041 165.415 937.45 165.722 937.916 165.973L939.247 166.78C940.065 167.383 940.929 167.917 941.748 168.554C942.169 168.781 942.499 169.065 942.931 169.372Z" fill="#1F1500"/>
<path opacity="0.1" d="M939.474 113.146C939.599 114.01 939.736 114.897 939.849 115.83H938.246L935.836 115.739C935.028 115.739 934.21 115.625 933.402 115.545C930.062 115.308 926.775 114.58 923.647 113.385C920.582 112.02 917.75 110.182 915.255 107.939C912.811 105.801 910.582 103.504 908.32 101.298C906.103 99.0481 903.699 96.9902 901.134 95.1472C899.665 94.1049 898.087 93.2278 896.426 92.532L897.563 91.6451C899.048 92.3471 900.487 93.1407 901.873 94.0215C904.613 95.7612 907.228 97.6259 909.832 99.5475C912.436 101.469 914.937 103.391 917.461 105.233C919.852 107.08 922.423 108.68 925.136 110.008C925.466 110.145 925.773 110.292 926.125 110.429L927.183 110.781C927.876 111.043 928.627 111.202 929.355 111.395C930.082 111.589 930.844 111.748 931.629 111.93C932.413 112.112 933.141 112.214 933.903 112.373C935.676 112.657 937.564 112.93 939.474 113.146Z" fill="#1F1500"/>
<path opacity="0.1" d="M938.326 107.177C938.542 108.143 938.758 109.121 938.94 110.179C936.927 109.963 934.903 109.758 932.845 109.496C929.576 109.203 926.366 108.437 923.317 107.222C920.375 105.764 917.733 103.766 915.528 101.333C913.254 99.0586 911.196 96.5571 909.138 94.1125C907.273 91.8385 905.466 89.644 903.658 87.4723C904.465 86.972 905.261 86.5513 905.932 86.2102L906.625 85.9032C908.172 88.1773 909.57 90.4513 910.98 92.7254C912.606 95.4262 914.45 97.9892 916.495 100.389C918.476 102.78 920.998 104.666 923.851 105.892C924.566 106.157 925.295 106.381 926.034 106.563C926.785 106.735 927.544 106.868 928.308 106.961C929.856 107.138 931.412 107.229 932.97 107.234C934.744 107.257 936.54 107.211 938.326 107.177Z" fill="#1F1500"/>
<path d="M886.716 134.136C890.296 135.583 893.762 137.297 897.085 139.264C898.734 140.253 900.315 141.322 901.884 142.436C902.668 142.982 903.464 143.505 904.26 144.028C905.083 144.597 905.973 145.063 906.909 145.415C906.92 145.411 906.931 145.409 906.942 145.41C906.954 145.411 906.965 145.414 906.974 145.421C906.984 145.427 906.991 145.435 906.997 145.445C907.002 145.455 907.005 145.466 907.005 145.478C907.005 145.489 907.002 145.5 906.997 145.51C906.991 145.52 906.984 145.529 906.974 145.535C906.965 145.541 906.954 145.545 906.942 145.546C906.931 145.547 906.92 145.545 906.909 145.54C905.089 145.114 903.352 144.388 901.77 143.391C900.099 142.402 898.473 141.322 896.813 140.31C893.402 138.263 890.104 136.228 886.579 134.431C886.409 134.363 886.545 134.068 886.716 134.136Z" fill="#1F1500"/>
<path d="M876.619 134.625C879.749 135.234 882.842 136.016 885.886 136.967C887.409 137.456 888.888 138.013 890.354 138.627C891.059 138.923 891.764 139.218 892.458 139.537C893.151 139.855 893.936 140.321 894.732 140.674C894.811 140.674 894.732 140.844 894.732 140.81C893.993 140.515 893.208 140.344 892.458 140.094L890.184 139.343C888.671 138.843 887.159 138.366 885.636 137.843C882.622 136.819 879.609 135.819 876.539 134.898C876.38 134.829 876.46 134.591 876.619 134.625Z" fill="#1F1500"/>
<path d="M921.861 104.562C925.568 122.982 930.537 162.175 944.716 169.657C961.316 178.423 964.045 154.477 962.999 141.674C962.135 131.111 946.478 108.86 937.882 97.5577C928.775 85.5848 917.097 80.8548 921.861 104.562Z" fill="#F7A9A0"/>
<path d="M958.201 122.163L926.137 133.533C926.137 133.533 918.666 110.975 918.177 96.6481C917.689 82.3216 926.228 83.8225 935.824 93.9647C945.421 104.107 958.201 122.163 958.201 122.163Z" fill="#1F1500"/>
<path d="M925.727 127.2C930.582 125.142 943.92 119.946 953.016 117.751C953.073 117.751 953.152 117.956 953.107 117.979C945.807 120.992 930.832 125.938 925.818 127.518C925.75 127.541 925.636 127.234 925.727 127.2Z" fill="#1F1500"/>
<path d="M917.484 109.44C918.416 110.804 920.281 112.987 920.429 113.249C920.213 112.544 919.701 109.94 919.224 107.416C919.221 107.392 919.227 107.368 919.24 107.348C919.253 107.328 919.273 107.313 919.296 107.306C919.319 107.3 919.344 107.301 919.366 107.311C919.388 107.32 919.406 107.337 919.417 107.359C920.611 109.781 925.42 131.009 926.239 133.511C927.208 133.081 928.199 132.701 929.207 132.373C929.514 132.294 929.332 132.601 929.298 132.612C928.672 132.999 925.887 134.568 925.693 134.238C925.216 133.226 921.316 116.626 920.986 115.568C920.827 115.318 918.166 110.895 917.438 109.428L917.484 109.44Z" fill="#1F1500"/>
<path d="M904.977 94.9653L904.499 94.6469C904.488 94.684 904.488 94.7236 904.499 94.7606C904.419 94.1011 900.554 89.0755 897.438 84.9708C893.549 79.8883 889.865 75.0787 889.479 73.8962C888.808 71.6221 890.252 58.3758 890.309 57.8073L890.877 57.8755C890.877 58.0119 889.388 71.5198 890.025 73.7938C890.332 74.874 894.323 80.0816 897.847 84.6865C904.249 92.9414 905.306 94.4877 904.977 94.9653Z" fill="#1F1500"/>
<path d="M904.829 52.3837C903.567 58.3872 898.28 62.344 893.015 61.2411C887.751 60.1382 884.51 54.4189 885.772 48.37C887.034 42.321 892.333 38.4096 897.597 39.5239C902.862 40.6382 906.114 46.3915 904.829 52.3837Z" fill="#1F1500"/>
<path d="M907.785 53.4638C906.375 60.1382 900.497 64.5498 894.641 63.3104C888.785 62.0711 885.181 55.6696 886.58 48.9953C887.978 42.3209 893.879 37.9207 899.724 39.1486C905.568 40.3766 909.195 46.8122 907.785 53.4638Z" fill="#DBDBDB"/>
<path d="M924.704 90.5536C924.09 92.0886 914.88 101.276 907.649 99.809C905.295 99.3314 907.342 86.3466 907.342 86.3466L907.273 85.3574L906.33 71.4515L923.681 63.7539L926.159 62.7646C926.159 62.7646 926.159 66.5851 926.159 71.3378V72.0087C926.159 72.2816 926.159 72.5431 926.159 72.7932C926.159 73.4982 926.159 74.2259 926.159 74.9422C926.159 75.6585 926.159 76.0792 926.159 76.6136C926.159 77.148 926.159 77.7507 926.102 78.3305C925.918 82.4322 925.45 86.5162 924.704 90.5536Z" fill="#F7A9A0"/>
<path d="M926.114 71.3378C924.178 74.9051 921.487 78.0074 918.229 80.4287C914.971 82.8499 911.225 84.5318 907.251 85.3574L906.307 71.4515L923.658 63.7539L926.137 62.7646C926.137 62.7646 926.16 66.5851 926.114 71.3378Z" fill="#1F1500"/>
<path d="M892.81 44.811C885.454 68.1314 898.598 75.1582 903.624 76.7387C908.172 78.1713 923.931 82.4238 933.641 60.0358C943.351 37.6477 934.835 26.8119 924.545 22.9801C914.255 19.1483 900.156 21.4792 892.81 44.811Z" fill="#F7A9A0"/>
<path d="M897.711 42.6053C898.275 42.6336 898.841 42.6336 899.405 42.6053C899.997 42.6964 900.602 42.5968 901.133 42.321C901.283 42.2 901.389 42.0331 901.434 41.846C901.479 41.659 901.461 41.4623 901.384 41.2863C901.174 40.9637 900.882 40.7022 900.539 40.5285C900.195 40.3548 899.812 40.275 899.428 40.2971C898.645 40.2305 897.864 40.4529 897.233 40.9225C897.079 41.0348 896.964 41.1916 896.902 41.3718C896.839 41.552 896.834 41.7469 896.886 41.9302C896.938 42.1136 897.045 42.2766 897.192 42.3973C897.34 42.518 897.521 42.5906 897.711 42.6053Z" fill="#1F1500"/>
<path d="M913.755 46.8123C913.235 46.5991 912.727 46.36 912.231 46.0959C911.661 45.9135 911.166 45.5503 910.821 45.0612C910.741 44.8856 910.723 44.6883 910.768 44.5008C910.813 44.3133 910.92 44.1463 911.071 44.0265C911.403 43.8338 911.779 43.7323 912.163 43.7323C912.546 43.7323 912.923 43.8338 913.254 44.0265C913.984 44.322 914.58 44.8768 914.926 45.5843C914.992 45.7503 915.01 45.932 914.976 46.1076C914.942 46.2833 914.859 46.4455 914.735 46.575C914.612 46.7044 914.454 46.7956 914.28 46.8377C914.106 46.8798 913.924 46.8709 913.755 46.8123Z" fill="#1F1500"/>
<path d="M907.308 63.9358C906.932 64.3451 906.557 64.9023 905.954 64.9819C905.335 64.9945 904.719 64.8783 904.147 64.6408C904.135 64.6317 904.119 64.6278 904.105 64.63C904.09 64.6321 904.076 64.6401 904.067 64.6521C904.058 64.6642 904.054 64.6794 904.056 64.6943C904.058 64.7092 904.066 64.7227 904.078 64.7317C904.333 65.0448 904.666 65.2846 905.044 65.4264C905.421 65.5683 905.83 65.6072 906.227 65.539C906.564 65.436 906.861 65.2347 907.082 64.9612C907.303 64.6877 907.437 64.3543 907.467 64.004C907.489 63.8676 907.364 63.8676 907.308 63.9358Z" fill="#1F1500"/>
<path d="M901.111 57.1933C901.111 57.1933 900.303 59.5696 900.076 60.718C900.076 60.8204 900.326 60.9341 900.713 61.025C901.661 61.3934 902.693 61.4948 903.695 61.3184C904.697 61.1421 905.632 60.6945 906.398 60.0245C906.413 60.0033 906.421 59.978 906.421 59.9519C906.422 59.9258 906.414 59.9004 906.399 59.8791C906.384 59.8578 906.362 59.8417 906.338 59.8331C906.313 59.8245 906.286 59.8239 906.261 59.8312C904.597 60.5458 902.747 60.7053 900.986 60.286C900.986 59.9449 902.509 56.2609 902.327 56.2154C901.418 56.1191 900.5 56.1459 899.598 56.295C901.156 51.3035 903.487 46.5962 904.965 41.5933C904.973 41.5739 904.978 41.553 904.978 41.5319C904.978 41.5109 904.974 41.49 904.966 41.4704C904.958 41.4509 904.947 41.4331 904.932 41.4181C904.917 41.4031 904.899 41.3911 904.88 41.3829C904.86 41.3747 904.84 41.3704 904.819 41.3702C904.797 41.3701 904.777 41.3741 904.757 41.382C904.738 41.3899 904.72 41.4016 904.705 41.4164C904.69 41.4312 904.678 41.4488 904.67 41.4682C901.872 46.221 899.962 51.9288 898.234 57.0455C898.075 57.6936 900.61 57.2956 901.111 57.1933Z" fill="#1F1500"/>
<path d="M901.941 60.9681C902.374 61.8127 903.016 62.5328 903.805 63.0603C904.245 63.3313 904.757 63.4585 905.272 63.4241C906.409 63.3445 906.603 62.3667 906.557 61.4912C906.536 61.0206 906.456 60.5545 906.318 60.104C904.991 60.8577 903.455 61.1608 901.941 60.9681Z" fill="#1F1500"/>
<path d="M903.84 63.0603C904.279 63.3313 904.791 63.4585 905.306 63.4242C906.443 63.3446 906.637 62.3667 906.591 61.4912C906.023 61.4037 905.441 61.5111 904.942 61.796C904.442 62.0809 904.054 62.5265 903.84 63.0603Z" fill="#FF9BBC"/>
<path d="M899.78 49.5979C899.78 49.5297 899.644 49.5979 899.621 49.6775C899.132 51.1443 898.325 52.7361 896.835 52.7247C896.835 52.7247 896.767 52.8043 896.835 52.8157C898.496 53.1796 899.553 51.0533 899.78 49.5979Z" fill="#1F1500"/>
<path d="M897.143 47.9492C897.021 48.212 896.926 48.4862 896.858 48.7678C896.695 48.9309 896.512 49.0722 896.313 49.1885C896.123 49.3052 895.904 49.3669 895.682 49.3669C895.459 49.3669 895.24 49.3052 895.051 49.1885C894.277 48.6769 894.368 47.6308 894.755 46.778C894.755 46.7098 894.834 46.6985 894.846 46.778C894.96 47.392 895.13 48.0515 895.653 48.2221C896.176 48.3926 896.631 48.0743 897.109 47.9833L897.143 47.9492Z" fill="#1F1500"/>
<path d="M899.291 51.1783C899.08 51.5449 898.774 51.8475 898.405 52.0539C898.199 52.1602 897.972 52.2212 897.741 52.233C897.51 52.2448 897.278 52.207 897.063 52.1221C896.841 52.0351 896.644 51.8971 896.486 51.7192C896.328 51.5414 896.214 51.3289 896.153 51.0988C896.057 50.6951 896.057 50.2744 896.153 49.8708C896.212 49.6318 896.284 49.3964 896.369 49.1658C896.549 48.6798 896.841 48.2434 897.222 47.8923C897.066 48.2307 896.948 48.5853 896.87 48.9498C896.793 49.2749 896.744 49.6058 896.722 49.939C896.722 50.6326 896.847 51.2807 897.347 51.4285C897.847 51.5763 898.393 51.3716 898.837 50.8372C899.272 50.2716 899.652 49.6663 899.974 49.0294C899.92 49.7897 899.686 50.5264 899.291 51.1783Z" fill="#1F1500"/>
<path d="M908.808 52.3041C908.808 52.2472 908.899 52.4064 908.888 52.4633C908.399 53.93 908.081 55.681 909.275 56.5679C909.275 56.5679 909.275 56.6702 909.275 56.6475C907.671 55.9084 908.115 53.6344 908.808 52.3041Z" fill="#1F1500"/>
<path d="M911.924 52.4973C911.865 52.7807 911.781 53.0584 911.674 53.3273C911.701 53.5538 911.758 53.7756 911.844 53.9868C911.925 54.1959 912.062 54.3783 912.241 54.513C912.42 54.6477 912.633 54.7294 912.856 54.7486C913.789 54.8055 914.334 53.9186 914.551 52.9976C914.551 52.9294 914.55 52.8839 914.482 52.918C914.027 53.3387 913.504 53.7594 912.981 53.5889C912.458 53.4183 912.276 52.8839 911.958 52.5201L911.924 52.4973Z" fill="#1F1500"/>
<path d="M908.285 53.8845C908.236 54.3065 908.298 54.734 908.467 55.1239C908.572 55.3307 908.718 55.5139 908.896 55.6625C909.073 55.8111 909.28 55.9219 909.502 55.988C909.731 56.0504 909.972 56.0582 910.205 56.0108C910.438 55.9634 910.657 55.8621 910.844 55.7151C911.167 55.4524 911.424 55.1175 911.594 54.7373C911.694 54.5125 911.778 54.2807 911.844 54.0437C911.993 53.5499 912.024 53.0281 911.935 52.5201C911.855 52.8818 911.733 53.2328 911.571 53.5662C911.44 53.8758 911.28 54.1726 911.094 54.453C910.707 55.0215 910.195 55.4423 909.695 55.2717C909.195 55.1011 908.899 54.5895 908.865 53.8959C908.86 53.1831 908.921 52.4713 909.047 51.7697C908.632 52.4057 908.371 53.1299 908.285 53.8845Z" fill="#1F1500"/>
<path d="M932.561 60.4565C928.581 59.9335 929.4 51.5195 929.4 51.5195C929.4 51.5195 921.441 49.8708 921.202 37.8751C920.708 41.3629 921.241 44.9191 922.737 48.1084C922.737 48.1084 909.002 43.674 905.545 30.6664C905.545 30.6664 906.682 37.1588 908.422 39.7626C908.422 39.7626 902.873 36.8746 900.997 31.4851C900.997 31.4851 897.12 37.7614 894.823 39.2396C894.823 39.2396 900.565 14.7708 922.805 22.1842C922.805 22.1842 936.87 26.1297 939.622 38.4891C942.373 50.8486 932.561 60.4565 932.561 60.4565Z" fill="#1F1500"/>
<path d="M929.377 60.6612C929.377 60.6612 936.199 54.3621 939.212 56.9772C942.226 59.5924 935.858 69.4845 931.56 70.1099C931.012 70.2228 930.446 70.2233 929.898 70.1113C929.349 69.9993 928.829 69.7771 928.368 69.4582C927.908 69.1393 927.517 68.7303 927.22 68.256C926.922 67.7817 926.724 67.252 926.637 66.6988L929.377 60.6612Z" fill="#F7A9A0"/>
<path d="M937.325 59.7743C937.34 59.7743 937.354 59.7803 937.365 59.791C937.376 59.8016 937.382 59.8161 937.382 59.8312C937.382 59.8463 937.376 59.8607 937.365 59.8714C937.354 59.882 937.34 59.888 937.325 59.888C934.289 60.3997 932.254 62.651 930.628 65.0956C930.851 64.8521 931.125 64.6602 931.43 64.5332C931.734 64.4062 932.063 64.3471 932.393 64.3601C932.723 64.3731 933.047 64.4578 933.341 64.6084C933.635 64.759 933.892 64.9718 934.096 65.2321C934.164 65.3003 934.096 65.3912 933.993 65.3571C933.538 65.0957 933.014 64.9806 932.491 65.0274C931.968 65.0742 931.473 65.2806 931.071 65.6186C930.4 66.1911 929.794 66.8355 929.263 67.5402C929.081 67.7562 928.661 67.5402 928.82 67.2673V67.1991C929.57 63.6402 933.402 59.3195 937.325 59.7743Z" fill="#1F1500"/>
<path d="M844.271 126.529C840.416 126.529 837.176 124.914 834.606 119.786C831.718 114.033 841.064 85.6757 847.238 66.9034C849.285 60.6953 850.899 55.7947 851.604 53.134C852.798 48.5859 853.333 37.4317 853.333 37.318H853.901C853.901 37.7842 853.367 48.6883 852.15 53.2364C851.445 55.9197 849.876 60.8317 847.784 67.0512C842.008 84.5955 832.332 113.954 835.118 119.502C839.416 128.098 845.499 126.324 853.913 124.05C856.789 123.183 859.712 122.477 862.668 121.935C871.457 120.469 875.948 121.538 879.564 122.402C884.112 123.482 887.046 124.198 895.539 118.456C899.837 115.557 903.93 95.7157 903.976 95.5224C904.726 93.4302 911.867 89.4165 918.757 85.5393C923.59 82.8218 928.16 80.2521 929.661 78.8194C931.731 76.841 934.562 69.5413 934.585 69.4731L935.119 69.6778C935.005 69.9848 932.208 77.1594 930.048 79.2288C928.502 80.7183 923.908 83.2993 919.03 86.0509C912.538 89.7008 905.17 93.8396 904.51 95.7043C904.351 96.4888 900.337 115.921 895.846 118.945C887.148 124.824 884.067 124.096 879.416 122.982C875.857 122.129 871.457 121.071 862.747 122.527C859.815 123.062 856.915 123.761 854.06 124.619C850.893 125.676 847.603 126.318 844.271 126.529Z" fill="#1F1500"/>
<path d="M854.531 45.8341L855.3 37.1699L852.819 36.9499L852.051 45.6141L854.531 45.8341Z" fill="#1F1500"/>
<path d="M938.212 56.2381C938.212 56.2381 942.385 43.3328 940.349 35.1235C938.075 26.0273 927.91 16.5104 914.937 19.3757C914.937 19.3757 928.934 22.1501 935.017 34.3958C937.802 40.081 933.743 55.499 933.743 55.499L938.212 56.2381Z" fill="#DBDBDB"/>
<path d="M924.306 59.7516C922.555 66.4259 925.898 73.0775 931.754 74.6011C937.609 76.1248 943.761 71.9632 945.512 65.2889C947.263 58.6146 943.92 51.963 938.064 50.4393C932.208 48.9157 926.046 53.0772 924.306 59.7516Z" fill="#DBDBDB"/>
<path d="M927.49 60.1723C925.921 66.1758 928.922 72.1565 934.187 73.5323C939.451 74.9081 944.989 71.156 946.558 65.1638C948.127 59.1717 945.125 53.1796 939.861 51.8038C934.596 50.428 929.059 54.1802 927.49 60.1723Z" fill="#1F1500"/>
<path d="M942.317 163.448C949.582 174.216 958.963 169.475 961.316 160.719C966.842 140.151 957.848 103.868 953.607 94.3967C953.016 93.055 917.814 101.628 919.042 108.132C920.759 117.228 927.581 141.595 942.317 163.448Z" fill="#F7A9A0"/>
<path d="M939.667 159.162C938.4 157.467 937.224 155.705 936.143 153.886C935.006 152.067 934.028 150.168 933.05 148.201C932.072 146.234 931.208 144.267 930.423 142.209C929.611 140.132 928.935 138.006 928.399 135.841C928.877 136.819 929.264 137.842 929.741 138.809C930.219 139.775 930.628 140.787 931.094 141.754C932.027 143.698 932.936 145.654 933.903 147.575L939.667 159.162Z" fill="#1F1500"/>
<path d="M952.607 99.4793C952.607 99.4793 955.335 86.0283 956.7 77.1367C957.462 72.1793 958.019 63.5606 956.916 59.6606C955.256 53.8277 944.625 30.4959 938.905 32.9519C933.732 35.2259 945.421 54.0665 945.421 54.0665C945.421 54.0665 935.312 33.9638 929.582 37.7843C923.851 41.6047 939.883 61.1956 939.883 61.1956C939.883 61.1956 929.036 40.7291 923.749 45.6525C919.758 49.3364 933.277 67.8927 933.277 67.8927C933.277 67.8927 923.84 50.4052 919.565 54.021C914.835 58.0119 926.25 75.9315 926.25 75.9315C916.927 86.9493 914.744 98.3423 919.03 107.291C919.758 108.712 952.607 99.4793 952.607 99.4793Z" fill="#F7A9A0"/>
<path d="M949.321 60.7977C948.184 58.3872 947.115 55.9539 945.807 53.6571C944.5 51.3603 943.101 49.109 941.578 46.9373C939.649 44.067 937.398 41.4271 934.869 39.0691C939.053 43.6172 943.874 51.7356 945.182 54.0324C946.49 56.3292 947.922 58.5805 949.23 60.8545L949.321 60.7977Z" fill="#1F1500"/>
<path d="M941.145 65.6755C939.61 62.6737 938.189 59.6265 936.518 56.6816C934.846 53.7367 933.016 51.1329 931.162 48.3244C931.015 48.1084 930.946 48.2562 931.083 48.4723C932.834 51.3489 934.221 54.1574 935.938 57.0454C937.655 59.9335 939.485 62.7306 941.077 65.7209L941.145 65.6755Z" fill="#1F1500"/>
<path d="M934.858 71.1445C932.607 66.4741 929.883 62.0468 926.728 57.9323C926.569 57.7276 926.501 57.9323 926.648 58.1483C929.434 62.4804 931.651 65.8687 934.687 71.2127C934.744 71.3037 934.903 71.2355 934.858 71.1445Z" fill="#1F1500"/>
<path d="M924.306 45.2317C923.814 45.4557 923.43 45.8641 923.237 46.3687C923.071 46.8859 923.006 47.4301 923.044 47.9719C923.131 49.0643 923.368 50.1394 923.749 51.167C924.495 53.2331 925.42 55.2304 926.512 57.1364L927.979 59.7629L925.966 57.4888C925.115 56.5058 924.154 55.6244 923.101 54.8623C922.597 54.5092 922.035 54.2474 921.441 54.0891C920.897 53.9554 920.323 54.0369 919.838 54.3165C919.453 54.6907 919.204 55.1832 919.133 55.7151C919.018 56.3258 918.984 56.9488 919.03 57.5684C919.141 58.8542 919.392 60.124 919.781 61.3547C920.584 63.8638 921.604 66.2986 922.828 68.6317C923.419 69.7687 924.079 70.9626 924.693 72.1337L926.682 75.5448L926.887 75.9087L926.603 76.2043C924.672 78.2192 923.003 80.4693 921.634 82.9014C920.235 85.3226 919.143 87.9083 918.382 90.599C917.65 93.3062 917.328 96.108 917.427 98.9107C917.545 101.733 918.077 104.522 919.007 107.188C917.896 104.564 917.202 101.783 916.949 98.9448C916.725 96.0797 916.959 93.1971 917.643 90.4057C918.319 87.6211 919.375 84.9429 920.781 82.4466C922.172 79.9195 923.876 77.5778 925.852 75.4766L925.773 76.1361L923.715 72.725C923.089 71.5879 922.407 70.3827 921.827 69.1775C920.601 66.7761 919.585 64.2728 918.791 61.6958C918.386 60.384 918.134 59.0294 918.041 57.6594C917.995 56.951 918.044 56.2396 918.189 55.5445C918.243 55.1493 918.376 54.7691 918.582 54.4271C918.787 54.085 919.059 53.7882 919.383 53.5547C920.079 53.1788 920.893 53.0851 921.657 53.2932C922.344 53.4978 922.991 53.821 923.567 54.2483C924.655 55.0753 925.637 56.034 926.489 57.1022L925.932 57.4888C924.885 55.5356 924.035 53.4825 923.396 51.3603C923.068 50.2866 922.884 49.1738 922.851 48.0515C922.832 47.4825 922.937 46.9163 923.158 46.3915C923.262 46.1311 923.417 45.8942 923.614 45.695C923.811 45.4957 924.047 45.3382 924.306 45.2317Z" fill="#1F1500"/>
<path d="M865.886 -0.760942L867.478 41.2181C867.659 42.4802 866.875 43.2988 865.727 43.06L845.158 38.7052C844.541 38.5227 843.989 38.1696 843.565 37.6868C843.14 37.204 842.861 36.6111 842.759 35.9764L841.155 -6.00263C840.985 -7.26473 841.769 -8.08339 842.918 -7.84462L863.475 -3.48981C864.094 -3.30907 864.648 -2.95685 865.075 -2.4739C865.502 -1.99095 865.783 -1.39704 865.886 -0.760942Z" fill="#6D5629"/>
<path d="M863.453 -1.29537L865.044 40.6836C865.226 41.9344 864.43 42.7644 863.282 42.5256L842.725 38.1594C842.108 37.9795 841.554 37.629 841.127 37.1482C840.701 36.6675 840.419 36.076 840.314 35.4419L838.722 -6.53706C838.54 -7.79916 839.336 -8.61782 840.485 -8.37904L861.042 -4.02423C861.661 -3.8435 862.215 -3.49127 862.642 -3.00832C863.068 -2.52537 863.35 -1.93146 863.453 -1.29537Z" fill="#85E96D"/>
<path d="M857.426 -0.67001C857.357 -0.322457 857.393 0.037712 857.53 0.364636C857.667 0.691561 857.897 0.970459 858.193 1.16583C858.488 1.36119 858.835 1.46419 859.19 1.46171C859.544 1.45922 859.89 1.35137 860.182 1.15189C860.475 0.952397 860.702 0.670289 860.834 0.341483C860.966 0.0126777 860.997 -0.347952 860.923 -0.694507C860.85 -1.04106 860.675 -1.35786 860.42 -1.60457C860.166 -1.85129 859.844 -2.01676 859.495 -2.07992C859.035 -2.16343 858.559 -2.06241 858.172 -1.79865C857.785 -1.53489 857.517 -1.12954 857.426 -0.67001Z" fill="#1F1500"/>
<path d="M819.825 23.344C824.487 13.6565 827.17 11.8828 826.761 1.61543C826.488 -5.11576 830.672 -8.18573 834.185 -2.11401C839.87 7.8236 836.528 21.5816 833.981 26.016L819.825 23.344Z" fill="#F7A9A0"/>
<path d="M815.47 54.0891C815.47 54.0891 813.798 38.9326 817.744 28.1195C820.461 20.6378 828.216 5.02647 851.582 0.694403C857.119 -0.34029 865.749 2.12705 857.267 7.09586C851.263 10.6206 846.397 11.0527 843.281 13.7361C843.281 13.7361 853.879 18.1705 854.652 23.7647C855.363 28.6598 855.724 33.5995 855.732 38.546C854.83 38.7554 853.914 38.9036 852.992 38.9894C852.992 38.9894 853.253 44.288 848.171 50.553L815.47 54.0891Z" fill="#F7A9A0"/>
<path d="M821.485 21.3883C825.135 19.3758 832.957 15.237 840.53 14.0772C848.944 12.7924 865.488 12.5764 866.375 18.7959C867.034 23.344 860.689 23.9921 860.689 23.9921C860.689 23.9921 867.512 25.3452 867.239 29.5977C866.955 33.4635 862.043 33.6682 862.043 33.6682C862.043 33.6682 866.068 35.2032 865.067 38.8758C863.873 43.2988 855.641 39.3533 850.57 42.7872C849.444 43.5603 821.485 21.3883 821.485 21.3883Z" fill="#F7A9A0"/>
<path d="M840.405 23.1962C847.05 21.3535 854.099 21.5836 860.61 23.8556C860.769 23.9239 860.815 24.0717 860.61 24.0489C853.92 22.9738 847.124 22.7141 840.371 23.2758C840.371 23.2758 840.371 23.2075 840.405 23.1962Z" fill="#1F1500"/>
<path d="M841.951 31.6443C845.306 30.837 854.913 30.405 862.077 33.509C862.247 33.5773 862.27 33.7365 862.077 33.7137C855.457 32.2927 848.698 31.6252 841.929 31.7239C841.929 31.7239 841.917 31.6557 841.951 31.6443Z" fill="#1F1500"/>
<path d="M667.77 28.1991C668.169 29.3186 668.362 30.5014 668.339 31.6898C668.366 32.8784 668.173 34.0619 667.77 35.1804C667.372 34.0605 667.18 32.878 667.202 31.6898C667.184 30.5018 667.376 29.32 667.77 28.1991Z" fill="#1F1500"/>
<path d="M658.503 37.716C660.771 36.9729 663.217 36.9729 665.485 37.716C663.219 38.4744 660.769 38.4744 658.503 37.716Z" fill="#1F1500"/>
<path d="M667.997 46.9487C667.239 44.6873 667.239 42.2402 667.997 39.9788C668.756 42.2402 668.756 44.6873 667.997 46.9487Z" fill="#1F1500"/>
<path d="M677.264 37.4659C674.999 38.2243 672.548 38.2243 670.283 37.4659C671.401 37.061 672.585 36.8682 673.774 36.8974C674.962 36.8757 676.144 37.0683 677.264 37.4659Z" fill="#1F1500"/>
<path d="M978.235 266.383C978.993 268.649 978.993 271.099 978.235 273.365C977.477 271.099 977.477 268.649 978.235 266.383Z" fill="#1F1500"/>
<path d="M962.169 113.749C962.55 114.446 962.745 115.229 962.737 116.023C962.75 116.818 962.554 117.602 962.169 118.297C961.779 117.604 961.583 116.818 961.6 116.023C961.588 115.228 961.784 114.444 962.169 113.749Z" fill="#1F1500"/>
<path d="M956.029 120.025C956.743 119.652 957.537 119.457 958.343 119.457C959.149 119.457 959.943 119.652 960.657 120.025C959.943 120.399 959.149 120.594 958.343 120.594C957.537 120.594 956.743 120.399 956.029 120.025Z" fill="#1F1500"/>
<path d="M962.317 126.165C961.932 125.47 961.736 124.686 961.748 123.891C961.73 123.096 961.926 122.31 962.317 121.617C962.702 122.313 962.898 123.097 962.885 123.891C962.893 124.685 962.697 125.468 962.317 126.165Z" fill="#1F1500"/>
<path d="M968.457 119.878C967.743 120.251 966.949 120.446 966.143 120.446C965.337 120.446 964.543 120.251 963.829 119.878C964.543 119.504 965.337 119.309 966.143 119.309C966.949 119.309 967.743 119.504 968.457 119.878Z" fill="#1F1500"/>
<path d="M807.442 -3.92188C807.827 -3.22655 808.023 -2.44249 808.011 -1.64782C808.029 -0.852471 807.833 -0.0668645 807.442 0.626229C807.057 -0.0690949 806.861 -0.853153 806.874 -1.64782C806.866 -2.44195 807.062 -3.22484 807.442 -3.92188Z" fill="#1F1500"/>
<path d="M801.302 2.36594C802.017 1.99237 802.81 1.79724 803.616 1.79724C804.422 1.79724 805.216 1.99237 805.93 2.36594C805.216 2.73951 804.422 2.93462 803.616 2.93462C802.81 2.93462 802.017 2.73951 801.302 2.36594Z" fill="#1F1500"/>
<path d="M807.59 8.50587C807.213 7.80756 807.018 7.02553 807.022 6.23182C807.009 5.43715 807.205 4.65309 807.59 3.95776C807.98 4.65127 808.176 5.43659 808.159 6.23182C808.171 7.02649 807.975 7.81054 807.59 8.50587Z" fill="#1F1500"/>
<path d="M813.73 2.2181C813.016 2.59167 812.222 2.7868 811.416 2.7868C810.611 2.7868 809.817 2.59167 809.103 2.2181C809.817 1.84453 810.611 1.64941 811.416 1.64941C812.222 1.64941 813.016 1.84453 813.73 2.2181Z" fill="#1F1500"/>
<path d="M759.017 215.843C759.775 218.104 759.775 220.551 759.017 222.813C758.258 220.551 758.258 218.104 759.017 215.843Z" fill="#1F1500"/>
<path d="M749.75 225.325C752.015 224.567 754.466 224.567 756.731 225.325C755.613 225.729 754.429 225.922 753.24 225.894C752.052 225.916 750.87 225.723 749.75 225.325Z" fill="#1F1500"/>
<path d="M759.244 234.592C758.845 233.473 758.652 232.29 758.675 231.101C758.648 229.913 758.841 228.729 759.244 227.611C759.642 228.731 759.834 229.913 759.812 231.101C759.83 232.289 759.638 233.471 759.244 234.592Z" fill="#1F1500"/>
<path d="M768.533 225.109C766.266 225.852 763.82 225.852 761.552 225.109C763.817 224.351 766.268 224.351 768.533 225.109Z" fill="#1F1500"/>
<path d="M996.064 -21.6026C995.59 -16.9715 993.836 -12.5636 991 -8.87193C988.164 -5.18024 984.357 -2.35026 980.004 -0.698464C975.652 0.953329 970.926 1.36182 966.354 0.48132C961.783 -0.399175 957.547 -2.53394 954.119 -5.68426L941.555 -3.83091L947.843 -14.6895C946.404 -18.2252 945.791 -22.0422 946.05 -25.8505C946.308 -29.6588 947.432 -33.358 949.335 -36.6668C951.238 -39.9756 953.87 -42.8069 957.032 -44.9455C960.193 -47.084 963.801 -48.4734 967.581 -49.0081C971.36 -49.5428 975.212 -49.2087 978.842 -48.0311C982.473 -46.8536 985.788 -44.8636 988.534 -42.2126C991.28 -39.5615 993.386 -36.3192 994.691 -32.7321C995.995 -29.145 996.465 -25.3076 996.064 -21.5117V-21.6026Z" fill="white"/>
<path d="M996.064 -21.6026C995.567 -16.9848 993.813 -12.5918 990.993 -8.90206C989.614 -7.03434 987.953 -5.39254 986.069 -4.03559C982.333 -1.2364 977.901 0.485965 973.255 0.944587C972.095 1.05248 970.928 1.07528 969.764 1.01281C968.597 0.987921 967.433 0.866221 966.285 0.648958C961.656 -0.203904 957.357 -2.33011 953.869 -5.49098L954.164 -5.40002L941.657 -3.47845L940.748 -3.33063L941.202 -4.13792L947.456 -15.0193V-14.5872C945.983 -18.1863 945.356 -22.0758 945.624 -25.9555C945.892 -29.8353 947.048 -33.6016 949.002 -36.9639C950.944 -40.2887 953.61 -43.1334 956.802 -45.2869C960.016 -47.4362 963.681 -48.8174 967.513 -49.3233C971.321 -49.8525 975.199 -49.4969 978.848 -48.2842C982.496 -47.0715 985.815 -45.0342 988.548 -42.3306C991.285 -39.6678 993.384 -36.4194 994.685 -32.8293C995.987 -29.2393 996.458 -25.401 996.064 -21.6026ZM996.064 -21.6026C996.434 -25.3937 995.94 -29.2193 994.618 -32.7918C993.297 -36.3642 991.182 -39.5906 988.434 -42.2283C985.672 -44.8189 982.366 -46.761 978.758 -47.9134C975.148 -49.0329 971.329 -49.3168 967.593 -48.7435C963.869 -48.1892 960.322 -46.7889 957.223 -44.6502C954.155 -42.4978 951.59 -39.7045 949.707 -36.4636C947.857 -33.2057 946.769 -29.571 946.524 -25.8324C946.29 -22.1043 946.892 -18.3711 948.286 -14.9056L948.377 -14.6782L948.263 -14.4735L941.941 -3.63764L941.487 -4.2971L954.062 -6.0595H954.233L954.358 -5.9458C957.719 -2.82645 961.879 -0.700935 966.376 0.194146C967.5 0.421404 968.641 0.558285 969.787 0.603476C970.923 0.682021 972.063 0.682021 973.198 0.603476C975.492 0.42018 977.749 -0.0771813 979.907 -0.874661C982.072 -1.66102 984.11 -2.76045 985.956 -4.13792C986.89 -4.83866 987.779 -5.59822 988.616 -6.41197C989.425 -7.23021 990.185 -8.09588 990.89 -9.00439C993.74 -12.6487 995.53 -17.0077 996.064 -21.6026Z" fill="#1F1500"/>
<path d="M74.816 121L66.688 111.048V121H62.208V98.664H66.688V108.68L74.816 98.664H80.224L71.008 109.736L80.48 121H74.816ZM99.9068 111.752C99.9068 112.392 99.8641 112.968 99.7788 113.48H86.8188C86.9254 114.76 87.3734 115.763 88.1628 116.488C88.9521 117.213 89.9228 117.576 91.0748 117.576C92.7388 117.576 93.9228 116.861 94.6268 115.432H99.4588C98.9468 117.139 97.9654 118.547 96.5148 119.656C95.0641 120.744 93.2828 121.288 91.1708 121.288C89.4641 121.288 87.9281 120.915 86.5628 120.168C85.2188 119.4 84.1628 118.323 83.3948 116.936C82.6481 115.549 82.2747 113.949 82.2747 112.136C82.2747 110.301 82.6481 108.691 83.3948 107.304C84.1414 105.917 85.1868 104.851 86.5308 104.104C87.8748 103.357 89.4214 102.984 91.1708 102.984C92.8561 102.984 94.3601 103.347 95.6828 104.072C97.0268 104.797 98.0614 105.832 98.7868 107.176C99.5334 108.499 99.9068 110.024 99.9068 111.752ZM95.2668 110.472C95.2454 109.32 94.8294 108.403 94.0188 107.72C93.2081 107.016 92.2161 106.664 91.0428 106.664C89.9334 106.664 88.9948 107.005 88.2268 107.688C87.4801 108.349 87.0214 109.277 86.8508 110.472H95.2668ZM120.137 103.272L109.161 129.384H104.393L108.233 120.552L101.129 103.272H106.153L110.729 115.656L115.369 103.272H120.137ZM129.089 109.8C129.089 107.603 129.579 105.64 130.561 103.912C131.563 102.163 132.918 100.808 134.625 99.848C136.353 98.8667 138.283 98.376 140.417 98.376C142.913 98.376 145.099 99.016 146.977 100.296C148.854 101.576 150.166 103.347 150.913 105.608H145.761C145.249 104.541 144.523 103.741 143.585 103.208C142.667 102.675 141.601 102.408 140.385 102.408C139.083 102.408 137.921 102.717 136.897 103.336C135.894 103.933 135.105 104.787 134.529 105.896C133.974 107.005 133.697 108.307 133.697 109.8C133.697 111.272 133.974 112.573 134.529 113.704C135.105 114.813 135.894 115.677 136.897 116.296C137.921 116.893 139.083 117.192 140.385 117.192C141.601 117.192 142.667 116.925 143.585 116.392C144.523 115.837 145.249 115.027 145.761 113.96H150.913C150.166 116.243 148.854 118.024 146.977 119.304C145.121 120.563 142.934 121.192 140.417 121.192C138.283 121.192 136.353 120.712 134.625 119.752C132.918 118.771 131.563 117.416 130.561 115.688C129.579 113.96 129.089 111.997 129.089 109.8ZM164.723 103.016C166.067 103.016 167.262 103.315 168.307 103.912C169.353 104.488 170.163 105.352 170.739 106.504C171.337 107.635 171.635 109 171.635 110.6V121H167.155V111.208C167.155 109.8 166.803 108.723 166.099 107.976C165.395 107.208 164.435 106.824 163.219 106.824C161.982 106.824 161.001 107.208 160.275 107.976C159.571 108.723 159.219 109.8 159.219 111.208V121H154.739V97.32H159.219V105.48C159.795 104.712 160.563 104.115 161.523 103.688C162.483 103.24 163.55 103.016 164.723 103.016ZM174.743 112.072C174.743 110.28 175.095 108.691 175.799 107.304C176.525 105.917 177.496 104.851 178.712 104.104C179.949 103.357 181.325 102.984 182.84 102.984C184.162 102.984 185.314 103.251 186.296 103.784C187.298 104.317 188.098 104.989 188.696 105.8V103.272H193.208V121H188.696V118.408C188.12 119.24 187.32 119.933 186.296 120.488C185.293 121.021 184.13 121.288 182.808 121.288C181.314 121.288 179.949 120.904 178.712 120.136C177.496 119.368 176.525 118.291 175.799 116.904C175.095 115.496 174.743 113.885 174.743 112.072ZM188.696 112.136C188.696 111.048 188.482 110.12 188.056 109.352C187.629 108.563 187.053 107.965 186.328 107.56C185.602 107.133 184.824 106.92 183.992 106.92C183.16 106.92 182.392 107.123 181.688 107.528C180.984 107.933 180.408 108.531 179.96 109.32C179.533 110.088 179.32 111.005 179.32 112.072C179.32 113.139 179.533 114.077 179.96 114.888C180.408 115.677 180.984 116.285 181.688 116.712C182.413 117.139 183.181 117.352 183.992 117.352C184.824 117.352 185.602 117.149 186.328 116.744C187.053 116.317 187.629 115.72 188.056 114.952C188.482 114.163 188.696 113.224 188.696 112.136ZM207.407 103.016C209.519 103.016 211.226 103.688 212.527 105.032C213.828 106.355 214.479 108.211 214.479 110.6V121H209.999V111.208C209.999 109.8 209.647 108.723 208.943 107.976C208.239 107.208 207.279 106.824 206.063 106.824C204.826 106.824 203.844 107.208 203.119 107.976C202.415 108.723 202.063 109.8 202.063 111.208V121H197.583V103.272H202.063V105.48C202.66 104.712 203.418 104.115 204.335 103.688C205.274 103.24 206.298 103.016 207.407 103.016ZM225.683 102.984C227.006 102.984 228.169 103.251 229.171 103.784C230.174 104.296 230.963 104.968 231.539 105.8V103.272H236.051V121.128C236.051 122.771 235.721 124.232 235.059 125.512C234.398 126.813 233.406 127.837 232.083 128.584C230.761 129.352 229.161 129.736 227.283 129.736C224.766 129.736 222.697 129.149 221.075 127.976C219.475 126.803 218.569 125.203 218.355 123.176H222.803C223.038 123.987 223.539 124.627 224.307 125.096C225.097 125.587 226.046 125.832 227.155 125.832C228.457 125.832 229.513 125.437 230.323 124.648C231.134 123.88 231.539 122.707 231.539 121.128V118.376C230.963 119.208 230.163 119.901 229.139 120.456C228.137 121.011 226.985 121.288 225.683 121.288C224.19 121.288 222.825 120.904 221.587 120.136C220.35 119.368 219.369 118.291 218.643 116.904C217.939 115.496 217.587 113.885 217.587 112.072C217.587 110.28 217.939 108.691 218.643 107.304C219.369 105.917 220.339 104.851 221.555 104.104C222.793 103.357 224.169 102.984 225.683 102.984ZM231.539 112.136C231.539 111.048 231.326 110.12 230.899 109.352C230.473 108.563 229.897 107.965 229.171 107.56C228.446 107.133 227.667 106.92 226.835 106.92C226.003 106.92 225.235 107.123 224.531 107.528C223.827 107.933 223.251 108.531 222.803 109.32C222.377 110.088 222.163 111.005 222.163 112.072C222.163 113.139 222.377 114.077 222.803 114.888C223.251 115.677 223.827 116.285 224.531 116.712C225.257 117.139 226.025 117.352 226.835 117.352C227.667 117.352 228.446 117.149 229.171 116.744C229.897 116.317 230.473 115.72 230.899 114.952C231.326 114.163 231.539 113.224 231.539 112.136ZM256.907 111.752C256.907 112.392 256.864 112.968 256.779 113.48H243.819C243.925 114.76 244.373 115.763 245.163 116.488C245.952 117.213 246.923 117.576 248.075 117.576C249.739 117.576 250.923 116.861 251.627 115.432H256.459C255.947 117.139 254.965 118.547 253.515 119.656C252.064 120.744 250.283 121.288 248.171 121.288C246.464 121.288 244.928 120.915 243.563 120.168C242.219 119.4 241.163 118.323 240.395 116.936C239.648 115.549 239.275 113.949 239.275 112.136C239.275 110.301 239.648 108.691 240.395 107.304C241.141 105.917 242.187 104.851 243.531 104.104C244.875 103.357 246.421 102.984 248.171 102.984C249.856 102.984 251.36 103.347 252.683 104.072C254.027 104.797 255.061 105.832 255.787 107.176C256.533 108.499 256.907 110.024 256.907 111.752ZM252.267 110.472C252.245 109.32 251.829 108.403 251.019 107.72C250.208 107.016 249.216 106.664 248.043 106.664C246.933 106.664 245.995 107.005 245.227 107.688C244.48 108.349 244.021 109.277 243.851 110.472H252.267Z" fill="#1F1500"/>
</g>
<defs>
<linearGradient id="paint0_linear_1_1025" x1="947.299" y1="-8.47516e-06" x2="-13.3675" y2="181.287" gradientUnits="userSpaceOnUse">
<stop stop-color="#FFE2AA"/>
<stop offset="1" stop-color="#FFF3DD"/>
</linearGradient>
<clipPath id="clip0_1_1025">
<rect width="980" height="270" rx="20" fill="white"/>
</clipPath>
</defs>
</svg>
