<svg width="980" height="270" viewBox="0 0 980 270" fill="none" xmlns="http://www.w3.org/2000/svg">
<g clip-path="url(#clip0_1_1281)">
<rect width="980" height="270" rx="20" fill="url(#paint0_linear_1_1281)"/>
<path d="M527.688 83.4357C566.002 76.0055 604.791 71.2827 643.767 69.3024C648.645 69.0409 653.512 68.8704 658.39 68.6543C663.267 68.4383 668.145 68.4042 673.012 68.2677C677.878 68.1313 682.767 68.1882 687.645 68.1541C690.09 68.1541 692.523 68.1541 694.968 68.1541C697.412 68.1541 699.868 68.3246 702.302 68.5179C712.046 69.2797 721.722 70.701 731.341 72.3042C740.96 73.9074 750.557 75.7153 760.108 77.6937C798.312 85.6529 836.175 95.1016 873.924 104.914C892.784 109.849 911.621 114.905 930.435 120.082C949.248 125.259 968.006 130.596 986.706 136.091C967.937 130.785 949.131 125.623 930.287 120.605C911.442 115.587 892.59 110.599 873.731 105.642C835.959 95.9543 798.096 86.608 759.892 78.7966C750.341 76.875 740.779 74.9762 731.171 73.3616C721.563 71.7471 711.921 70.2803 702.222 69.4957C699.804 69.2911 697.382 69.1622 694.956 69.1092C692.523 69.1092 690.079 69.1092 687.645 69.1092C682.779 69.1092 677.901 69.0296 673.035 69.1774C668.168 69.3252 663.29 69.3138 658.412 69.5071C653.535 69.7004 648.679 69.8596 643.813 70.0984C624.339 71.0686 604.915 72.6794 585.54 74.9307C566.143 77.1024 546.813 79.7858 527.688 83.4357Z" fill="#F6EFE0"/>
<path d="M530.804 58.1825C550.133 57.6936 569.463 57.3752 588.792 57.1251C608.122 56.8749 627.451 56.8635 646.781 56.8635L675.786 56.9659L690.283 57.0682C692.705 57.0682 695.116 57.0682 697.537 57.1705C699.959 57.2729 702.381 57.3183 704.792 57.5003C714.456 58.137 724.121 59.1944 733.672 60.4338C743.223 61.6731 752.842 63.0148 762.393 64.5271C800.586 70.5647 838.574 77.7621 876.528 85.1868C895.479 88.9315 914.429 92.767 933.379 96.6935C952.33 100.62 971.231 104.683 990.083 108.882C971.132 104.903 952.182 101.018 933.232 97.228C914.281 93.4379 895.331 89.6705 876.38 85.9259C838.426 78.6489 800.37 71.5539 762.212 65.6527C752.672 64.1632 743.109 62.7533 733.536 61.4912C723.962 60.2291 714.354 59.1489 704.735 58.4781C702.324 58.2848 699.925 58.2052 697.515 58.1256C695.104 58.046 692.682 58.046 690.272 58.0006L675.775 57.8414L646.781 57.6481C627.451 57.5799 608.122 57.6026 588.792 57.7163C569.463 57.7731 550.133 57.8982 530.804 58.1825Z" fill="#F6EFE0"/>
<path d="M534.408 29.0518L592.01 33.5999L649.589 38.3185L678.378 40.6722C687.975 41.4681 697.583 42.173 707.168 43.185C711.966 43.6171 716.742 44.2424 721.529 44.7655C726.315 45.2885 731.102 45.9025 735.878 46.471C745.436 47.6459 754.987 48.8663 764.531 50.1322C802.712 55.2602 840.837 60.7634 878.95 66.3348L936.097 74.8057L993.198 83.6063L878.825 67.0512C840.7 61.6048 802.564 56.2267 764.372 51.2238C745.292 48.7109 726.19 46.1867 707.054 44.1287C697.492 43.094 687.884 42.3436 678.299 41.5136L649.509 39.0576L591.953 34.1456L534.408 29.0518Z" fill="#F6EFE0"/>
<path d="M539.423 -11.4946C557.945 -6.05964 576.626 -1.1818 595.353 3.45727C614.08 8.09633 632.875 12.5535 651.761 16.5103L665.928 19.4439L680.13 22.2409C684.86 23.1847 689.612 24.0033 694.354 24.9016C699.095 25.7998 703.848 26.6071 708.612 27.3234C727.68 30.1888 746.873 32.2922 766.055 34.3844C804.429 38.5459 842.872 42.0707 881.326 45.4476L939.019 50.3141L996.734 55.0555L938.974 50.8599C919.735 49.3438 900.497 47.7861 881.258 46.1867C842.793 42.9462 804.338 39.5351 765.941 35.4987C756.337 34.4829 746.744 33.38 737.163 32.1899C727.578 31.0529 718.004 29.7567 708.464 28.2785C703.689 27.5508 698.925 26.7094 694.183 25.7998C689.442 24.8902 684.689 24.0602 679.959 23.0937L665.769 20.2511L651.59 17.2494C613.898 9.09691 576.376 -0.329032 539.423 -11.4946Z" fill="#F6EFE0"/>
<path d="M544.164 -49.835C561.515 -40.7388 579.116 -32.1921 596.968 -24.195C614.773 -16.0994 632.807 -8.45858 651.17 -1.72739C669.533 5.00381 688.282 10.7799 707.6 13.8499C726.918 16.9198 746.35 19.1484 765.816 21.0018C804.778 24.6175 843.816 27.0015 882.93 28.1537C892.708 28.5175 902.486 28.6198 912.265 28.8245L926.944 28.9041H934.278L941.612 28.8359C961.18 28.6767 980.759 28.2333 1000.24 26.2662C980.782 28.4152 961.191 29.0405 941.623 29.3817L934.289 29.4954H926.944H912.265C902.475 29.3248 892.685 29.2452 882.907 28.9268C843.77 27.8808 804.691 25.6067 765.668 22.1047C746.179 20.1831 726.714 18 707.396 14.7481C688.077 11.4962 669.226 5.65192 650.863 -1.05654C614.205 -14.7008 578.741 -31.4947 544.164 -49.835Z" fill="#F6EFE0"/>
<path d="M741.768 37.2498C741.289 38.2631 740.522 39.1123 739.563 39.691C738.603 40.2696 737.494 40.5518 736.375 40.5021C735.255 40.4524 734.175 40.073 733.271 39.4116C732.367 38.7502 731.678 37.8363 731.291 36.7846C730.904 35.733 730.837 34.5905 731.097 33.5007C731.358 32.4109 731.935 31.4224 732.755 30.6594C733.576 29.8963 734.604 29.3928 735.709 29.212C736.815 29.0311 737.95 29.1811 738.971 29.6431C739.658 29.9541 740.276 30.3987 740.79 30.9511C741.304 31.5035 741.702 32.1526 741.963 32.8605C742.223 33.5685 742.34 34.3212 742.306 35.0748C742.273 35.8283 742.09 36.5677 741.768 37.2498Z" fill="#F6EFE0"/>
<path d="M753.959 11.0811L749.991 9.23315L737.833 35.342L741.801 37.1899L753.959 11.0811Z" fill="#F6EFE0"/>
<path d="M762.086 37.5227C761.606 38.5356 760.837 39.3839 759.876 39.961C758.915 40.538 757.805 40.8181 756.685 40.766C755.565 40.7138 754.486 40.3319 753.583 39.668C752.679 39.0042 751.992 38.0881 751.608 37.035C751.224 35.9819 751.16 34.8387 751.424 33.7492C751.688 32.6597 752.268 31.6725 753.091 30.9117C753.914 30.1509 754.944 29.6505 756.051 29.4733C757.158 29.2961 758.292 29.4502 759.312 29.916C759.997 30.2291 760.613 30.6752 761.125 31.2285C761.636 31.7818 762.032 32.4312 762.29 33.139C762.548 33.8468 762.663 34.5988 762.628 35.3513C762.593 36.1039 762.409 36.842 762.086 37.5227Z" fill="#F6EFE0"/>
<path d="M774.276 11.3553L770.307 9.50732L758.149 35.6161L762.118 37.4641L774.276 11.3553Z" fill="#F6EFE0"/>
<path d="M774.253 11.4165L748.351 12.724L749.977 9.23335L775.878 7.92578L774.253 11.4165Z" fill="#F6EFE0"/>
<path d="M771.183 17.9885L745.292 19.3074L746.918 15.8167L772.809 14.4978L771.183 17.9885Z" fill="#F6EFE0"/>
<path d="M953.38 103.209C952.976 104.077 952.324 104.807 951.505 105.305C950.687 105.803 949.74 106.047 948.783 106.006C947.826 105.966 946.902 105.643 946.129 105.077C945.356 104.512 944.767 103.73 944.438 102.831C944.109 101.931 944.054 100.954 944.28 100.023C944.507 99.0926 945.004 98.2498 945.709 97.6015C946.414 96.9531 947.295 96.5284 948.242 96.381C949.188 96.2335 950.157 96.37 951.026 96.7732C952.19 97.3165 953.091 98.2987 953.532 99.5049C953.973 100.711 953.918 102.043 953.38 103.209Z" fill="#F6EFE0"/>
<path d="M963.68 81.0705L960.331 79.5105L950.049 101.589L953.399 103.149L963.68 81.0705Z" fill="#F6EFE0"/>
<path d="M970.56 103.447C970.156 104.316 969.502 105.045 968.683 105.542C967.864 106.039 966.916 106.282 965.959 106.24C965.002 106.199 964.079 105.874 963.306 105.308C962.533 104.741 961.946 103.958 961.618 103.058C961.291 102.158 961.237 101.18 961.465 100.25C961.693 99.3191 962.192 98.477 962.898 97.8298C963.604 97.1826 964.487 96.7594 965.434 96.6139C966.381 96.4683 967.35 96.6068 968.218 97.0119C969.382 97.5549 970.282 98.5379 970.722 99.7447C971.161 100.952 971.103 102.283 970.56 103.447Z" fill="#F6EFE0"/>
<path d="M980.859 81.3129L977.509 79.7529L967.227 101.832L970.577 103.391L980.859 81.3129Z" fill="#F6EFE0"/>
<path d="M980.85 81.3664L958.951 82.4693L960.327 79.5245L982.226 78.4102L980.85 81.3664Z" fill="#F6EFE0"/>
<path d="M629.691 13.0652C629.287 13.9338 628.635 14.6632 627.817 15.1612C626.999 15.6591 626.051 15.9033 625.094 15.8628C624.137 15.8224 623.214 15.4991 622.44 14.9338C621.667 14.3685 621.079 13.5867 620.75 12.6871C620.421 11.7875 620.366 10.8106 620.592 9.87982C620.818 8.94905 621.315 8.10622 622.02 7.45788C622.725 6.80955 623.607 6.38483 624.553 6.23741C625.5 6.08998 626.469 6.22648 627.338 6.62964C628.501 7.17292 629.402 8.15517 629.843 9.36134C630.285 10.5675 630.23 11.8993 629.691 13.0652Z" fill="#F6EFE0"/>
<path d="M639.984 -9.05747L636.634 -10.6174L626.352 11.4612L629.702 13.0211L639.984 -9.05747Z" fill="#F6EFE0"/>
<path d="M646.872 13.3039C646.467 14.1723 645.814 14.9012 644.995 15.3984C644.176 15.8955 643.228 16.1386 642.27 16.0969C641.313 16.0552 640.39 15.7306 639.617 15.1641C638.845 14.5976 638.257 13.8147 637.93 12.9144C637.602 12.0141 637.549 11.0368 637.776 10.1062C638.004 9.17558 638.503 8.33341 639.209 7.68622C639.916 7.03903 640.798 6.61589 641.745 6.47031C642.692 6.32473 643.661 6.46325 644.529 6.86836C645.107 7.13606 645.625 7.51513 646.056 7.98383C646.486 8.45253 646.82 9.00162 647.037 9.59958C647.255 10.1975 647.352 10.8326 647.324 11.4683C647.295 12.104 647.142 12.7278 646.872 13.3039Z" fill="#F6EFE0"/>
<path d="M657.178 -8.82529L653.828 -10.3853L643.547 11.6934L646.897 13.2533L657.178 -8.82529Z" fill="#F6EFE0"/>
<path d="M852.548 80.5591C852.068 81.572 851.299 82.4203 850.338 82.9973C849.377 83.5744 848.267 83.8545 847.147 83.8023C846.027 83.7502 844.948 83.3682 844.044 82.7044C843.141 82.0405 842.454 81.1245 842.07 80.0713C841.686 79.0182 841.622 77.8751 841.886 76.7856C842.149 75.6961 842.729 74.7089 843.553 73.9481C844.376 73.1873 845.406 72.6868 846.513 72.5097C847.62 72.3325 848.754 72.4865 849.774 72.9524C850.459 73.2655 851.075 73.7116 851.587 74.2649C852.098 74.8182 852.494 75.4676 852.752 76.1754C853.01 76.8832 853.125 77.6352 853.09 78.3877C853.055 79.1403 852.871 79.8784 852.548 80.5591Z" fill="#F6EFE0"/>
<path d="M864.739 54.3997L860.771 52.5518L848.612 78.6606L852.581 80.5085L864.739 54.3997Z" fill="#F6EFE0"/>
<path d="M881.344 53.9407L877.376 52.0928L873.862 59.6378L877.831 61.4858L881.344 53.9407Z" fill="#F6EFE0"/>
<path d="M880.871 54.9533L859.143 56.0449L860.769 52.5542L882.497 51.4626L880.871 54.9533Z" fill="#F6EFE0"/>
<path d="M877.802 61.5366L856.073 62.6167L857.699 59.1261L879.428 58.0459L877.802 61.5366Z" fill="#F6EFE0"/>
<path d="M792.877 254.3L784.61 255.865L794.912 310.283L803.179 308.718L792.877 254.3Z" fill="#F6EFE0"/>
<path d="M818.264 235.028L809.996 236.592L812.971 252.322L821.239 250.759L818.264 235.028Z" fill="#F6EFE0"/>
<path d="M818.688 237.093L785.964 263.165L784.588 255.888L817.312 229.816L818.688 237.093Z" fill="#F6EFE0"/>
<path d="M821.28 250.806L788.556 276.878L787.181 269.601L819.904 243.529L821.28 250.806Z" fill="#F6EFE0"/>
<path d="M920.895 30.7572C920.626 31.4151 920.168 31.9786 919.579 32.3763C918.99 32.774 918.297 32.9881 917.586 32.9916C916.876 32.9951 916.18 32.7878 915.587 32.3958C914.994 32.0039 914.531 31.445 914.256 30.7897C913.981 30.1345 913.906 29.4124 914.041 28.7147C914.177 28.017 914.516 27.3752 915.016 26.8702C915.516 26.3653 916.154 26.0201 916.851 25.8781C917.547 25.7361 918.27 25.8038 918.928 26.0727C919.808 26.4355 920.509 27.1318 920.877 28.0094C921.246 28.8871 921.252 29.8749 920.895 30.7572Z" fill="#F6EFE0"/>
<path d="M927.771 14.0344L925.236 12.9941L918.378 29.709L920.913 30.7493L927.771 14.0344Z" fill="#F6EFE0"/>
<path d="M938.175 13.2551L935.64 12.2148L933.658 17.0431L936.194 18.0834L938.175 13.2551Z" fill="#F6EFE0"/>
<path d="M937.928 13.884L924.34 15.1916L925.261 12.963L938.849 11.644L937.928 13.884Z" fill="#F6EFE0"/>
<path d="M936.199 18.0909L922.612 19.4098L923.533 17.1699L937.12 15.8623L936.199 18.0909Z" fill="#F6EFE0"/>
<path d="M609.429 72.6794C609.16 73.3373 608.701 73.9003 608.111 74.2973C607.522 74.6944 606.827 74.9076 606.116 74.9099C605.406 74.9122 604.71 74.7035 604.118 74.3104C603.525 73.9172 603.063 73.3571 602.789 72.7011C602.515 72.045 602.442 71.3225 602.579 70.6249C602.716 69.9273 603.057 69.286 603.558 68.7821C604.06 68.2782 604.7 67.9345 605.397 67.7944C606.093 67.6542 606.816 67.724 607.474 67.9949C608.354 68.3575 609.054 69.0544 609.42 69.9327C609.787 70.8109 609.79 71.7988 609.429 72.6794Z" fill="#F6EFE0"/>
<path d="M616.283 55.9267L613.748 54.8865L606.89 71.6014L609.425 72.6416L616.283 55.9267Z" fill="#F6EFE0"/>
<path d="M626.688 55.1545L624.153 54.1143L622.172 58.9425L624.707 59.9828L626.688 55.1545Z" fill="#F6EFE0"/>
<path d="M626.439 55.8061L612.852 57.1137L613.773 54.8851L627.36 53.5662L626.439 55.8061Z" fill="#F6EFE0"/>
<path d="M624.711 60.013L611.124 61.332L612.033 59.092L625.621 57.7844L624.711 60.013Z" fill="#F6EFE0"/>
<path d="M764.667 81.3094C764.397 81.966 763.938 82.5277 763.349 82.9236C762.759 83.3196 762.066 83.532 761.356 83.5341C760.646 83.5363 759.951 83.328 759.359 82.9356C758.768 82.5432 758.306 81.9842 758.031 81.3293C757.757 80.6744 757.683 79.953 757.818 79.256C757.954 78.559 758.292 77.9177 758.792 77.4132C759.292 76.9086 759.929 76.5634 760.625 76.4211C761.321 76.2787 762.043 76.3457 762.7 76.6135C763.139 76.792 763.537 77.0551 763.873 77.3879C764.209 77.7208 764.476 78.1167 764.659 78.553C764.842 78.9893 764.937 79.4574 764.938 79.9304C764.94 80.4034 764.848 80.8721 764.667 81.3094Z" fill="#F6EFE0"/>
<path d="M771.509 64.5651L768.974 63.5249L762.116 80.2398L764.651 81.28L771.509 64.5651Z" fill="#F6EFE0"/>
<path d="M781.913 63.7971L779.378 62.7568L777.397 67.5851L779.932 68.6254L781.913 63.7971Z" fill="#F6EFE0"/>
<path d="M781.666 64.4246L768.079 65.7436L769 63.515L782.587 62.196L781.666 64.4246Z" fill="#F6EFE0"/>
<path d="M779.938 68.643L766.35 69.962L767.271 67.722L780.859 66.4031L779.938 68.643Z" fill="#F6EFE0"/>
<path d="M583.437 18.216C582.812 18.8248 582.055 19.2795 581.224 19.544C580.393 19.8085 579.511 19.8755 578.65 19.7396C576.911 19.5935 575.239 19.0022 573.795 18.0227C572.33 17.0347 571.197 15.628 570.543 13.9862C569.919 12.3246 569.758 10.5247 570.077 8.77864C570.605 5.24553 572.505 2.06306 575.364 -0.0787933C578.361 -2.11045 582.033 -2.88985 585.597 -2.25052C589.133 -1.69427 592.406 -0.0440767 594.955 2.46814C597.546 5.01085 599.136 8.40095 599.435 12.0192C599.608 15.5731 599.039 19.1241 597.763 22.4457C596.528 25.8206 594.454 28.8256 591.737 31.1781C588.947 33.5107 585.545 34.9909 581.936 35.4419C578.378 35.8573 574.772 35.5475 571.336 34.5313C567.901 33.5151 564.707 31.8136 561.947 29.5294C559.191 27.2073 556.986 24.3025 555.489 21.0244C553.995 17.737 553.275 14.1504 553.385 10.541C553.526 6.95138 554.404 3.42918 555.966 0.194091C557.521 -3.00503 559.578 -5.93407 562.061 -8.48142C564.496 -10.9811 567.11 -13.2992 569.884 -15.4173C575.341 -19.6584 581.072 -23.3765 586.177 -27.845C588.73 -30.0077 591.057 -32.4229 593.124 -35.0537C595.163 -37.5808 596.51 -40.5935 597.036 -43.7974C597.234 -45.3113 597.022 -46.8506 596.422 -48.2546C596.141 -48.9093 595.728 -49.4994 595.21 -49.9884C594.692 -50.4773 594.079 -50.8547 593.409 -51.0972C592.744 -51.3059 592.039 -51.355 591.351 -51.2404C590.664 -51.1258 590.013 -50.8508 589.452 -50.4377C588.232 -49.5199 587.288 -48.2849 586.723 -46.8674C585.656 -43.7026 584.936 -40.4317 584.574 -37.1117C584.085 -33.7007 583.676 -30.3464 583.289 -26.9467C581.788 -13.3024 580.674 0.341901 579.264 13.9862C578.525 20.8084 577.74 27.6305 576.728 34.4527C576.217 37.8638 575.591 41.2748 574.898 44.595C574.553 46.2817 574.078 47.9392 573.477 49.5524C573.097 50.3304 572.567 51.0254 571.917 51.5972C571.267 52.169 570.51 52.6064 569.69 52.8839C570.489 52.5834 571.22 52.1271 571.841 51.5415C572.461 50.9559 572.96 50.2527 573.306 49.4728C573.846 47.8507 574.26 46.1895 574.545 44.504C575.193 41.0929 575.682 37.7614 576.092 34.3617C576.922 27.5396 577.524 20.7174 578.081 13.8953C579.219 0.250945 580.174 -13.3934 581.493 -27.1173C581.822 -30.5283 582.175 -33.9394 582.63 -37.3505C582.857 -39.056 583.13 -40.7616 583.448 -42.4785C583.736 -44.2451 584.212 -45.9757 584.87 -47.6406C585.561 -49.4448 586.742 -51.02 588.281 -52.1887C589.109 -52.7905 590.067 -53.1903 591.078 -53.3562C592.089 -53.522 593.125 -53.4493 594.102 -53.1438C595.055 -52.8129 595.931 -52.29 596.674 -51.6075C597.417 -50.925 598.012 -50.0973 598.423 -49.1756C599.201 -47.4205 599.484 -45.4859 599.242 -43.5814C598.71 -39.9741 597.231 -36.5725 594.955 -33.7234C592.818 -30.9517 590.403 -28.4066 587.746 -26.1281C582.516 -21.58 576.774 -17.7141 571.419 -13.5412C566.063 -9.3683 560.867 -4.80883 558.024 1.16056C556.584 4.11246 555.764 7.32812 555.614 10.6093C555.501 13.8786 556.139 17.1305 557.479 20.1148C558.825 23.1088 560.826 25.7626 563.334 27.8807C565.849 30.0053 568.776 31.5884 571.93 32.5311C575.09 33.478 578.406 33.7872 581.686 33.4407C584.935 33.0991 588.015 31.8235 590.555 29.7681C595.626 25.6407 598.127 18.6708 597.957 12.1442C597.727 8.85545 596.328 5.75756 594.011 3.41188C591.672 1.04854 588.664 -0.539126 585.393 -1.13623C583.763 -1.51566 582.073 -1.55277 580.429 -1.24521C578.785 -0.937649 577.222 -0.292109 575.84 0.650542C574.458 1.59319 573.287 2.81244 572.401 4.23112C571.514 5.6498 570.932 7.23702 570.691 8.89234C570.349 10.5411 570.467 12.2522 571.032 13.8384C571.616 15.4147 572.662 16.778 574.034 17.7498C575.412 18.7345 577.022 19.3456 578.707 19.5235C579.543 19.6837 580.404 19.6491 581.225 19.4224C582.045 19.1956 582.802 18.7828 583.437 18.216Z" fill="#F6EFE0"/>
<path d="M572.965 50.2233C572.385 51.1816 571.534 51.9471 570.52 52.4237C569.506 52.9003 568.374 53.0667 567.266 52.902C566.158 52.7373 565.123 52.2489 564.292 51.4981C563.46 50.7473 562.869 49.7675 562.593 48.6819C562.316 47.5962 562.367 46.4531 562.738 45.396C563.109 44.3389 563.784 43.4149 564.678 42.7402C565.572 42.0655 566.646 41.67 567.764 41.6035C568.883 41.537 569.996 41.8024 570.964 42.3664C571.616 42.7463 572.186 43.2523 572.64 43.8547C573.095 44.4572 573.425 45.1441 573.611 45.8754C573.797 46.6068 573.836 47.3678 573.725 48.1143C573.614 48.8608 573.356 49.5777 572.965 50.2233Z" fill="#F6EFE0"/>
<path d="M728.999 315.435C726.028 325.293 720.201 334.049 712.254 340.596C704.307 347.143 694.598 351.187 684.353 352.216C674.108 353.245 663.788 351.214 654.698 346.378C645.607 341.543 638.155 334.12 633.282 325.05C628.41 315.979 626.337 305.668 627.324 295.419C628.312 285.17 632.316 275.444 638.831 267.47C645.346 259.497 654.078 253.634 663.925 250.624C673.771 247.613 684.289 247.589 694.149 250.556C700.698 252.526 706.795 255.768 712.091 260.095C717.387 264.422 721.779 269.75 725.015 275.775C728.251 281.8 730.269 288.404 730.952 295.209C731.636 302.013 730.972 308.886 728.999 315.435Z" fill="#FF66AF"/>
<path d="M804.619 64.226L766.536 52.7568L691.049 303.414L729.132 314.883L804.619 64.226Z" fill="#FF66AF"/>
<path d="M912.231 291.5C909.261 301.363 903.434 310.123 895.486 316.673C887.537 323.223 877.825 327.27 867.577 328.3C857.329 329.331 847.006 327.3 837.912 322.463C828.819 317.626 821.364 310.202 816.49 301.129C811.616 292.055 809.542 281.74 810.531 271.488C811.519 261.236 815.526 251.507 822.043 243.532C828.561 235.557 837.297 229.694 847.147 226.684C856.997 223.674 867.519 223.652 877.381 226.622C883.93 228.592 890.027 231.833 895.323 236.161C900.619 240.488 905.01 245.816 908.247 251.841C911.483 257.866 913.501 264.47 914.184 271.274C914.868 278.079 914.204 284.952 912.231 291.5Z" fill="#FF66AF"/>
<path d="M987.88 40.2471L949.795 28.7847L874.351 279.455L912.437 290.918L987.88 40.2471Z" fill="#FF66AF"/>
<path d="M987.752 40.786L756.458 86.2557L766.544 52.7361L997.838 7.27783L987.752 40.786Z" fill="#FF66AF"/>
<path d="M968.73 103.948L737.447 149.418L747.533 115.909L978.815 70.4397L968.73 103.948Z" fill="#FF66AF"/>
<path d="M543.3 111.293C542.722 112.531 541.789 113.569 540.62 114.276C539.451 114.983 538.099 115.328 536.734 115.266C535.37 115.204 534.054 114.738 532.954 113.928C531.854 113.118 531.02 112 530.556 110.715C530.092 109.43 530.02 108.036 530.348 106.71C530.677 105.384 531.392 104.186 532.402 103.266C533.413 102.347 534.673 101.748 536.024 101.546C537.375 101.343 538.756 101.546 539.991 102.129C541.641 102.91 542.915 104.312 543.534 106.029C544.154 107.746 544.07 109.638 543.3 111.293Z" fill="#FF66AF"/>
<path d="M557.974 79.7602L553.19 77.5364L538.563 109.005L543.347 111.229L557.974 79.7602Z" fill="#FF66AF"/>
<path d="M567.78 111.623C567.205 112.861 566.275 113.901 565.108 114.61C563.942 115.32 562.591 115.667 561.227 115.609C559.863 115.551 558.547 115.09 557.445 114.283C556.343 113.477 555.505 112.362 555.038 111.079C554.57 109.796 554.493 108.403 554.817 107.077C555.14 105.751 555.85 104.55 556.856 103.627C557.863 102.704 559.12 102.101 560.47 101.893C561.819 101.685 563.2 101.881 564.437 102.458C566.095 103.231 567.378 104.63 568.005 106.349C568.632 108.067 568.551 109.964 567.78 111.623Z" fill="#FF66AF"/>
<path d="M582.435 80.0838L577.651 77.8591L563.018 109.325L567.802 111.55L582.435 80.0838Z" fill="#FF66AF"/>
<path d="M582.425 80.1385L551.225 81.7417L553.181 77.5461L584.381 75.9429L582.425 80.1385Z" fill="#FF66AF"/>
<path d="M647.019 45.88C647.101 48.0641 646.533 50.2234 645.388 52.0849C644.242 53.9464 642.571 55.4264 640.584 56.3379C638.597 57.2493 636.385 57.5513 634.227 57.2056C632.069 56.8598 630.062 55.882 628.459 54.3956C626.857 52.9092 625.731 50.981 625.224 48.8549C624.718 46.7287 624.853 44.5001 625.613 42.4507C626.372 40.4014 627.723 38.6233 629.493 37.3414C631.263 36.0595 633.374 35.3313 635.558 35.2488C637.009 35.1925 638.457 35.423 639.819 35.9271C641.181 36.4312 642.43 37.199 643.494 38.1866C644.559 39.1741 645.418 40.362 646.023 41.6821C646.628 43.0023 646.967 44.4288 647.019 45.88Z" fill="#6D5629"/>
<path d="M644.917 -9.76525L636.487 -9.4458L638.59 46.0581L647.02 45.7386L644.917 -9.76525Z" fill="#6D5629"/>
<path d="M673.626 -9.00441L637.287 11.9737L637.014 4.54894L673.342 -16.4292L673.626 -9.00441Z" fill="#6D5629"/>
<path d="M527.871 180.106C531.066 182.38 633.034 214.035 637.673 212.784C638.185 212.636 639.254 208.054 643.859 196.672C644.075 196.126 647.008 194.557 651.488 192.442C668.316 184.483 707.111 168.565 707.111 168.565L667.315 110.349L604.574 146.325L588.258 155.682C588.258 155.682 540.855 164.676 535.898 166.586C530.94 168.497 524.675 177.82 527.871 180.106Z" fill="#F7A9A0"/>
<path d="M527.87 180.117C531.066 182.391 633.034 214.035 637.673 212.784C638.185 212.636 639.254 208.054 643.859 196.672C628.509 195.046 548.78 178.48 548.473 168.542C548.36 164.62 561.799 161.027 564.221 160.413C551.714 162.903 538.422 165.654 535.932 166.621C530.997 168.554 524.675 177.82 527.87 180.117Z" fill="#1F1500"/>
<path d="M628.804 128.235L634.376 139.377L662.142 194.989C662.142 194.989 727.066 169.622 746.509 160.742C747.135 160.458 798.437 221.493 842.235 242.153C875.8 257.992 903.305 250.965 925.761 221.687L874.186 180.583C831.593 143.664 786.544 90.8605 752.172 86.2101C714.832 81.0707 628.804 128.235 628.804 128.235Z" fill="#1F1500"/>
<path d="M642.13 128.201C647.952 139.127 646.428 135.91 652.136 146.905C654.933 152.283 669.044 179.299 670.817 184.745C670.817 184.87 670.67 184.961 670.601 184.859C667.19 180.208 653.717 152.897 651.022 147.473C645.519 136.376 647.213 139.514 641.823 128.348C641.812 128.328 641.806 128.306 641.803 128.283C641.801 128.26 641.804 128.237 641.811 128.215C641.818 128.193 641.83 128.172 641.845 128.155C641.86 128.138 641.879 128.124 641.899 128.114C641.92 128.104 641.943 128.098 641.966 128.097C641.989 128.096 642.012 128.1 642.033 128.108C642.055 128.116 642.075 128.128 642.091 128.144C642.108 128.16 642.121 128.179 642.13 128.201Z" fill="#6D5629"/>
<path d="M638.787 148.224L662.13 194.99C662.13 194.99 727.077 169.634 746.509 160.742C747.135 160.458 798.437 221.494 842.224 242.153C875.8 257.992 903.316 250.965 925.75 221.687L874.186 180.572C868.501 175.683 862.816 170.521 857.13 165.234C803.486 161.14 685.917 151.93 638.787 148.224Z" fill="#6D5629"/>
<path d="M553.317 305.622C557.104 306.668 663.722 301.074 667.645 298.345C668.066 298.027 667.486 293.354 667.873 281.085C667.873 280.505 670.147 278.015 673.558 274.479C686.611 261.21 717.538 232.887 717.538 232.887L660.095 191.954L613.671 247.429L601.584 261.847C601.584 261.847 560.208 286.725 556.217 290.136C552.226 293.547 549.52 304.565 553.317 305.622Z" fill="#F7A9A0"/>
<path d="M939.167 176.797C939.167 176.797 951.094 218.674 930.571 239.049C915.79 253.728 894.834 257.071 876.335 256.252C825.226 253.978 776.606 197.207 759.528 195.581C750.762 194.751 689.601 268.202 689.601 268.202L632.09 222.426C644.325 209.521 716.23 121.23 756.458 117.319C783.986 114.647 859.348 165.074 860.962 164.256C863.612 162.891 875.255 155.842 875.255 155.842L939.167 176.797Z" fill="#1F1500"/>
<path d="M642.244 216.002C649.35 220.902 656.082 226.337 662.87 231.624C669.658 236.911 676.355 242.21 682.995 247.611C686.77 250.681 690.522 253.762 694.172 256.957C694.263 257.037 694.172 257.162 694.047 257.094C687.009 252.091 680.209 246.781 673.41 241.482C666.61 236.184 659.925 230.897 653.262 225.564C649.498 222.505 645.678 219.458 642.073 216.229C641.96 216.081 642.108 215.911 642.244 216.002Z" fill="#6D5629"/>
<path d="M896.756 174.262C896.824 174.023 897.188 174.159 897.154 174.387C896.262 180.924 897.703 187.567 901.224 193.148C905.261 199.333 911.901 203.381 917.859 207.508C918.439 207.895 917.859 208.793 917.222 208.52C913.457 206.773 909.893 204.623 906.591 202.107C903.547 199.907 900.982 197.11 899.053 193.887C897.328 190.954 896.233 187.695 895.837 184.316C895.442 180.937 895.755 177.513 896.756 174.262Z" fill="#6D5629"/>
<path d="M860.451 168.633C861.883 167.337 863.418 166.132 864.896 164.881C868.398 161.925 871.923 158.957 875.539 156.149C875.891 155.887 876.369 156.433 876.051 156.728C873.538 159.059 870.911 161.277 868.33 163.551C867.004 164.703 865.67 165.84 864.328 166.962C862.971 167.976 861.715 169.118 860.576 170.373C859.53 171.714 860.348 173.17 861.861 173.602C863.22 173.877 864.634 173.617 865.806 172.874C868.535 171.453 870.877 169.145 873.265 167.189C874.732 166.052 876.187 164.915 877.665 163.71C879.143 162.505 880.883 161.367 882.452 160.162C882.554 160.083 882.691 160.242 882.6 160.321C881.179 161.709 879.826 163.175 878.393 164.551C876.96 165.927 875.528 167.291 874.072 168.644C872.617 169.998 871.275 171.157 869.831 172.351C868.618 173.425 867.235 174.29 865.738 174.909C863.316 175.83 859.439 175.444 858.757 172.385C858.68 171.666 858.797 170.939 859.094 170.279C859.392 169.62 859.86 169.051 860.451 168.633Z" fill="#6D5629"/>
<path d="M690.624 250.454C705.338 233.466 745.395 189.975 754.684 182.448C755.626 181.705 756.711 181.163 757.871 180.856C759.03 180.549 760.241 180.483 761.427 180.663C764.042 181.038 766.282 182.744 768.454 184.142L776.22 189.145L792.138 199.458C802.11 205.905 812.025 212.431 822.076 218.787C830.957 224.567 840.262 229.668 849.91 234.046C868.467 242.119 891.309 246.213 909.888 235.9C918.303 231.115 924.695 223.439 927.876 214.296C931.219 205.2 932.038 195.285 932.186 185.62C932.186 183.278 932.186 180.94 932.186 178.605C932.186 178.48 932.367 178.469 932.367 178.605C933.22 196.729 932.367 217.912 918.268 231.249C903.282 245.417 880.258 245.439 861.622 239.811C840.746 233.501 822.508 220.732 804.384 208.998L772.729 188.372C770.171 186.712 767.647 184.961 765.031 183.403C762.416 181.845 759.403 180.765 756.765 182.664C747.987 188.975 692.989 248.725 691.045 250.806C690.806 251.056 690.397 250.715 690.624 250.454Z" fill="#6D5629"/>
<path d="M820.109 141.004C805.623 132.635 790.614 124.983 774.628 119.673C770.619 118.313 766.493 117.327 762.303 116.728C760.175 116.419 758.017 116.377 755.878 116.603C753.754 116.852 751.657 117.293 749.613 117.922C741.461 120.435 734.093 124.744 727.043 129.292C720.08 133.99 713.374 139.057 706.952 144.472C700.528 149.872 694.263 155.455 688.248 161.288C676.174 172.916 664.709 185.159 653.898 197.969C659.584 191.806 665.269 185.689 671.17 179.776C677.071 173.864 682.995 167.94 689.112 162.243C701.369 150.873 714.036 139.889 727.953 130.691C734.889 126.143 742.166 121.879 750.045 119.4C753.933 118.095 758.064 117.683 762.132 118.195C766.24 118.773 770.293 119.686 774.253 120.924C782.214 123.46 790.007 126.498 797.584 130.02C805.225 133.34 812.718 137.069 820.109 141.004Z" fill="#6D5629"/>
<path d="M874.914 100.082C874.895 100.268 874.944 100.455 875.053 100.608C875.162 100.761 875.322 100.869 875.505 100.912L878.541 101.116C881.383 93.5097 884.419 87.4721 883.612 89.8258C882.388 93.5385 881.688 97.4037 881.531 101.31C882.873 101.389 885.977 101.537 887.535 101.605C890.116 88.2339 893.299 78.3077 893.072 81.3663C892.105 93.7144 892.731 97.6826 893.458 101.912C907.956 102.606 926.967 103.288 940.725 103.47C942.43 96.0681 943.942 88.0634 944.136 88.6205C945.944 92.8048 946.353 98.8538 946.319 103.527C950.708 103.527 954.21 103.527 956.347 103.334C956.347 103.334 957.484 97.1141 957.644 95.0675C958.124 89.8398 957.689 84.5685 956.359 79.4902C954.983 74.3168 952.538 69.7345 950.219 65.05C950.207 65.0124 950.188 64.9776 950.162 64.9476C948.633 61.8757 947.454 58.6414 946.649 55.3057C946.652 55.2793 946.652 55.2525 946.649 55.2261C946.105 52.7913 945.767 50.3153 945.637 47.824C945.148 38.7278 940.463 30.7686 932.481 28.4036C917.575 13.1675 902.305 19.6144 897.529 31.3372C897.074 32.4742 896.619 33.7818 896.187 35.2144C894.55 40.4902 893.049 47.3465 891.639 52.6337C891.639 52.6337 891.639 52.6337 891.639 52.6905C891.131 54.7661 890.496 56.8089 889.74 58.8077C885.772 68.4156 876.949 73.8278 874.914 100.082Z" fill="#1F1500"/>
<path d="M935.949 30.8939C938.533 32.2252 940.728 34.2022 942.322 36.6329C943.916 39.0636 944.854 41.8652 945.045 44.7656C945.455 48.6542 945.636 52.4405 946.978 56.1358C948.447 59.7316 950.431 63.0945 952.868 66.1189C956.518 71.0309 959.031 75.9315 959.508 82.4807C959.986 89.03 959.565 96.9551 957.371 103.163H957.314C959.122 96.8755 959.304 88.1772 958.36 81.5598C957.325 74.3283 953.573 69.7915 949.741 64.2997C946.65 59.9354 944.749 54.8409 944.227 49.5184C943.885 46.2324 943.988 42.7985 942.794 39.6945C941.373 35.9991 938.462 33.6455 935.574 31.5533C935.506 31.4949 935.46 31.4146 935.445 31.3263C935.43 31.238 935.446 31.1471 935.49 31.0692C935.534 30.9913 935.604 30.9312 935.688 30.8992C935.772 30.8672 935.864 30.8654 935.949 30.8939Z" fill="#1F1500"/>
<path d="M880.769 69.098C884.567 63.9132 888.501 59.5015 890.786 53.0659C892.856 47.2103 894.095 41.0248 896.199 35.1805C896.199 35.1624 896.206 35.1451 896.219 35.1323C896.232 35.1195 896.249 35.1123 896.267 35.1123C896.285 35.1123 896.302 35.1195 896.315 35.1323C896.328 35.1451 896.335 35.1624 896.335 35.1805C893.061 45.5616 892.287 56.0336 885.886 64.7432C882.407 69.496 878.927 73.8394 876.596 79.5245C874.216 85.5088 872.922 91.8696 872.776 98.3082C872.776 98.5356 872.492 98.5242 872.469 98.3082C871.743 87.9013 874.679 77.5681 880.769 69.098Z" fill="#1F1500"/>
<path d="M931.606 28.0398C932.413 30.3139 944.943 32.5879 951.003 24.3672C957.064 16.1465 950.344 5.53806 940.02 9.87013C933.493 12.6104 929.877 23.2757 931.606 28.0398Z" fill="#1F1500"/>
<path d="M951.867 12.838C949.841 10.3696 947.033 8.66517 943.908 8.00562C942.463 7.66209 940.953 7.70505 939.53 8.13019C938.107 8.55532 936.821 9.34764 935.801 10.4275C933.722 12.7229 932.307 15.5412 931.708 18.58C931.357 20.1267 931.147 21.7024 931.083 23.2872C930.945 24.8874 931.107 26.4991 931.56 28.04C930.769 26.581 930.308 24.9665 930.207 23.31C930.05 21.6509 930.092 19.9789 930.332 18.3298C930.752 14.9377 932.214 11.7594 934.516 9.2336C935.762 7.94678 937.334 7.02312 939.065 6.56159C940.78 6.15383 942.572 6.20482 944.261 6.70941C945.877 7.16295 947.385 7.93999 948.693 8.99344C950 10.0469 951.08 11.3548 951.867 12.838Z" fill="#1F1500"/>
<path d="M899.701 102.06C872.617 109.087 828.818 117.024 820.575 109.667C816.652 106.154 808.886 100.741 807.886 91.6225C805.714 71.7359 813.48 44.6519 821.348 32.2811C824.145 27.8808 850.069 36.5677 849.956 42.1391C849.706 55.1921 844.111 76.1362 845.317 77.0799C849.774 80.5933 878.87 81.9464 898.257 84.1408C922.578 86.9038 912.037 98.8539 899.701 102.06Z" fill="#F7A9A0"/>
<path d="M870.331 111.282L874.174 77.512C874.174 77.512 897.734 80.707 910.798 86.6082C923.862 92.5093 918.757 99.4679 905.465 103.664C892.174 107.859 870.331 111.282 870.331 111.282Z" fill="#1F1500"/>
<path d="M881.576 80.4454C881.44 85.7212 880.621 100.002 878.813 109.223H878.575C878.859 101.333 880.621 85.6757 881.247 80.4454C881.258 80.3203 881.588 80.343 881.576 80.4454Z" fill="#1F1500"/>
<path opacity="0.1" d="M905.465 103.561C892.151 107.734 870.331 111.282 870.331 111.282L872.298 94.0101L918.405 93.6804C918.621 97.4326 913.595 101.014 905.465 103.561Z" fill="#1F1500"/>
<path d="M857.096 162.379C857.096 162.379 939.372 197.093 942.635 196.615C942.635 196.615 944.352 152.726 939.952 116.591C935.256 77.8757 914.061 82.3328 905.954 86.1759C896.347 90.7241 874.243 111.588 871.844 116.125C867.841 123.63 872.139 134.488 872.139 134.488L857.096 162.379Z" fill="#1F1500"/>
<path opacity="0.1" d="M941.919 139.116C942.26 144.221 942.476 149.27 942.624 154.159C942.066 154.159 941.487 154.159 940.964 154.159C937.189 154.159 933.345 154.591 929.332 154.875C925.318 155.159 921.168 155.444 916.825 155.648C914.676 155.751 912.47 155.83 910.241 155.853H908.547C907.99 155.853 907.41 155.853 906.853 155.785C905.71 155.737 904.571 155.623 903.442 155.444L902.566 155.307C902.271 155.259 901.979 155.194 901.691 155.114C901.111 155 900.554 154.83 899.962 154.659C899.371 154.488 898.825 154.261 898.268 154.068C897.711 153.874 897.188 153.579 896.665 153.317C894.673 152.263 892.771 151.046 890.98 149.679C887.432 147.007 884.158 144.13 880.815 141.344C877.677 138.661 874.595 136.012 871.821 133.567C870.889 130.759 868.58 122.333 871.878 116.182C871.878 116.091 871.992 116 872.037 115.909C872.575 116.196 873.095 116.515 873.595 116.864C874.631 117.591 875.619 118.384 876.551 119.241C878.303 120.864 879.867 122.68 881.213 124.653C883.552 128.264 885.638 132.033 887.455 135.932C889.141 139.559 891.398 142.891 894.141 145.802C895.473 147.122 897.009 148.22 898.689 149.053C899.121 149.235 899.53 149.417 899.951 149.565L900.565 149.747L900.883 149.838L901.19 149.918C901.623 150.004 902.059 150.069 902.498 150.111C902.725 150.111 902.941 150.168 903.169 150.168H903.84C904.761 150.156 905.681 150.076 906.591 149.929C907.524 149.762 908.456 149.546 909.388 149.281C911.3 148.725 913.176 148.053 915.005 147.268C918.78 145.711 922.635 143.857 926.739 142.538C930.938 141.114 935.257 140.075 939.645 139.434C940.406 139.321 941.168 139.218 941.919 139.116Z" fill="#1F1500"/>
<path opacity="0.1" d="M942.931 169.372C942.931 170.907 942.931 172.431 942.931 173.92C942.601 173.568 942.26 173.215 941.919 172.874C939.356 170.198 936.138 168.238 932.584 167.189C929.093 166.268 925.318 166.632 921.532 167.189C919.633 167.462 917.711 167.803 915.744 168.11C913.777 168.417 911.799 168.735 909.775 168.917C907.751 169.099 905.704 169.247 903.646 169.27C901.588 169.293 899.508 169.27 897.416 169.088C893.237 168.814 889.088 168.198 885.011 167.246C883.999 166.996 882.975 166.746 881.975 166.439C880.974 166.132 879.974 165.836 879.007 165.495C878.041 165.154 877.051 164.801 876.062 164.449C875.073 164.096 874.152 163.664 873.208 163.244C868.745 161.275 864.455 158.936 860.383 156.251L865.044 147.598L867.148 148.587L869.74 149.724L871.002 150.304L872.31 150.85C873.174 151.203 874.038 151.566 874.891 151.987C875.312 152.18 875.755 152.328 876.187 152.499L877.483 152.999C878.359 153.329 879.2 153.715 880.087 154.022C880.974 154.329 881.816 154.625 882.668 154.966C883.521 155.307 884.397 155.614 885.272 155.876L886.568 156.331L887.876 156.751C891.369 157.839 894.927 158.705 898.53 159.344C902.168 159.946 905.864 160.253 909.65 160.572L915.449 161.015C917.416 161.151 919.394 161.299 921.418 161.504C923.442 161.709 925.466 161.947 927.535 162.289C929.617 162.638 931.664 163.171 933.653 163.88L934.392 164.176L935.119 164.494C935.608 164.699 936.086 164.938 936.563 165.177C937.041 165.415 937.45 165.722 937.916 165.972L939.247 166.78C940.065 167.382 940.929 167.917 941.748 168.554C942.169 168.781 942.499 169.065 942.931 169.372Z" fill="#1F1500"/>
<path opacity="0.1" d="M939.474 113.146C939.599 114.01 939.736 114.897 939.849 115.83H938.246L935.836 115.739C935.028 115.739 934.21 115.625 933.402 115.545C930.062 115.308 926.775 114.58 923.647 113.385C920.582 112.02 917.75 110.182 915.255 107.939C912.811 105.801 910.582 103.504 908.32 101.298C906.103 99.0479 903.699 96.9901 901.134 95.1471C899.665 94.1047 898.087 93.2277 896.426 92.5319L897.563 91.645C899.048 92.3469 900.487 93.1406 901.873 94.0214C904.613 95.7611 907.228 97.6258 909.832 99.5474C912.436 101.469 914.937 103.391 917.461 105.232C919.852 107.079 922.423 108.679 925.136 110.008C925.466 110.144 925.773 110.292 926.125 110.429L927.183 110.781C927.876 111.043 928.627 111.202 929.355 111.395C930.082 111.588 930.844 111.748 931.629 111.93C932.413 112.111 933.141 112.214 933.903 112.373C935.676 112.657 937.564 112.93 939.474 113.146Z" fill="#1F1500"/>
<path opacity="0.1" d="M938.326 107.177C938.542 108.143 938.758 109.121 938.94 110.179C936.927 109.963 934.903 109.758 932.845 109.496C929.576 109.203 926.366 108.437 923.317 107.222C920.375 105.764 917.733 103.766 915.528 101.333C913.254 99.0585 911.196 96.557 909.138 94.1124C907.273 91.8384 905.466 89.6439 903.658 87.4722C904.465 86.9719 905.261 86.5512 905.932 86.2101L906.625 85.9031C908.172 88.1771 909.57 90.4512 910.98 92.7252C912.606 95.426 914.45 97.9891 916.495 100.389C918.476 102.78 920.998 104.666 923.851 105.892C924.566 106.157 925.295 106.381 926.034 106.563C926.785 106.735 927.544 106.868 928.308 106.961C929.856 107.138 931.412 107.229 932.97 107.234C934.744 107.256 936.54 107.211 938.326 107.177Z" fill="#1F1500"/>
<path d="M886.716 134.136C890.296 135.583 893.762 137.297 897.085 139.264C898.734 140.253 900.315 141.322 901.884 142.436C902.668 142.982 903.464 143.505 904.26 144.028C905.083 144.597 905.973 145.063 906.909 145.415C906.92 145.411 906.931 145.409 906.942 145.41C906.954 145.411 906.965 145.414 906.974 145.421C906.984 145.427 906.991 145.435 906.997 145.445C907.002 145.455 907.005 145.466 907.005 145.478C907.005 145.489 907.002 145.5 906.997 145.51C906.991 145.52 906.984 145.529 906.974 145.535C906.965 145.541 906.954 145.545 906.942 145.546C906.931 145.547 906.92 145.545 906.909 145.54C905.089 145.114 903.352 144.388 901.77 143.391C900.099 142.402 898.473 141.322 896.813 140.31C893.402 138.263 890.104 136.228 886.579 134.431C886.409 134.363 886.545 134.068 886.716 134.136Z" fill="#1F1500"/>
<path d="M876.619 134.625C879.749 135.234 882.842 136.016 885.886 136.967C887.409 137.456 888.888 138.013 890.354 138.627C891.059 138.923 891.764 139.218 892.458 139.537C893.151 139.855 893.936 140.321 894.732 140.674C894.811 140.674 894.732 140.844 894.732 140.81C893.993 140.514 893.208 140.344 892.458 140.094L890.184 139.343C888.671 138.843 887.159 138.365 885.636 137.842C882.622 136.819 879.609 135.819 876.539 134.898C876.38 134.829 876.46 134.591 876.619 134.625Z" fill="#1F1500"/>
<path d="M921.861 104.562C925.568 122.982 930.537 162.175 944.716 169.656C961.316 178.423 964.045 154.477 962.999 141.674C962.135 131.111 946.478 108.86 937.882 97.5576C928.775 85.5847 917.097 80.8547 921.861 104.562Z" fill="#F7A9A0"/>
<path d="M958.201 122.163L926.137 133.533C926.137 133.533 918.666 110.975 918.177 96.6481C917.689 82.3216 926.228 83.8225 935.824 93.9647C945.421 104.107 958.201 122.163 958.201 122.163Z" fill="#1F1500"/>
<path d="M925.727 127.2C930.582 125.142 943.92 119.946 953.016 117.751C953.073 117.751 953.152 117.956 953.107 117.979C945.807 120.992 930.832 125.938 925.818 127.518C925.75 127.541 925.636 127.234 925.727 127.2Z" fill="#1F1500"/>
<path d="M917.484 109.44C918.416 110.804 920.281 112.987 920.429 113.249C920.213 112.544 919.701 109.94 919.224 107.416C919.221 107.392 919.227 107.368 919.24 107.348C919.253 107.328 919.273 107.313 919.296 107.306C919.319 107.3 919.344 107.301 919.366 107.311C919.388 107.32 919.406 107.337 919.417 107.359C920.611 109.781 925.42 131.009 926.239 133.511C927.208 133.081 928.199 132.701 929.207 132.373C929.514 132.294 929.332 132.601 929.298 132.612C928.672 132.999 925.887 134.568 925.693 134.238C925.216 133.226 921.316 116.626 920.986 115.568C920.827 115.318 918.166 110.895 917.438 109.428L917.484 109.44Z" fill="#1F1500"/>
<path d="M904.977 94.9652L904.499 94.6468C904.488 94.6838 904.488 94.7234 904.499 94.7605C904.419 94.101 900.554 89.0753 897.438 84.9707C893.549 79.8882 889.865 75.0786 889.479 73.8961C888.808 71.622 890.252 58.3756 890.309 57.8071L890.877 57.8753C890.877 58.0118 889.388 71.5197 890.025 73.7937C890.332 74.8739 894.323 80.0815 897.847 84.6864C904.249 92.9412 905.306 94.4876 904.977 94.9652Z" fill="#1F1500"/>
<path d="M904.829 52.3837C903.567 58.3872 898.28 62.344 893.015 61.2411C887.751 60.1382 884.51 54.4189 885.772 48.37C887.034 42.321 892.333 38.4096 897.597 39.5239C902.862 40.6382 906.114 46.3915 904.829 52.3837Z" fill="#1F1500"/>
<path d="M907.785 53.4638C906.375 60.1382 900.497 64.5498 894.641 63.3104C888.785 62.0711 885.181 55.6696 886.58 48.9953C887.978 42.3209 893.879 37.9207 899.724 39.1486C905.568 40.3766 909.195 46.8122 907.785 53.4638Z" fill="#DBDBDB"/>
<path d="M924.704 90.5536C924.09 92.0886 914.88 101.276 907.649 99.809C905.295 99.3314 907.342 86.3466 907.342 86.3466L907.273 85.3574L906.33 71.4515L923.681 63.7539L926.159 62.7646C926.159 62.7646 926.159 66.5851 926.159 71.3378V72.0087C926.159 72.2816 926.159 72.5431 926.159 72.7932C926.159 73.4982 926.159 74.2259 926.159 74.9422C926.159 75.6585 926.159 76.0792 926.159 76.6136C926.159 77.148 926.159 77.7507 926.102 78.3305C925.918 82.4322 925.45 86.5162 924.704 90.5536Z" fill="#F7A9A0"/>
<path d="M926.114 71.3378C924.178 74.9051 921.487 78.0074 918.229 80.4287C914.971 82.8499 911.225 84.5318 907.251 85.3574L906.307 71.4515L923.658 63.7539L926.137 62.7646C926.137 62.7646 926.16 66.5851 926.114 71.3378Z" fill="#1F1500"/>
<path d="M892.81 44.811C885.454 68.1314 898.598 75.1582 903.624 76.7387C908.172 78.1713 923.931 82.4238 933.641 60.0358C943.351 37.6477 934.835 26.8119 924.545 22.9801C914.255 19.1483 900.156 21.4792 892.81 44.811Z" fill="#F7A9A0"/>
<path d="M897.711 42.6051C898.275 42.6335 898.841 42.6335 899.405 42.6051C899.997 42.6962 900.602 42.5967 901.133 42.3209C901.283 42.1999 901.389 42.0329 901.434 41.8459C901.479 41.6589 901.461 41.4622 901.384 41.2862C901.174 40.9635 900.882 40.7021 900.539 40.5284C900.195 40.3547 899.812 40.2748 899.428 40.297C898.645 40.2304 897.864 40.4528 897.233 40.9223C897.079 41.0347 896.964 41.1915 896.902 41.3717C896.839 41.5518 896.834 41.7467 896.886 41.9301C896.938 42.1135 897.045 42.2764 897.192 42.3971C897.34 42.5178 897.521 42.5904 897.711 42.6051Z" fill="#1F1500"/>
<path d="M913.755 46.8121C913.235 46.599 912.727 46.3599 912.231 46.0958C911.661 45.9134 911.166 45.5502 910.821 45.0611C910.741 44.8855 910.723 44.6882 910.768 44.5007C910.813 44.3132 910.92 44.1462 911.071 44.0264C911.403 43.8337 911.779 43.7322 912.163 43.7322C912.546 43.7322 912.923 43.8337 913.254 44.0264C913.984 44.3219 914.58 44.8766 914.926 45.5841C914.992 45.7502 915.01 45.9318 914.976 46.1075C914.942 46.2832 914.859 46.4454 914.735 46.5748C914.612 46.7043 914.454 46.7955 914.28 46.8376C914.106 46.8796 913.924 46.8708 913.755 46.8121Z" fill="#1F1500"/>
<path d="M907.308 63.9359C906.932 64.3453 906.557 64.9024 905.954 64.982C905.335 64.9946 904.719 64.8784 904.147 64.6409C904.135 64.6318 904.119 64.628 904.105 64.6301C904.09 64.6322 904.076 64.6402 904.067 64.6523C904.058 64.6643 904.054 64.6795 904.056 64.6944C904.058 64.7093 904.066 64.7228 904.078 64.7318C904.333 65.0449 904.666 65.2847 905.044 65.4266C905.421 65.5684 905.83 65.6073 906.227 65.5391C906.564 65.4361 906.861 65.2348 907.082 64.9613C907.303 64.6878 907.437 64.3544 907.467 64.0041C907.489 63.8677 907.364 63.8677 907.308 63.9359Z" fill="#1F1500"/>
<path d="M901.111 57.1931C901.111 57.1931 900.303 59.5695 900.076 60.7179C900.076 60.8203 900.326 60.934 900.713 61.0249C901.661 61.3932 902.693 61.4947 903.695 61.3183C904.697 61.1419 905.632 60.6944 906.398 60.0243C906.413 60.0032 906.421 59.9778 906.421 59.9518C906.422 59.9257 906.414 59.9003 906.399 59.879C906.384 59.8577 906.362 59.8416 906.338 59.833C906.313 59.8244 906.286 59.8237 906.261 59.831C904.597 60.5457 902.747 60.7052 900.986 60.2859C900.986 59.9448 902.509 56.2608 902.327 56.2153C901.418 56.119 900.5 56.1458 899.598 56.2949C901.156 51.3033 903.487 46.5961 904.965 41.5932C904.973 41.5737 904.978 41.5529 904.978 41.5318C904.978 41.5107 904.974 41.4898 904.966 41.4703C904.958 41.4508 904.947 41.433 904.932 41.418C904.917 41.403 904.899 41.391 904.88 41.3828C904.86 41.3746 904.84 41.3703 904.819 41.3701C904.797 41.37 904.777 41.3739 904.757 41.3819C904.738 41.3898 904.72 41.4015 904.705 41.4163C904.69 41.4311 904.678 41.4487 904.67 41.4681C901.872 46.2208 899.962 51.9287 898.234 57.0453C898.075 57.6934 900.61 57.2955 901.111 57.1931Z" fill="#1F1500"/>
<path d="M901.941 60.9681C902.374 61.8127 903.016 62.5328 903.805 63.0603C904.245 63.3313 904.757 63.4585 905.272 63.4241C906.409 63.3445 906.603 62.3667 906.557 61.4912C906.536 61.0206 906.456 60.5545 906.318 60.104C904.991 60.8577 903.455 61.1608 901.941 60.9681Z" fill="#1F1500"/>
<path d="M903.84 63.0602C904.279 63.3312 904.791 63.4584 905.306 63.4241C906.443 63.3445 906.637 62.3666 906.591 61.4911C906.023 61.4036 905.441 61.511 904.942 61.7959C904.442 62.0808 904.054 62.5264 903.84 63.0602Z" fill="#FF9BBC"/>
<path d="M899.78 49.5978C899.78 49.5296 899.644 49.5978 899.621 49.6774C899.132 51.1442 898.325 52.736 896.835 52.7246C896.835 52.7246 896.767 52.8042 896.835 52.8156C898.496 53.1794 899.553 51.0532 899.78 49.5978Z" fill="#1F1500"/>
<path d="M897.143 47.9493C897.021 48.2121 896.926 48.4863 896.858 48.768C896.695 48.931 896.512 49.0724 896.313 49.1887C896.123 49.3053 895.904 49.3671 895.682 49.3671C895.459 49.3671 895.24 49.3053 895.051 49.1887C894.277 48.677 894.368 47.6309 894.755 46.7782C894.755 46.7099 894.834 46.6986 894.846 46.7782C894.96 47.3922 895.13 48.0516 895.653 48.2222C896.176 48.3927 896.631 48.0744 897.109 47.9834L897.143 47.9493Z" fill="#1F1500"/>
<path d="M899.291 51.1783C899.08 51.5449 898.774 51.8475 898.405 52.0539C898.199 52.1602 897.972 52.2212 897.741 52.233C897.51 52.2448 897.278 52.207 897.063 52.1221C896.841 52.0351 896.644 51.8971 896.486 51.7192C896.328 51.5414 896.214 51.3289 896.153 51.0988C896.057 50.6951 896.057 50.2744 896.153 49.8708C896.212 49.6318 896.284 49.3964 896.369 49.1658C896.549 48.6798 896.841 48.2434 897.222 47.8923C897.066 48.2307 896.948 48.5853 896.87 48.9498C896.793 49.2749 896.744 49.6058 896.722 49.939C896.722 50.6326 896.847 51.2807 897.347 51.4285C897.847 51.5763 898.393 51.3716 898.837 50.8372C899.272 50.2716 899.652 49.6663 899.974 49.0294C899.92 49.7897 899.686 50.5264 899.291 51.1783Z" fill="#1F1500"/>
<path d="M908.808 52.3041C908.808 52.2472 908.899 52.4064 908.888 52.4633C908.399 53.93 908.081 55.681 909.275 56.5679C909.275 56.5679 909.275 56.6702 909.275 56.6475C907.671 55.9084 908.115 53.6344 908.808 52.3041Z" fill="#1F1500"/>
<path d="M911.924 52.4973C911.865 52.7807 911.781 53.0584 911.674 53.3273C911.701 53.5538 911.758 53.7756 911.844 53.9868C911.925 54.1959 912.062 54.3783 912.241 54.513C912.42 54.6477 912.633 54.7294 912.856 54.7486C913.789 54.8055 914.334 53.9186 914.551 52.9976C914.551 52.9294 914.55 52.8839 914.482 52.918C914.027 53.3387 913.504 53.7594 912.981 53.5889C912.458 53.4183 912.276 52.8839 911.958 52.5201L911.924 52.4973Z" fill="#1F1500"/>
<path d="M908.285 53.8844C908.236 54.3063 908.298 54.7339 908.467 55.1238C908.572 55.3305 908.718 55.5138 908.896 55.6624C909.073 55.811 909.28 55.9217 909.502 55.9879C909.731 56.0503 909.972 56.058 910.205 56.0107C910.438 55.9633 910.657 55.862 910.844 55.715C911.167 55.4523 911.424 55.1174 911.594 54.7372C911.694 54.5124 911.778 54.2806 911.844 54.0436C911.993 53.5498 912.024 53.028 911.935 52.52C911.855 52.8816 911.733 53.2327 911.571 53.566C911.44 53.8756 911.28 54.1725 911.094 54.4529C910.707 55.0214 910.195 55.4421 909.695 55.2716C909.195 55.101 908.899 54.5894 908.865 53.8958C908.86 53.1829 908.921 52.4712 909.047 51.7695C908.632 52.4056 908.371 53.1297 908.285 53.8844Z" fill="#1F1500"/>
<path d="M932.561 60.4565C928.581 59.9335 929.4 51.5195 929.4 51.5195C929.4 51.5195 921.441 49.8708 921.202 37.8751C920.708 41.3629 921.241 44.9191 922.737 48.1084C922.737 48.1084 909.002 43.674 905.545 30.6664C905.545 30.6664 906.682 37.1588 908.422 39.7626C908.422 39.7626 902.873 36.8746 900.997 31.4851C900.997 31.4851 897.12 37.7614 894.823 39.2396C894.823 39.2396 900.565 14.7708 922.805 22.1842C922.805 22.1842 936.87 26.1297 939.622 38.4891C942.373 50.8486 932.561 60.4565 932.561 60.4565Z" fill="#1F1500"/>
<path d="M929.377 60.6612C929.377 60.6612 936.199 54.3621 939.212 56.9772C942.226 59.5924 935.858 69.4845 931.56 70.1099C931.012 70.2228 930.446 70.2233 929.898 70.1113C929.349 69.9993 928.829 69.7771 928.368 69.4582C927.908 69.1393 927.517 68.7303 927.22 68.256C926.922 67.7817 926.724 67.252 926.637 66.6988L929.377 60.6612Z" fill="#F7A9A0"/>
<path d="M937.325 59.7743C937.34 59.7743 937.354 59.7803 937.365 59.791C937.376 59.8016 937.382 59.8161 937.382 59.8312C937.382 59.8463 937.376 59.8607 937.365 59.8714C937.354 59.882 937.34 59.888 937.325 59.888C934.289 60.3997 932.254 62.651 930.628 65.0956C930.851 64.8521 931.125 64.6602 931.43 64.5332C931.734 64.4062 932.063 64.3471 932.393 64.3601C932.723 64.3731 933.047 64.4578 933.341 64.6084C933.635 64.759 933.892 64.9718 934.096 65.2321C934.164 65.3003 934.096 65.3912 933.993 65.3571C933.538 65.0957 933.014 64.9806 932.491 65.0274C931.968 65.0742 931.473 65.2806 931.071 65.6186C930.4 66.1911 929.794 66.8355 929.263 67.5402C929.081 67.7562 928.661 67.5402 928.82 67.2673V67.1991C929.57 63.6402 933.402 59.3195 937.325 59.7743Z" fill="#1F1500"/>
<path d="M844.271 126.529C840.416 126.529 837.176 124.915 834.606 119.787C831.718 114.033 841.064 85.6758 847.238 66.9035C849.285 60.6954 850.899 55.7948 851.604 53.1342C852.798 48.586 853.333 37.4318 853.333 37.3181H853.901C853.901 37.7843 853.367 48.6884 852.15 53.2365C851.445 55.9199 849.876 60.8318 847.784 67.0514C842.008 84.5957 832.332 113.954 835.118 119.502C839.416 128.098 845.499 126.325 853.913 124.05C856.789 123.183 859.712 122.477 862.668 121.936C871.457 120.469 875.948 121.538 879.564 122.402C884.112 123.482 887.046 124.198 895.539 118.456C899.837 115.557 903.93 95.7158 903.976 95.5225C904.726 93.4304 911.867 89.4167 918.757 85.5394C923.59 82.8219 928.16 80.2522 929.661 78.8196C931.731 76.8411 934.562 69.5414 934.585 69.4732L935.119 69.6779C935.005 69.9849 932.208 77.1595 930.048 79.2289C928.502 80.7184 923.908 83.2995 919.03 86.0511C912.538 89.7009 905.17 93.8397 904.51 95.7044C904.351 96.489 900.337 115.921 895.846 118.945C887.148 124.824 884.067 124.096 879.416 122.982C875.857 122.129 871.457 121.071 862.747 122.527C859.815 123.062 856.915 123.761 854.06 124.619C850.893 125.676 847.603 126.318 844.271 126.529Z" fill="#1F1500"/>
<path d="M854.531 45.8341L855.3 37.1699L852.819 36.9499L852.051 45.6141L854.531 45.8341Z" fill="#1F1500"/>
<path d="M938.212 56.2382C938.212 56.2382 942.385 43.333 940.349 35.1236C938.075 26.0274 927.91 16.5105 914.937 19.3758C914.937 19.3758 928.934 22.1502 935.017 34.3959C937.802 40.0811 933.743 55.4991 933.743 55.4991L938.212 56.2382Z" fill="#DBDBDB"/>
<path d="M924.306 59.7516C922.555 66.4259 925.898 73.0775 931.754 74.6011C937.609 76.1248 943.761 71.9632 945.512 65.2889C947.263 58.6146 943.92 51.963 938.064 50.4393C932.208 48.9157 926.046 53.0772 924.306 59.7516Z" fill="#DBDBDB"/>
<path d="M927.49 60.1723C925.921 66.1758 928.922 72.1565 934.187 73.5323C939.451 74.9081 944.989 71.156 946.558 65.1638C948.127 59.1717 945.125 53.1796 939.861 51.8038C934.596 50.428 929.059 54.1802 927.49 60.1723Z" fill="#1F1500"/>
<path d="M942.317 163.448C949.582 174.216 958.963 169.475 961.316 160.719C966.842 140.151 957.848 103.868 953.607 94.3967C953.016 93.055 917.814 101.628 919.042 108.132C920.759 117.228 927.581 141.595 942.317 163.448Z" fill="#F7A9A0"/>
<path d="M939.667 159.162C938.4 157.467 937.224 155.705 936.143 153.886C935.006 152.067 934.028 150.168 933.05 148.201C932.072 146.234 931.208 144.267 930.423 142.209C929.611 140.132 928.935 138.006 928.399 135.841C928.877 136.819 929.264 137.842 929.741 138.809C930.219 139.775 930.628 140.787 931.094 141.754C932.027 143.698 932.936 145.654 933.903 147.575L939.667 159.162Z" fill="#1F1500"/>
<path d="M952.607 99.4793C952.607 99.4793 955.335 86.0283 956.7 77.1367C957.462 72.1793 958.019 63.5606 956.916 59.6606C955.256 53.8277 944.625 30.4959 938.905 32.9519C933.732 35.2259 945.421 54.0665 945.421 54.0665C945.421 54.0665 935.312 33.9638 929.582 37.7843C923.851 41.6047 939.883 61.1956 939.883 61.1956C939.883 61.1956 929.036 40.7291 923.749 45.6525C919.758 49.3364 933.277 67.8927 933.277 67.8927C933.277 67.8927 923.84 50.4052 919.565 54.021C914.835 58.0119 926.25 75.9315 926.25 75.9315C916.927 86.9493 914.744 98.3423 919.03 107.291C919.758 108.712 952.607 99.4793 952.607 99.4793Z" fill="#F7A9A0"/>
<path d="M949.321 60.7977C948.184 58.3872 947.115 55.9539 945.807 53.6571C944.5 51.3603 943.101 49.109 941.578 46.9373C939.649 44.067 937.398 41.4271 934.869 39.0691C939.053 43.6172 943.874 51.7356 945.182 54.0324C946.49 56.3292 947.922 58.5805 949.23 60.8545L949.321 60.7977Z" fill="#1F1500"/>
<path d="M941.145 65.6756C939.61 62.6738 938.189 59.6266 936.518 56.6817C934.846 53.7368 933.016 51.133 931.162 48.3246C931.015 48.1085 930.946 48.2563 931.083 48.4724C932.834 51.3491 934.221 54.1575 935.938 57.0456C937.655 59.9336 939.485 62.7307 941.077 65.7211L941.145 65.6756Z" fill="#1F1500"/>
<path d="M934.858 71.1446C932.607 66.4742 929.883 62.047 926.728 57.9324C926.569 57.7277 926.501 57.9324 926.648 58.1484C929.434 62.4805 931.651 65.8688 934.687 71.2129C934.744 71.3038 934.903 71.2356 934.858 71.1446Z" fill="#1F1500"/>
<path d="M924.306 45.2317C923.814 45.4557 923.43 45.8641 923.237 46.3687C923.071 46.8859 923.006 47.4301 923.044 47.9719C923.131 49.0643 923.368 50.1394 923.749 51.167C924.495 53.2331 925.42 55.2304 926.512 57.1364L927.979 59.7629L925.966 57.4888C925.115 56.5058 924.154 55.6244 923.101 54.8623C922.597 54.5092 922.035 54.2474 921.441 54.0891C920.897 53.9554 920.323 54.0369 919.838 54.3165C919.453 54.6907 919.204 55.1832 919.133 55.7151C919.018 56.3258 918.984 56.9488 919.03 57.5684C919.141 58.8542 919.392 60.124 919.781 61.3547C920.584 63.8638 921.604 66.2986 922.828 68.6317C923.419 69.7687 924.079 70.9626 924.693 72.1337L926.682 75.5448L926.887 75.9087L926.603 76.2043C924.672 78.2192 923.003 80.4693 921.634 82.9014C920.235 85.3226 919.143 87.9083 918.382 90.599C917.65 93.3062 917.328 96.108 917.427 98.9107C917.545 101.733 918.077 104.522 919.007 107.188C917.896 104.564 917.202 101.783 916.949 98.9448C916.725 96.0797 916.959 93.1971 917.643 90.4057C918.319 87.6211 919.375 84.9429 920.781 82.4466C922.172 79.9195 923.876 77.5778 925.852 75.4766L925.773 76.1361L923.715 72.725C923.089 71.5879 922.407 70.3827 921.827 69.1775C920.601 66.7761 919.585 64.2728 918.791 61.6958C918.386 60.384 918.134 59.0294 918.041 57.6594C917.995 56.951 918.044 56.2396 918.189 55.5445C918.243 55.1493 918.376 54.7691 918.582 54.4271C918.787 54.085 919.059 53.7882 919.383 53.5547C920.079 53.1788 920.893 53.0851 921.657 53.2932C922.344 53.4978 922.991 53.821 923.567 54.2483C924.655 55.0753 925.637 56.034 926.489 57.1022L925.932 57.4888C924.885 55.5356 924.035 53.4825 923.396 51.3603C923.068 50.2866 922.884 49.1738 922.851 48.0515C922.832 47.4825 922.937 46.9163 923.158 46.3915C923.262 46.1311 923.417 45.8942 923.614 45.695C923.811 45.4957 924.047 45.3382 924.306 45.2317Z" fill="#1F1500"/>
<path d="M865.886 -0.760942L867.478 41.2181C867.659 42.4802 866.875 43.2988 865.727 43.06L845.158 38.7052C844.541 38.5227 843.989 38.1696 843.565 37.6868C843.14 37.204 842.861 36.6111 842.759 35.9764L841.155 -6.00263C840.985 -7.26473 841.769 -8.08339 842.918 -7.84462L863.475 -3.48981C864.094 -3.30907 864.648 -2.95685 865.075 -2.4739C865.502 -1.99095 865.783 -1.39704 865.886 -0.760942Z" fill="#6D5629"/>
<path d="M863.453 -1.29537L865.044 40.6836C865.226 41.9344 864.43 42.7644 863.282 42.5256L842.725 38.1594C842.108 37.9795 841.554 37.629 841.127 37.1482C840.701 36.6675 840.419 36.076 840.314 35.4419L838.722 -6.53706C838.54 -7.79916 839.336 -8.61782 840.485 -8.37904L861.042 -4.02423C861.661 -3.8435 862.215 -3.49127 862.642 -3.00832C863.068 -2.52537 863.35 -1.93146 863.453 -1.29537Z" fill="#FF66AF"/>
<path d="M857.426 -0.669888C857.357 -0.322335 857.393 0.037834 857.53 0.364758C857.667 0.691683 857.897 0.970581 858.193 1.16595C858.488 1.36131 858.835 1.46431 859.19 1.46183C859.544 1.45935 859.89 1.3515 860.182 1.15201C860.475 0.952519 860.702 0.670411 860.834 0.341605C860.966 0.0127998 860.997 -0.34783 860.923 -0.694385C860.85 -1.04094 860.675 -1.35774 860.42 -1.60445C860.166 -1.85117 859.844 -2.01664 859.495 -2.0798C859.035 -2.16331 858.559 -2.06228 858.172 -1.79852C857.785 -1.53477 857.517 -1.12941 857.426 -0.669888Z" fill="#1F1500"/>
<path d="M819.825 23.3439C824.487 13.6564 827.17 11.8827 826.761 1.61531C826.488 -5.11588 830.672 -8.18585 834.185 -2.11413C839.87 7.82347 836.528 21.5815 833.981 26.0159L819.825 23.3439Z" fill="#F7A9A0"/>
<path d="M815.47 54.0893C815.47 54.0893 813.798 38.9327 817.744 28.1196C820.461 20.638 828.216 5.02659 851.582 0.694525C857.119 -0.340168 865.749 2.12718 857.267 7.09598C851.263 10.6208 846.397 11.0528 843.281 13.7362C843.281 13.7362 853.879 18.1706 854.652 23.7648C855.363 28.6599 855.724 33.5996 855.732 38.5461C854.83 38.7555 853.914 38.9037 852.992 38.9896C852.992 38.9896 853.253 44.2881 848.171 50.5531L815.47 54.0893Z" fill="#F7A9A0"/>
<path d="M821.485 21.3882C825.135 19.3757 832.957 15.2369 840.53 14.0771C848.944 12.7923 865.488 12.5762 866.375 18.7958C867.034 23.3439 860.689 23.992 860.689 23.992C860.689 23.992 867.512 25.3451 867.239 29.5975C866.955 33.4634 862.043 33.6681 862.043 33.6681C862.043 33.6681 866.068 35.2031 865.067 38.8757C863.873 43.2987 855.641 39.3532 850.57 42.787C849.444 43.5602 821.485 21.3882 821.485 21.3882Z" fill="#F7A9A0"/>
<path d="M840.405 23.1962C847.05 21.3535 854.099 21.5836 860.61 23.8556C860.769 23.9239 860.815 24.0717 860.61 24.0489C853.92 22.9738 847.124 22.7141 840.371 23.2758C840.371 23.2758 840.371 23.2075 840.405 23.1962Z" fill="#1F1500"/>
<path d="M841.951 31.6442C845.306 30.8369 854.913 30.4048 862.077 33.5089C862.247 33.5771 862.27 33.7363 862.077 33.7136C855.457 32.2926 848.698 31.6251 841.929 31.7238C841.929 31.7238 841.917 31.6556 841.951 31.6442Z" fill="#1F1500"/>
<path d="M667.77 28.1992C668.169 29.3187 668.362 30.5015 668.339 31.6899C668.366 32.8785 668.173 34.062 667.77 35.1806C667.372 34.0606 667.18 32.8781 667.202 31.6899C667.184 30.5019 667.376 29.3201 667.77 28.1992Z" fill="#1F1500"/>
<path d="M658.503 37.716C660.771 36.9729 663.217 36.9729 665.485 37.716C663.219 38.4744 660.769 38.4744 658.503 37.716Z" fill="#1F1500"/>
<path d="M667.997 46.9487C667.239 44.6873 667.239 42.2402 667.997 39.9788C668.756 42.2402 668.756 44.6873 667.997 46.9487Z" fill="#1F1500"/>
<path d="M677.264 37.4659C674.999 38.2243 672.548 38.2243 670.283 37.4659C671.401 37.061 672.585 36.8682 673.774 36.8974C674.962 36.8757 676.144 37.0683 677.264 37.4659Z" fill="#1F1500"/>
<path d="M978.235 266.383C978.993 268.649 978.993 271.099 978.235 273.365C977.477 271.099 977.477 268.649 978.235 266.383Z" fill="#1F1500"/>
<path d="M962.169 113.749C962.55 114.446 962.745 115.229 962.737 116.023C962.75 116.818 962.554 117.602 962.169 118.297C961.779 117.604 961.583 116.818 961.6 116.023C961.588 115.228 961.784 114.444 962.169 113.749Z" fill="#1F1500"/>
<path d="M956.029 120.025C956.743 119.652 957.537 119.457 958.343 119.457C959.149 119.457 959.943 119.652 960.657 120.025C959.943 120.399 959.149 120.594 958.343 120.594C957.537 120.594 956.743 120.399 956.029 120.025Z" fill="#1F1500"/>
<path d="M962.317 126.165C961.932 125.47 961.736 124.686 961.748 123.891C961.73 123.096 961.926 122.31 962.317 121.617C962.702 122.313 962.898 123.097 962.885 123.891C962.893 124.685 962.697 125.468 962.317 126.165Z" fill="#1F1500"/>
<path d="M968.457 119.878C967.743 120.251 966.949 120.446 966.143 120.446C965.337 120.446 964.543 120.251 963.829 119.878C964.543 119.504 965.337 119.309 966.143 119.309C966.949 119.309 967.743 119.504 968.457 119.878Z" fill="#1F1500"/>
<path d="M807.442 -3.92188C807.827 -3.22655 808.023 -2.44249 808.011 -1.64782C808.029 -0.852471 807.833 -0.0668645 807.442 0.626229C807.057 -0.0690949 806.861 -0.853153 806.874 -1.64782C806.866 -2.44195 807.062 -3.22484 807.442 -3.92188Z" fill="#1F1500"/>
<path d="M801.302 2.36581C802.017 1.99225 802.81 1.79712 803.616 1.79712C804.422 1.79712 805.216 1.99225 805.93 2.36581C805.216 2.73938 804.422 2.9345 803.616 2.9345C802.81 2.9345 802.017 2.73938 801.302 2.36581Z" fill="#1F1500"/>
<path d="M807.59 8.50587C807.213 7.80756 807.018 7.02553 807.022 6.23182C807.009 5.43715 807.205 4.65309 807.59 3.95776C807.98 4.65127 808.176 5.43659 808.159 6.23182C808.171 7.02649 807.975 7.81054 807.59 8.50587Z" fill="#1F1500"/>
<path d="M813.73 2.2181C813.016 2.59167 812.222 2.7868 811.416 2.7868C810.611 2.7868 809.817 2.59167 809.103 2.2181C809.817 1.84453 810.611 1.64941 811.416 1.64941C812.222 1.64941 813.016 1.84453 813.73 2.2181Z" fill="#1F1500"/>
<path d="M759.017 215.843C759.775 218.104 759.775 220.551 759.017 222.813C758.258 220.551 758.258 218.104 759.017 215.843Z" fill="#1F1500"/>
<path d="M749.75 225.325C752.015 224.567 754.466 224.567 756.731 225.325C755.613 225.729 754.429 225.922 753.24 225.894C752.052 225.916 750.87 225.723 749.75 225.325Z" fill="#1F1500"/>
<path d="M759.244 234.592C758.845 233.473 758.652 232.29 758.675 231.101C758.648 229.913 758.841 228.729 759.244 227.611C759.642 228.731 759.834 229.913 759.812 231.101C759.83 232.289 759.638 233.471 759.244 234.592Z" fill="#1F1500"/>
<path d="M768.533 225.109C766.266 225.852 763.82 225.852 761.552 225.109C763.817 224.351 766.268 224.351 768.533 225.109Z" fill="#1F1500"/>
<path d="M996.064 -21.6028C995.59 -16.9717 993.836 -12.5638 991 -8.87212C988.164 -5.18042 984.357 -2.35044 980.004 -0.698647C975.652 0.953146 970.926 1.36163 966.354 0.481137C961.783 -0.399358 957.547 -2.53412 954.119 -5.68444L941.555 -3.83109L947.843 -14.6897C946.404 -18.2253 945.791 -22.0424 946.05 -25.8507C946.308 -29.659 947.432 -33.3582 949.335 -36.667C951.238 -39.9758 953.87 -42.8071 957.032 -44.9456C960.193 -47.0842 963.801 -48.4736 967.581 -49.0083C971.36 -49.543 975.212 -49.2089 978.842 -48.0313C982.473 -46.8538 985.788 -44.8638 988.534 -42.2128C991.28 -39.5617 993.386 -36.3193 994.691 -32.7322C995.995 -29.1451 996.465 -25.3077 996.064 -21.5118V-21.6028Z" fill="white"/>
<path d="M996.064 -21.6027C995.567 -16.9849 993.813 -12.5919 990.993 -8.90212C989.614 -7.0344 987.953 -5.3926 986.069 -4.03565C982.333 -1.23647 977.901 0.485904 973.255 0.944526C972.095 1.05242 970.928 1.07522 969.764 1.01275C968.597 0.98786 967.433 0.86616 966.285 0.648897C961.656 -0.203965 957.357 -2.33017 953.869 -5.49105L954.164 -5.40008L941.657 -3.47851L940.748 -3.33069L941.202 -4.13798L947.456 -15.0193V-14.5873C945.983 -18.1864 945.356 -22.0759 945.624 -25.9556C945.892 -29.8353 947.048 -33.6016 949.002 -36.9639C950.944 -40.2888 953.61 -43.1335 956.802 -45.287C960.016 -47.4363 963.681 -48.8174 967.513 -49.3234C971.321 -49.8526 975.199 -49.497 978.848 -48.2843C982.496 -47.0715 985.815 -45.0343 988.548 -42.3307C991.285 -39.6679 993.384 -36.4194 994.685 -32.8294C995.987 -29.2393 996.458 -25.401 996.064 -21.6027ZM996.064 -21.6027C996.434 -25.3937 995.94 -29.2193 994.618 -32.7918C993.297 -36.3643 991.182 -39.5907 988.434 -42.2284C985.672 -44.819 982.366 -46.7611 978.758 -47.9135C975.148 -49.033 971.329 -49.3168 967.593 -48.7435C963.869 -48.1893 960.322 -46.789 957.223 -44.6502C954.155 -42.4978 951.59 -39.7046 949.707 -36.4636C947.857 -33.2058 946.769 -29.5711 946.524 -25.8324C946.29 -22.1044 946.892 -18.3711 948.286 -14.9056L948.377 -14.6782L948.263 -14.4736L941.941 -3.6377L941.487 -4.29716L954.062 -6.05956H954.233L954.358 -5.94586C957.719 -2.82651 961.879 -0.700996 966.376 0.194085C967.5 0.421343 968.641 0.558224 969.787 0.603415C970.923 0.68196 972.063 0.68196 973.198 0.603415C975.492 0.420119 977.749 -0.0772424 979.907 -0.874722C982.072 -1.66108 984.11 -2.76051 985.956 -4.13798C986.89 -4.83872 987.779 -5.59828 988.616 -6.41203C989.425 -7.23027 990.185 -8.09594 990.89 -9.00445C993.74 -12.6488 995.53 -17.0077 996.064 -21.6027Z" fill="#1F1500"/>
<path d="M74.816 121L66.688 111.048V121H62.208V98.664H66.688V108.68L74.816 98.664H80.224L71.008 109.736L80.48 121H74.816ZM82.2747 112.072C82.2747 110.28 82.6267 108.691 83.3307 107.304C84.0561 105.917 85.0268 104.851 86.2428 104.104C87.4801 103.357 88.8561 102.984 90.3708 102.984C91.6934 102.984 92.8454 103.251 93.8268 103.784C94.8294 104.317 95.6294 104.989 96.2268 105.8V103.272H100.739V121H96.2268V118.408C95.6508 119.24 94.8508 119.933 93.8268 120.488C92.8241 121.021 91.6614 121.288 90.3388 121.288C88.8454 121.288 87.4801 120.904 86.2428 120.136C85.0268 119.368 84.0561 118.291 83.3307 116.904C82.6267 115.496 82.2747 113.885 82.2747 112.072ZM96.2268 112.136C96.2268 111.048 96.0134 110.12 95.5868 109.352C95.1601 108.563 94.5841 107.965 93.8588 107.56C93.1334 107.133 92.3548 106.92 91.5228 106.92C90.6908 106.92 89.9228 107.123 89.2188 107.528C88.5148 107.933 87.9388 108.531 87.4908 109.32C87.0641 110.088 86.8508 111.005 86.8508 112.072C86.8508 113.139 87.0641 114.077 87.4908 114.888C87.9388 115.677 88.5148 116.285 89.2188 116.712C89.9441 117.139 90.7121 117.352 91.5228 117.352C92.3548 117.352 93.1334 117.149 93.8588 116.744C94.5841 116.317 95.1601 115.72 95.5868 114.952C96.0134 114.163 96.2268 113.224 96.2268 112.136ZM109.594 106.024C110.17 105.085 110.917 104.349 111.834 103.816C112.773 103.283 113.84 103.016 115.034 103.016V107.72H113.85C112.442 107.72 111.376 108.051 110.65 108.712C109.946 109.373 109.594 110.525 109.594 112.168V121H105.114V103.272H109.594V106.024ZM116.9 112.072C116.9 110.28 117.252 108.691 117.956 107.304C118.681 105.917 119.652 104.851 120.868 104.104C122.105 103.357 123.481 102.984 124.996 102.984C126.318 102.984 127.47 103.251 128.452 103.784C129.454 104.317 130.254 104.989 130.852 105.8V103.272H135.364V121H130.852V118.408C130.276 119.24 129.476 119.933 128.452 120.488C127.449 121.021 126.286 121.288 124.964 121.288C123.47 121.288 122.105 120.904 120.868 120.136C119.652 119.368 118.681 118.291 117.956 116.904C117.252 115.496 116.9 113.885 116.9 112.072ZM130.852 112.136C130.852 111.048 130.638 110.12 130.212 109.352C129.785 108.563 129.209 107.965 128.484 107.56C127.758 107.133 126.98 106.92 126.148 106.92C125.316 106.92 124.548 107.123 123.844 107.528C123.14 107.933 122.564 108.531 122.116 109.32C121.689 110.088 121.476 111.005 121.476 112.072C121.476 113.139 121.689 114.077 122.116 114.888C122.564 115.677 123.14 116.285 123.844 116.712C124.569 117.139 125.337 117.352 126.148 117.352C126.98 117.352 127.758 117.149 128.484 116.744C129.209 116.317 129.785 115.72 130.212 114.952C130.638 114.163 130.852 113.224 130.852 112.136ZM147.611 121.288C145.905 121.288 144.369 120.915 143.003 120.168C141.638 119.4 140.561 118.323 139.771 116.936C139.003 115.549 138.619 113.949 138.619 112.136C138.619 110.323 139.014 108.723 139.803 107.336C140.614 105.949 141.713 104.883 143.099 104.136C144.486 103.368 146.033 102.984 147.739 102.984C149.446 102.984 150.993 103.368 152.379 104.136C153.766 104.883 154.854 105.949 155.643 107.336C156.454 108.723 156.859 110.323 156.859 112.136C156.859 113.949 156.443 115.549 155.611 116.936C154.801 118.323 153.691 119.4 152.283 120.168C150.897 120.915 149.339 121.288 147.611 121.288ZM147.611 117.384C148.422 117.384 149.179 117.192 149.883 116.808C150.609 116.403 151.185 115.805 151.611 115.016C152.038 114.227 152.251 113.267 152.251 112.136C152.251 110.451 151.803 109.16 150.907 108.264C150.033 107.347 148.955 106.888 147.675 106.888C146.395 106.888 145.318 107.347 144.443 108.264C143.59 109.16 143.163 110.451 143.163 112.136C143.163 113.821 143.579 115.123 144.411 116.04C145.265 116.936 146.331 117.384 147.611 117.384ZM170.642 121L164.626 113.448V121H160.146V97.32H164.626V110.792L170.578 103.272H176.402L168.594 112.168L176.466 121H170.642ZM195.313 111.752C195.313 112.392 195.27 112.968 195.185 113.48H182.225C182.332 114.76 182.78 115.763 183.569 116.488C184.358 117.213 185.329 117.576 186.481 117.576C188.145 117.576 189.329 116.861 190.033 115.432H194.865C194.353 117.139 193.372 118.547 191.921 119.656C190.47 120.744 188.689 121.288 186.577 121.288C184.87 121.288 183.334 120.915 181.969 120.168C180.625 119.4 179.569 118.323 178.801 116.936C178.054 115.549 177.681 113.949 177.681 112.136C177.681 110.301 178.054 108.691 178.801 107.304C179.548 105.917 180.593 104.851 181.937 104.104C183.281 103.357 184.828 102.984 186.577 102.984C188.262 102.984 189.766 103.347 191.089 104.072C192.433 104.797 193.468 105.832 194.193 107.176C194.94 108.499 195.313 110.024 195.313 111.752ZM190.673 110.472C190.652 109.32 190.236 108.403 189.425 107.72C188.614 107.016 187.622 106.664 186.449 106.664C185.34 106.664 184.401 107.005 183.633 107.688C182.886 108.349 182.428 109.277 182.257 110.472H190.673ZM77.76 153.384C77.248 152.445 76.544 151.731 75.648 151.24C74.752 150.749 73.7067 150.504 72.512 150.504C71.1893 150.504 70.016 150.803 68.992 151.4C67.968 151.997 67.168 152.851 66.592 153.96C66.016 155.069 65.728 156.349 65.728 157.8C65.728 159.293 66.016 160.595 66.592 161.704C67.1893 162.813 68.0107 163.667 69.056 164.264C70.1013 164.861 71.3173 165.16 72.704 165.16C74.4107 165.16 75.808 164.712 76.896 163.816C77.984 162.899 78.6987 161.629 79.04 160.008H71.36V156.584H83.456V160.488C83.1573 162.045 82.5173 163.485 81.536 164.808C80.5547 166.131 79.2853 167.197 77.728 168.008C76.192 168.797 74.464 169.192 72.544 169.192C70.3893 169.192 68.4373 168.712 66.688 167.752C64.96 166.771 63.5947 165.416 62.592 163.688C61.6107 161.96 61.12 159.997 61.12 157.8C61.12 155.603 61.6107 153.64 62.592 151.912C63.5947 150.163 64.96 148.808 66.688 147.848C68.4373 146.867 70.3787 146.376 72.512 146.376C75.0293 146.376 77.216 146.995 79.072 148.232C80.928 149.448 82.208 151.165 82.912 153.384H77.76ZM103.251 159.752C103.251 160.392 103.208 160.968 103.123 161.48H90.1625C90.2692 162.76 90.7172 163.763 91.5065 164.488C92.2958 165.213 93.2665 165.576 94.4185 165.576C96.0825 165.576 97.2665 164.861 97.9705 163.432H102.803C102.291 165.139 101.309 166.547 99.8585 167.656C98.4078 168.744 96.6265 169.288 94.5145 169.288C92.8078 169.288 91.2718 168.915 89.9065 168.168C88.5625 167.4 87.5065 166.323 86.7385 164.936C85.9918 163.549 85.6185 161.949 85.6185 160.136C85.6185 158.301 85.9918 156.691 86.7385 155.304C87.4852 153.917 88.5305 152.851 89.8745 152.104C91.2185 151.357 92.7652 150.984 94.5145 150.984C96.1998 150.984 97.7038 151.347 99.0265 152.072C100.371 152.797 101.405 153.832 102.131 155.176C102.877 156.499 103.251 158.024 103.251 159.752ZM98.6105 158.472C98.5892 157.32 98.1732 156.403 97.3625 155.72C96.5518 155.016 95.5598 154.664 94.3865 154.664C93.2772 154.664 92.3385 155.005 91.5705 155.688C90.8238 156.349 90.3652 157.277 90.1945 158.472H98.6105ZM116.345 151.016C118.457 151.016 120.163 151.688 121.465 153.032C122.766 154.355 123.417 156.211 123.417 158.6V169H118.937V159.208C118.937 157.8 118.585 156.723 117.881 155.976C117.177 155.208 116.217 154.824 115.001 154.824C113.763 154.824 112.782 155.208 112.057 155.976C111.353 156.723 111.001 157.8 111.001 159.208V169H106.521V151.272H111.001V153.48C111.598 152.712 112.355 152.115 113.273 151.688C114.211 151.24 115.235 151.016 116.345 151.016ZM144.157 159.752C144.157 160.392 144.114 160.968 144.029 161.48H131.069C131.175 162.76 131.623 163.763 132.413 164.488C133.202 165.213 134.173 165.576 135.325 165.576C136.989 165.576 138.173 164.861 138.877 163.432H143.709C143.197 165.139 142.215 166.547 140.765 167.656C139.314 168.744 137.533 169.288 135.421 169.288C133.714 169.288 132.178 168.915 130.813 168.168C129.469 167.4 128.413 166.323 127.645 164.936C126.898 163.549 126.525 161.949 126.525 160.136C126.525 158.301 126.898 156.691 127.645 155.304C128.391 153.917 129.437 152.851 130.781 152.104C132.125 151.357 133.671 150.984 135.421 150.984C137.106 150.984 138.61 151.347 139.933 152.072C141.277 152.797 142.311 153.832 143.037 155.176C143.783 156.499 144.157 158.024 144.157 159.752ZM139.517 158.472C139.495 157.32 139.079 156.403 138.269 155.72C137.458 155.016 136.466 154.664 135.293 154.664C134.183 154.664 133.245 155.005 132.477 155.688C131.73 156.349 131.271 157.277 131.101 158.472H139.517ZM151.907 154.024C152.483 153.085 153.229 152.349 154.147 151.816C155.085 151.283 156.152 151.016 157.347 151.016V155.72H156.163C154.755 155.72 153.688 156.051 152.963 156.712C152.259 157.373 151.907 158.525 151.907 160.168V169H147.427V151.272H151.907V154.024ZM159.212 160.072C159.212 158.28 159.564 156.691 160.268 155.304C160.994 153.917 161.964 152.851 163.18 152.104C164.418 151.357 165.794 150.984 167.308 150.984C168.631 150.984 169.783 151.251 170.764 151.784C171.767 152.317 172.567 152.989 173.164 153.8V151.272H177.676V169H173.164V166.408C172.588 167.24 171.788 167.933 170.764 168.488C169.762 169.021 168.599 169.288 167.276 169.288C165.783 169.288 164.418 168.904 163.18 168.136C161.964 167.368 160.994 166.291 160.268 164.904C159.564 163.496 159.212 161.885 159.212 160.072ZM173.164 160.136C173.164 159.048 172.951 158.12 172.524 157.352C172.098 156.563 171.522 155.965 170.796 155.56C170.071 155.133 169.292 154.92 168.46 154.92C167.628 154.92 166.86 155.123 166.156 155.528C165.452 155.933 164.876 156.531 164.428 157.32C164.002 158.088 163.788 159.005 163.788 160.072C163.788 161.139 164.002 162.077 164.428 162.888C164.876 163.677 165.452 164.285 166.156 164.712C166.882 165.139 167.65 165.352 168.46 165.352C169.292 165.352 170.071 165.149 170.796 164.744C171.522 164.317 172.098 163.72 172.524 162.952C172.951 162.163 173.164 161.224 173.164 160.136ZM187.268 154.952V163.528C187.268 164.125 187.406 164.563 187.684 164.84C187.982 165.096 188.473 165.224 189.156 165.224H191.236V169H188.42C184.644 169 182.756 167.165 182.756 163.496V154.952H180.644V151.272H182.756V146.888H187.268V151.272H191.236V154.952H187.268ZM196.73 149.16C195.941 149.16 195.279 148.915 194.746 148.424C194.234 147.912 193.978 147.283 193.978 146.536C193.978 145.789 194.234 145.171 194.746 144.68C195.279 144.168 195.941 143.912 196.73 143.912C197.519 143.912 198.17 144.168 198.682 144.68C199.215 145.171 199.482 145.789 199.482 146.536C199.482 147.283 199.215 147.912 198.682 148.424C198.17 148.915 197.519 149.16 196.73 149.16ZM198.938 151.272V169H194.458V151.272H198.938ZM211.236 169.288C209.53 169.288 207.994 168.915 206.628 168.168C205.263 167.4 204.186 166.323 203.396 164.936C202.628 163.549 202.244 161.949 202.244 160.136C202.244 158.323 202.639 156.723 203.428 155.336C204.239 153.949 205.338 152.883 206.724 152.136C208.111 151.368 209.658 150.984 211.364 150.984C213.071 150.984 214.618 151.368 216.004 152.136C217.391 152.883 218.479 153.949 219.268 155.336C220.079 156.723 220.484 158.323 220.484 160.136C220.484 161.949 220.068 163.549 219.236 164.936C218.426 166.323 217.316 167.4 215.908 168.168C214.522 168.915 212.964 169.288 211.236 169.288ZM211.236 165.384C212.047 165.384 212.804 165.192 213.508 164.808C214.234 164.403 214.81 163.805 215.236 163.016C215.663 162.227 215.876 161.267 215.876 160.136C215.876 158.451 215.428 157.16 214.532 156.264C213.658 155.347 212.58 154.888 211.3 154.888C210.02 154.888 208.943 155.347 208.068 156.264C207.215 157.16 206.788 158.451 206.788 160.136C206.788 161.821 207.204 163.123 208.036 164.04C208.89 164.936 209.956 165.384 211.236 165.384ZM233.595 151.016C235.707 151.016 237.413 151.688 238.715 153.032C240.016 154.355 240.667 156.211 240.667 158.6V169H236.187V159.208C236.187 157.8 235.835 156.723 235.131 155.976C234.427 155.208 233.467 154.824 232.251 154.824C231.013 154.824 230.032 155.208 229.307 155.976C228.603 156.723 228.251 157.8 228.251 159.208V169H223.771V151.272H228.251V153.48C228.848 152.712 229.605 152.115 230.523 151.688C231.461 151.24 232.485 151.016 233.595 151.016Z" fill="#1F1500"/>
</g>
<defs>
<linearGradient id="paint0_linear_1_1281" x1="947.299" y1="-8.47516e-06" x2="-13.3675" y2="181.287" gradientUnits="userSpaceOnUse">
<stop stop-color="#FFE2AA"/>
<stop offset="1" stop-color="#FFF3DD"/>
</linearGradient>
<clipPath id="clip0_1_1281">
<rect width="980" height="270" rx="20" fill="white"/>
</clipPath>
</defs>
</svg>
