<svg width="50" height="51" viewBox="0 0 50 51" fill="none" xmlns="http://www.w3.org/2000/svg">
<path d="M48.2812 7.53125L43.5937 2.84375C42.9687 2.21875 42.0312 2.21875 41.4062 2.84375L35.4687 8.78125C35.1562 9.09375 35 9.40625 35 9.875V11.5938L28.2812 18.3125C24.375 16.2812 19.6875 16.9062 16.5625 19.875C15.7812 20.6562 15.1562 21.5938 14.6875 22.6875C14.2187 23.625 13.4375 24.0938 12.3437 24.25C11.25 24.25 9.99996 24.4062 8.74996 24.875C5.31246 26.2812 2.96871 29.0938 2.18746 32.6875C1.40621 36.9062 2.81246 41.5938 6.24996 44.875C9.06246 47.6875 12.6562 49.0938 16.0937 49.0938C16.875 49.0938 17.6562 49.0938 18.4375 48.9375C22.0312 48.1562 24.8437 45.8125 26.25 42.375C26.7187 41.125 26.875 39.875 26.875 38.625C26.875 37.6875 27.5 36.75 28.4375 36.4375C28.5937 36.4375 28.9062 36.2812 30 35.8125C31.7187 35.3438 32.9687 33.9375 33.5937 32.2187C34.2187 30.5 33.4375 28.625 32.0312 27.8437C30.9375 27.2187 30.3125 26.125 30.3125 24.875V24.4062L22.9687 31.75C22.3437 32.375 21.4062 32.375 20.7812 31.75C20.4687 31.4375 20.3125 30.9688 20.3125 30.5L35.3125 15.5C35.625 15.8125 35.9375 16.125 36.4062 16.125H41.0937C41.5625 16.125 41.875 15.9688 42.1875 15.6562L48.125 9.71875C48.9062 9.09375 48.9062 8.15625 48.2812 7.53125ZM16.7187 41.2812C16.4062 41.5938 15.9375 41.75 15.625 41.75C15.3125 41.75 14.8437 41.5938 14.5312 41.2812L9.84371 36.5938C9.21871 35.9688 9.21871 35.0312 9.84371 34.4062C10.4687 33.7812 11.4062 33.7812 12.0312 34.4062L16.7187 39.0938C17.3437 39.7188 17.3437 40.6562 16.7187 41.2812Z" fill="black"/>
</svg>
