<svg width="54" height="51" viewBox="0 0 54 51" fill="none" xmlns="http://www.w3.org/2000/svg">
<path d="M21.6034 21.3163L23.9907 16.9671C24.689 15.6943 25.3226 14.3899 25.889 13.0541L30.4562 2.29485C30.7275 1.65549 30.4297 0.918965 29.7911 0.647969L29.6775 0.600118C29.0389 0.329122 28.3018 0.627271 28.031 1.26516L23.4637 12.0245C22.8965 13.3603 22.3975 14.7225 21.9669 16.1076L20.4963 20.8465L21.6034 21.3163Z" fill="black"/>
<path d="M31.0917 19.6079L28.2236 23.6568L29.1309 24.4469L32.7488 21.0517C33.8071 20.0599 34.8143 19.0151 35.7672 17.9225L43.447 9.10959C43.9032 8.58616 43.8481 7.79377 43.3254 7.33762L43.2324 7.25608C42.7098 6.80061 41.9167 6.85569 41.4604 7.37776L33.7808 16.1905C32.8275 17.2846 31.9304 18.4244 31.0917 19.6079Z" fill="black"/>
<path d="M25.2524 27.981C24.3944 27.233 24.3042 25.9308 25.053 25.072C25.801 24.2138 27.1035 24.1238 27.9624 24.8717C28.8204 25.6204 28.9099 26.9226 28.1619 27.7822C27.4139 28.6403 26.1106 28.7304 25.2524 27.981Z" fill="black"/>
<path d="M5.42407 27.9752V39.5582C5.42407 42.739 7.84827 45.6022 11.7166 47.6045V33.0638C8.92834 31.7373 6.74768 29.9918 5.42407 27.9752Z" fill="black"/>
<path d="M14.106 48.6615C16.858 49.6954 20.1064 50.3462 23.6074 50.4834V35.7597C20.123 35.631 16.8955 35.0232 14.106 34.0427V48.6615Z" fill="black"/>
<path fill-rule="evenodd" clip-rule="evenodd" d="M24.9998 34.2065C26.6169 34.2065 28.1884 34.0968 29.6914 33.8899C29.505 34.4254 29.3541 34.9775 29.2413 35.5434C28.1885 35.6661 27.1049 35.7439 25.9962 35.7734V50.4999C29.4082 50.4044 32.5898 49.8192 35.3219 48.8689C37.1442 49.907 39.2528 50.4999 41.5 50.4999C48.4036 50.4999 54 44.9035 54 37.9999C54 31.9736 49.7354 26.9432 44.0594 25.7622C44.3973 24.9559 44.576 24.1153 44.576 23.2513C44.576 20.4074 42.6382 17.8165 39.4624 15.8687L37.6589 17.9381L37.6938 17.9563C37.7345 17.9775 37.7758 17.9989 37.8152 18.0211C40.5515 19.5521 42.1211 21.4593 42.1211 23.2513C42.1211 23.9933 41.8524 24.7547 41.3436 25.5009C37.1901 25.5518 33.5242 27.6286 31.2885 30.7889C29.2947 31.1932 27.1625 31.4077 24.9996 31.4077C20.1777 31.4077 15.5068 30.3407 12.1852 28.4829C9.44849 26.9512 7.87854 25.0448 7.87854 23.2513C7.87854 21.4593 9.44849 19.5521 12.1852 18.0211C14.5002 16.7254 17.4716 15.8157 20.6919 15.3831C21.0055 14.397 21.3538 13.4152 21.7363 12.4505C12.4791 13.3208 5.42407 17.8238 5.42407 23.2513C5.42407 29.3017 14.1886 34.2065 24.9998 34.2065ZM41.3726 25.5006L41.3773 25.5005L41.3762 25.5005L41.3726 25.5006ZM35.1281 34.0359H34.444V33.0519H36.412V37.2759H35.1281V34.0359ZM41.0439 33.0999L36.5081 41.4999H34.9L39.424 33.0999H41.0439ZM40.3719 40.4919H42.436V41.5119H38.9919V40.5519L40.36 39.6279C40.608 39.4599 40.792 39.2959 40.912 39.1359C41.04 38.9679 41.104 38.7959 41.104 38.6199C41.104 38.4759 41.064 38.3599 40.984 38.2719C40.9041 38.1839 40.8 38.1399 40.672 38.1399C40.424 38.1399 40.28 38.2879 40.24 38.5839H38.944C38.968 38.1679 39.14 37.8319 39.46 37.5759C39.78 37.3199 40.2159 37.1919 40.7679 37.1919C41.12 37.1919 41.424 37.2559 41.6801 37.3839C41.936 37.5119 42.1281 37.6799 42.256 37.8879C42.392 38.0879 42.46 38.3039 42.46 38.5359C42.46 38.8239 42.364 39.0799 42.172 39.3039C41.98 39.5199 41.656 39.7599 41.2 40.0239L40.3719 40.4919ZM47.582 41.4999L46.214 39.4359L45.0021 41.4999H43.202L45.374 38.1639L43.178 34.8519H45.074L46.4301 36.9039L47.6541 34.8519H49.454L47.27 38.1639L49.478 41.4999H47.582Z" fill="black"/>
<path d="M17.9205 23.1755C18.3654 22.1272 19.5768 21.6381 20.6248 22.0828C21.6733 22.5291 22.1621 23.739 21.7173 24.7873C21.2719 25.8356 20.0613 26.3247 19.0132 25.8799C17.9653 25.4352 17.4758 24.2238 17.9205 23.1755Z" fill="black"/>
<path d="M27.2119 13.6161C26.9958 14.1253 26.7656 14.6302 26.5297 15.1336C28.4733 15.2251 30.3696 15.4868 32.1403 15.9024C32.2615 15.7576 32.3828 15.6132 32.5051 15.47C32.569 15.3952 32.6332 15.3207 32.6978 15.2466L34.1593 13.569C32.1899 12.984 30.0225 12.5836 27.7263 12.4041L27.2119 13.6161Z" fill="black"/>
</svg>
