<svg width="30" height="30" viewBox="0 0 30 30" fill="none" xmlns="http://www.w3.org/2000/svg">
<path d="M6.45614 18.7973H8.3548V24.4933C8.3548 25.0176 7.92977 25.4426 7.40547 25.4426C6.88117 25.4426 6.45614 25.0176 6.45614 24.4933V18.7973Z" fill="#F6654B"/>
<path d="M14.0508 15.9493H15.9494V24.4933C15.9494 25.0176 15.5244 25.4426 15.0001 25.4426C14.4758 25.4426 14.0508 25.0176 14.0508 24.4933V15.9493Z" fill="#F6654B"/>
<path d="M6.45614 5.5067C6.45614 4.9824 6.88117 4.55737 7.40547 4.55737C7.92977 4.55737 8.3548 4.9824 8.3548 5.5067V14.0507H6.45614V5.5067Z" fill="#F6654B"/>
<path d="M21.6454 18.7973H23.5441V24.4933C23.5441 25.0176 23.119 25.4426 22.5947 25.4426C22.0704 25.4426 21.6454 25.0176 21.6454 24.4933V18.7973Z" fill="#F6654B"/>
<path d="M21.6454 5.5067C21.6454 4.9824 22.0704 4.55737 22.5947 4.55737C23.119 4.55737 23.5441 4.9824 23.5441 5.5067V14.0507H21.6454V5.5067Z" fill="#F6654B"/>
<path d="M14.0508 5.5067C14.0508 4.9824 14.4758 4.55737 15.0001 4.55737C15.5244 4.55737 15.9494 4.9824 15.9494 5.5067V11.2027H14.0508V5.5067Z" fill="#F6654B"/>
<path d="M18.7974 17.848C18.7974 16.7994 19.6475 15.9493 20.6961 15.9493H24.4934C25.542 15.9493 26.3921 16.7994 26.3921 17.848V18.7973C26.3921 19.8459 25.542 20.696 24.4934 20.696H20.6961C19.6475 20.696 18.7974 19.8459 18.7974 18.7973V17.848Z" fill="#F6654B"/>
<path d="M11.2028 11.2027C11.2028 10.1541 12.0528 9.30402 13.1014 9.30402H16.8988C17.9474 9.30402 18.7974 10.1541 18.7974 11.2027V12.152C18.7974 13.2006 17.9474 14.0507 16.8988 14.0507H13.1014C12.0528 14.0507 11.2028 13.2006 11.2028 12.152V11.2027Z" fill="#F6654B"/>
<path d="M3.60815 17.848C3.60815 16.7994 4.45821 15.9493 5.50681 15.9493H9.30413C10.3527 15.9493 11.2028 16.7994 11.2028 17.848V18.7973C11.2028 19.8459 10.3527 20.696 9.30413 20.696H5.50681C4.45821 20.696 3.60815 19.8459 3.60815 18.7973V17.848Z" fill="#F6654B"/>
</svg>
