<svg width="30" height="30" viewBox="0 0 30 30" fill="none" xmlns="http://www.w3.org/2000/svg">
<path d="M6.45605 18.7973H8.35471V24.4933C8.35471 25.0176 7.92968 25.4426 7.40538 25.4426C6.88108 25.4426 6.45605 25.0176 6.45605 24.4933V18.7973Z" fill="#ACACAC"/>
<path d="M14.0507 15.9493H15.9493V24.4933C15.9493 25.0176 15.5243 25.4426 15 25.4426C14.4757 25.4426 14.0507 25.0176 14.0507 24.4933V15.9493Z" fill="#ACACAC"/>
<path d="M6.45605 5.5067C6.45605 4.9824 6.88108 4.55737 7.40538 4.55737C7.92968 4.55737 8.35471 4.9824 8.35471 5.5067V14.0507H6.45605V5.5067Z" fill="#ACACAC"/>
<path d="M21.6453 18.7973H23.544V24.4933C23.544 25.0176 23.1189 25.4426 22.5946 25.4426C22.0703 25.4426 21.6453 25.0176 21.6453 24.4933V18.7973Z" fill="#ACACAC"/>
<path d="M21.6453 5.5067C21.6453 4.9824 22.0703 4.55737 22.5946 4.55737C23.1189 4.55737 23.544 4.9824 23.544 5.5067V14.0507H21.6453V5.5067Z" fill="#ACACAC"/>
<path d="M14.0507 5.5067C14.0507 4.9824 14.4757 4.55737 15 4.55737C15.5243 4.55737 15.9493 4.9824 15.9493 5.5067V11.2027H14.0507V5.5067Z" fill="#ACACAC"/>
<path d="M18.7973 17.848C18.7973 16.7994 19.6474 15.9493 20.696 15.9493H24.4933C25.5419 15.9493 26.392 16.7994 26.392 17.848V18.7973C26.392 19.8459 25.5419 20.696 24.4933 20.696H20.696C19.6474 20.696 18.7973 19.8459 18.7973 18.7973V17.848Z" fill="#ACACAC"/>
<path d="M11.2027 11.2027C11.2027 10.1541 12.0528 9.30402 13.1014 9.30402H16.8987C17.9473 9.30402 18.7973 10.1541 18.7973 11.2027V12.152C18.7973 13.2006 17.9473 14.0507 16.8987 14.0507H13.1014C12.0528 14.0507 11.2027 13.2006 11.2027 12.152V11.2027Z" fill="#ACACAC"/>
<path d="M3.60806 17.848C3.60806 16.7994 4.45812 15.9493 5.50672 15.9493H9.30404C10.3526 15.9493 11.2027 16.7994 11.2027 17.848V18.7973C11.2027 19.8459 10.3526 20.696 9.30404 20.696H5.50672C4.45812 20.696 3.60806 19.8459 3.60806 18.7973V17.848Z" fill="#ACACAC"/>
</svg>
