<svg width="231" height="37" viewBox="0 0 231 37" fill="none" xmlns="http://www.w3.org/2000/svg">
<g clip-path="url(#clip0_210_911)">
<path fill-rule="evenodd" clip-rule="evenodd" d="M74.4258 27.38V14.7789L67.766 27.38H63.1175L56.4578 14.7789V27.38H51.6132V9.43768H58.1944L65.4416 23.0167L72.6889 9.43768H79.244V27.38H74.4258ZM105.402 18.4207C105.402 19.9615 105.119 21.3226 104.553 22.5013C103.987 23.68 103.178 24.6658 102.124 25.4587C101.071 26.2515 99.7935 26.8488 98.2918 27.2558C96.7902 27.6602 95.1035 27.861 93.2318 27.861C91.3601 27.861 89.6693 27.6602 88.1589 27.2558C86.6485 26.8488 85.3622 26.2515 84.3 25.4587C83.2381 24.6658 82.4199 23.68 81.8453 22.5013C81.2708 21.3226 80.9835 19.9615 80.9835 18.4207C80.9835 16.88 81.2708 15.5189 81.8453 14.3402C82.4199 13.1615 83.2381 12.1757 84.3 11.3828C85.3622 10.59 86.6485 9.99269 88.1589 9.58569C89.6693 9.18134 91.3601 8.98047 93.2318 8.98047C95.1035 8.98047 96.7902 9.18134 98.2918 9.58569C99.7935 9.99269 101.071 10.59 102.124 11.3828C103.178 12.1757 103.987 13.1615 104.553 14.3402C105.119 15.5189 105.402 16.88 105.402 18.4207ZM100.505 18.4207C100.505 17.7495 100.398 17.0835 100.185 16.4175C99.9719 15.7515 99.5932 15.1515 99.0493 14.6203C98.5051 14.0891 97.763 13.6583 96.8229 13.328C95.8826 12.9976 94.6857 12.8311 93.2318 12.8311C92.2569 12.8311 91.3993 12.9077 90.6595 13.061C89.9195 13.2117 89.2797 13.4231 88.7398 13.6953C88.2001 13.9649 87.7474 14.2794 87.3819 14.6415C87.0163 15.0009 86.7246 15.3894 86.5071 15.8017C86.2893 16.2166 86.1347 16.6474 86.0435 17.0967C85.9521 17.5433 85.9063 17.9847 85.9063 18.4207C85.9063 18.8647 85.9521 19.314 86.0435 19.766C86.1347 20.2179 86.2893 20.6513 86.5071 21.0662C86.7246 21.4785 87.0163 21.8644 87.3819 22.2212C87.7474 22.578 88.2001 22.8898 88.7398 23.1541C89.2797 23.421 89.9195 23.6298 90.6595 23.7805C91.3993 23.9338 92.2569 24.0104 93.2318 24.0104C94.6857 24.0104 95.8826 23.8439 96.8229 23.5135C97.763 23.1832 98.5051 22.7524 99.0493 22.2212C99.5932 21.69 99.9719 21.09 100.185 20.424C100.398 19.758 100.505 19.092 100.505 18.4207ZM111.908 9.43768V19.544C111.908 20.2152 111.964 20.8205 112.077 21.3649C112.19 21.9093 112.399 22.3745 112.704 22.763C113.009 23.1515 113.435 23.4501 113.984 23.6642C114.532 23.8782 115.246 23.984 116.125 23.984C116.787 23.984 117.481 23.8915 118.208 23.7091C118.935 23.5267 119.655 23.2836 120.369 22.977C121.083 22.6731 121.764 22.3243 122.413 21.9278C123.061 21.5314 123.642 21.1191 124.156 20.6936V9.43768H128.987V27.38H124.156V24.9248C123.546 25.271 122.898 25.6225 122.21 25.974C121.523 26.3282 120.791 26.6453 120.016 26.9281C119.242 27.2109 118.419 27.4408 117.548 27.6205C116.678 27.7976 115.76 27.8875 114.793 27.8875C113.583 27.8875 112.499 27.7421 111.542 27.4514C110.584 27.158 109.775 26.7457 109.113 26.2092C108.452 25.6754 107.944 25.0252 107.592 24.2641C107.239 23.503 107.063 22.652 107.063 21.7111V9.43768H111.908ZM148.727 14.4908C148.387 14.3243 147.939 14.1367 147.382 13.9279C146.825 13.7191 146.194 13.5209 145.489 13.3359C144.783 13.1482 144.017 12.9923 143.19 12.8655C142.363 12.7386 141.514 12.6752 140.644 12.6752C139.948 12.6752 139.353 12.6963 138.862 12.7412C138.37 12.7835 137.956 12.8417 137.621 12.9104C137.286 12.9791 137.021 13.061 136.824 13.1509C136.629 13.2434 136.478 13.3359 136.374 13.4337C136.27 13.5288 136.202 13.624 136.172 13.7191C136.141 13.8169 136.126 13.9041 136.126 13.9808C136.126 14.2424 136.256 14.4697 136.518 14.6653C136.779 14.8635 137.136 15.0379 137.588 15.1885C138.041 15.3418 138.568 15.4845 139.168 15.6193C139.769 15.7541 140.407 15.8942 141.082 16.0369C141.756 16.1822 142.453 16.3382 143.171 16.5073C143.889 16.6765 144.585 16.8747 145.26 17.102C145.935 17.3292 146.572 17.5909 147.173 17.8922C147.774 18.1935 148.3 18.5423 148.753 18.944C149.206 19.3431 149.563 19.8056 149.824 20.3262C150.085 20.8495 150.216 21.4468 150.216 22.1155C150.216 22.977 150.063 23.717 149.759 24.3355C149.454 24.9539 149.047 25.4772 148.538 25.9027C148.028 26.3308 147.439 26.6718 146.768 26.9281C146.098 27.1845 145.395 27.3827 144.659 27.5228C143.924 27.6628 143.179 27.7527 142.426 27.7976C141.674 27.8399 140.957 27.861 140.278 27.861C138.502 27.861 136.859 27.7157 135.349 27.425C133.839 27.1316 132.504 26.7695 131.347 26.3335V22.052C132.539 22.7127 133.9 23.2307 135.427 23.606C136.955 23.9787 138.59 24.1663 140.331 24.1663C141.358 24.1663 142.196 24.1108 142.844 24.0025C143.493 23.8941 144 23.754 144.366 23.5849C144.731 23.4158 144.979 23.2308 145.11 23.0299C145.24 22.829 145.306 22.6388 145.306 22.4564C145.306 22.1683 145.175 21.9173 144.914 21.7058C144.653 21.4918 144.296 21.3041 143.843 21.1429C143.391 20.9817 142.864 20.8337 142.263 20.6989C141.662 20.5641 141.025 20.4293 140.35 20.2945C139.676 20.1597 138.981 20.0144 138.267 19.8585C137.554 19.6999 136.859 19.5149 136.185 19.3035C135.51 19.0894 134.872 18.841 134.272 18.5582C133.671 18.2754 133.144 17.9397 132.692 17.5539C132.239 17.1654 131.882 16.7161 131.621 16.2087C131.36 15.6986 131.229 15.1093 131.229 14.438C131.229 13.6451 131.369 12.9633 131.647 12.3871C131.926 11.8136 132.302 11.3247 132.777 10.9203C133.251 10.5133 133.799 10.1856 134.422 9.93454C135.044 9.68082 135.699 9.48526 136.387 9.34518C137.075 9.20511 137.771 9.10998 138.476 9.05712C139.182 9.00691 139.852 8.98047 140.487 8.98047C141.184 8.98047 141.9 9.01483 142.635 9.08354C143.371 9.1549 144.096 9.25268 144.81 9.3769C145.523 9.50375 146.213 9.64912 146.879 9.81562C147.545 9.98212 148.161 10.1565 148.727 10.3389V14.4908ZM172.932 26.4894C171.461 26.9783 169.992 27.3298 168.525 27.5412C167.058 27.7553 165.558 27.861 164.026 27.861C162.068 27.861 160.324 27.6496 158.797 27.2294C157.269 26.8065 155.982 26.196 154.938 25.3952C153.893 24.5918 153.097 23.614 152.548 22.4564C152 21.2988 151.726 19.988 151.726 18.5265C151.726 17.168 152.002 15.9074 152.555 14.7445C153.108 13.5843 153.891 12.5721 154.905 11.7158C155.919 10.8595 157.145 10.1883 158.581 9.70461C160.017 9.22097 161.619 8.98047 163.386 8.98047C165.014 8.98047 166.505 9.19982 167.859 9.63854C169.212 10.0799 170.375 10.73 171.345 11.5916C172.316 12.4532 173.069 13.5156 173.604 14.7789C174.14 16.0395 174.407 17.4931 174.407 19.1396V20.3395H156.727C156.883 20.9077 157.142 21.4257 157.504 21.8935C157.865 22.3639 158.355 22.7656 158.973 23.096C159.591 23.4263 160.35 23.6827 161.251 23.865C162.153 24.05 163.23 24.1399 164.483 24.1399C165.371 24.1399 166.242 24.087 167.095 23.976C167.948 23.8677 168.745 23.725 169.485 23.5452C170.225 23.3682 170.893 23.17 171.489 22.9533C172.085 22.7339 172.566 22.5172 172.932 22.3005V26.4894ZM169.589 16.7875C169.545 16.3461 169.413 15.8862 169.191 15.4105C168.969 14.9375 168.618 14.5067 168.14 14.1261C167.661 13.7429 167.034 13.4258 166.259 13.1773C165.484 12.9289 164.518 12.8073 163.36 12.8073C162.272 12.8073 161.332 12.9421 160.54 13.2117C159.748 13.4813 159.084 13.8169 158.548 14.216C158.013 14.6177 157.597 15.0485 157.301 15.5083C157.005 15.9708 156.814 16.3963 156.727 16.7875H169.589ZM197.476 26.4894C196.005 26.9783 194.535 27.3298 193.069 27.5412C191.602 27.7553 190.102 27.861 188.57 27.861C186.611 27.861 184.868 27.6496 183.34 27.2294C181.813 26.8065 180.526 26.196 179.482 25.3952C178.437 24.5918 177.64 23.614 177.092 22.4564C176.544 21.2988 176.27 19.988 176.27 18.5265C176.27 17.168 176.546 15.9074 177.099 14.7445C177.652 13.5843 178.435 12.5721 179.449 11.7158C180.463 10.8595 181.689 10.1883 183.125 9.70461C184.561 9.22097 186.163 8.98047 187.93 8.98047C189.558 8.98047 191.049 9.19982 192.403 9.63854C193.756 10.0799 194.918 10.73 195.889 11.5916C196.86 12.4532 197.613 13.5156 198.148 14.7789C198.684 16.0395 198.951 17.4931 198.951 19.1396V20.3395H181.271C181.427 20.9077 181.686 21.4257 182.048 21.8935C182.409 22.3639 182.899 22.7656 183.517 23.096C184.135 23.4263 184.894 23.6827 185.795 23.865C186.696 24.05 187.774 24.1399 189.027 24.1399C189.915 24.1399 190.786 24.087 191.639 23.976C192.492 23.8677 193.289 23.725 194.028 23.5452C194.768 23.3682 195.436 23.17 196.033 22.9533C196.629 22.7339 197.11 22.5172 197.476 22.3005V26.4894ZM194.133 16.7875C194.089 16.3461 193.957 15.8862 193.735 15.4105C193.513 14.9375 193.162 14.5067 192.683 14.1261C192.205 13.7429 191.578 13.4258 190.803 13.1773C190.028 12.9289 189.062 12.8073 187.904 12.8073C186.816 12.8073 185.876 12.9421 185.084 13.2117C184.291 13.4813 183.628 13.8169 183.092 14.216C182.557 14.6177 182.141 15.0485 181.845 15.5083C181.549 15.9708 181.358 16.3963 181.271 16.7875H194.133ZM218.253 27.38C218.166 26.4048 217.931 25.5485 217.548 24.8138C217.165 24.0765 216.684 23.4448 216.105 22.9136C215.526 22.3824 214.873 21.941 214.146 21.5948C213.419 21.246 212.673 20.9685 211.907 20.765C211.141 20.5588 210.377 20.4161 209.615 20.3342C208.854 20.2522 208.146 20.21 207.493 20.21H206.057V27.38H201.212V9.43768H206.057V16.3567H207.049C207.72 16.3567 208.421 16.3065 209.152 16.2007C209.883 16.0977 210.608 15.9312 211.326 15.7039C212.044 15.4792 212.734 15.1859 213.396 14.8291C214.057 14.4723 214.649 14.0389 215.171 13.5235C215.694 13.0108 216.129 12.4162 216.477 11.7422C216.826 11.0683 217.043 10.2992 217.13 9.43768H222.066C221.979 10.3865 221.79 11.2427 221.498 12.0092C221.206 12.7756 220.845 13.4601 220.414 14.0653C219.983 14.6705 219.502 15.1991 218.971 15.6537C218.44 16.1056 217.896 16.4941 217.339 16.8218C216.782 17.1469 216.227 17.4165 215.674 17.6305C215.121 17.8446 214.606 18.0085 214.127 18.1195C214.736 18.2172 215.37 18.3653 216.027 18.5714C216.684 18.7749 217.335 19.0445 217.979 19.3801C218.623 19.7157 219.239 20.128 219.827 20.6143C220.414 21.1033 220.943 21.6715 221.413 22.3243C221.883 22.977 222.275 23.7223 222.589 24.5575C222.901 25.3952 223.102 26.3335 223.189 27.38H218.253ZM226.004 27.38V9.43768H230.848V27.38H226.004Z" fill="#F6654B"/>
<path fill-rule="evenodd" clip-rule="evenodd" d="M6.62485 33.8668H4.907C3.60535 33.8668 2.35673 33.3494 1.43645 32.4292C0.516168 31.5089 -0.00115967 30.2603 -0.00115967 28.9586V11.5347C-0.00115967 5.16436 5.16271 0.000488281 11.533 0.000488281C14.5923 0.000488281 17.5259 1.21575 19.6889 3.37877C19.711 3.40086 19.7326 3.42245 19.7542 3.44454C21.845 1.31882 24.7556 0.000488281 27.9753 0.000488281C31.0331 0.000488281 33.9682 1.21575 36.1327 3.37877C38.2923 5.54179 39.5095 8.4754 39.5095 11.5347V28.9586C39.5095 30.2603 38.9941 31.5089 38.0714 32.4292C37.1536 33.3494 35.902 33.8668 34.6013 33.8668H32.8835C32.8835 31.8716 31.6908 30.1528 29.9779 29.3856V10.8387C29.9779 9.73236 29.0846 8.83517 27.9753 8.83517C26.8661 8.83517 25.9728 9.73236 25.9728 10.8387V29.3856C24.2598 30.1528 23.0672 31.8716 23.0672 33.8668H16.4412C16.4412 31.8716 15.248 30.1528 13.537 29.3856V10.8387C13.537 9.73236 12.6403 8.83517 11.5335 8.83517H11.5325C10.4257 8.83517 9.529 9.73236 9.529 10.8387V29.3856C7.81802 30.1528 6.62485 31.8716 6.62485 33.8668Z" fill="#F6654B"/>
<path d="M11.5329 36.8117C13.1593 36.8117 14.4778 35.4932 14.4778 33.8668C14.4778 32.2403 13.1593 30.9219 11.5329 30.9219C9.90649 30.9219 8.58801 32.2403 8.58801 33.8668C8.58801 35.4932 9.90649 36.8117 11.5329 36.8117Z" fill="#F6654B"/>
<path d="M27.9752 36.8117C29.6016 36.8117 30.9201 35.4932 30.9201 33.8668C30.9201 32.2403 29.6016 30.9219 27.9752 30.9219C26.3488 30.9219 25.0303 32.2403 25.0303 33.8668C25.0303 35.4932 26.3488 36.8117 27.9752 36.8117Z" fill="#F6654B"/>
</g>
<defs>
<clipPath id="clip0_210_911">
<rect width="230.986" height="37" fill="white"/>
</clipPath>
</defs>
</svg>
