<svg width="21" height="27" viewBox="0 0 21 27" fill="none" xmlns="http://www.w3.org/2000/svg">
<path d="M11.0458 22.1113V25.125C11.0458 25.5346 10.6886 25.868 10.25 25.868C9.81136 25.868 9.45422 25.5346 9.45422 25.125V22.1113C7.01894 21.93 4.82335 20.9252 3.18864 19.3989C1.37416 17.707 0.25 15.3728 0.25 12.8059C0.25 12.3963 0.607143 12.0629 1.04578 12.0629C1.48442 12.0629 1.84156 12.3963 1.84156 12.8059C1.84156 14.9633 2.78835 16.9259 4.3128 18.3493C5.83725 19.7726 7.93936 20.6566 10.25 20.6566C12.5606 20.6566 14.6628 19.7726 16.1872 18.3493C17.7116 16.9259 18.6584 14.9633 18.6584 12.8059C18.6584 12.3963 19.0156 12.0629 19.4542 12.0629C19.8929 12.0629 20.25 12.3963 20.25 12.8059C20.25 15.375 19.1258 17.7092 17.3138 19.4011C15.6767 20.9274 13.4811 21.93 11.0458 22.1113ZM10.3027 0.75C11.832 0.75 13.2222 1.33411 14.2289 2.27405C15.2356 3.21399 15.8612 4.512 15.8612 5.93982V12.6537C15.8612 14.0815 15.2356 15.3795 14.2289 16.3195C13.2222 17.2594 11.832 17.8435 10.3027 17.8435C8.77349 17.8435 7.38327 17.2594 6.37656 16.3195C5.36985 15.3795 4.74425 14.0815 4.74425 12.6537V5.93982C4.74425 4.512 5.36985 3.21399 6.37656 2.27405C7.38327 1.33411 8.77349 0.75 10.3027 0.75ZM13.1023 3.32589C12.3833 2.6545 11.3909 2.23824 10.3027 2.23824C9.21213 2.23824 8.2222 2.6545 7.50312 3.32589C6.78404 3.99727 6.33821 4.92379 6.33821 5.93982V12.6537C6.33821 13.672 6.78404 14.5962 7.50312 15.2676C8.2222 15.939 9.21453 16.3553 10.3027 16.3553C11.3933 16.3553 12.3833 15.939 13.1023 15.2676C13.8214 14.5962 14.2673 13.6697 14.2673 12.6537V5.93982C14.2697 4.92155 13.8214 3.99727 13.1023 3.32589Z" fill="#F6654B"/>
<path fill-rule="evenodd" clip-rule="evenodd" d="M17.4842 19.584C15.8579 21.1002 13.6958 22.1108 11.2958 22.3409V25.125C11.2958 25.6885 10.8103 26.118 10.25 26.118C9.68973 26.118 9.20422 25.6885 9.20422 25.125V22.3409C6.80411 22.1107 4.64211 21.0979 3.01815 19.5817C1.15754 17.8468 0 15.4482 0 12.8059C0 12.2424 0.485508 11.8129 1.04578 11.8129C1.60605 11.8129 2.09156 12.2424 2.09156 12.8059C2.09156 14.8878 3.00487 16.7861 4.48341 18.1666C5.96218 19.5472 8.00353 20.4066 10.25 20.4066C12.4965 20.4066 14.5378 19.5472 16.0166 18.1666C17.4951 16.7861 18.4084 14.8878 18.4084 12.8059C18.4084 12.2424 18.8939 11.8129 19.4542 11.8129C20.0145 11.8129 20.5 12.2424 20.5 12.8059C20.5 15.4504 19.3424 17.8491 17.4842 19.584ZM3.18864 19.3989C4.82335 20.9252 7.01894 21.93 9.45422 22.1113V25.125C9.45422 25.5346 9.81136 25.868 10.25 25.868C10.6886 25.868 11.0458 25.5346 11.0458 25.125V22.1113C13.4811 21.93 15.6767 20.9274 17.3138 19.4011C19.1258 17.7092 20.25 15.375 20.25 12.8059C20.25 12.3963 19.8929 12.0629 19.4542 12.0629C19.0156 12.0629 18.6584 12.3963 18.6584 12.8059C18.6584 14.9633 17.7116 16.9259 16.1872 18.3493C14.6628 19.7726 12.5606 20.6566 10.25 20.6566C7.93936 20.6566 5.83725 19.7726 4.3128 18.3493C2.78835 16.9259 1.84156 14.9633 1.84156 12.8059C1.84156 12.3963 1.48442 12.0629 1.04578 12.0629C0.607143 12.0629 0.25 12.3963 0.25 12.8059C0.25 15.3728 1.37416 17.707 3.18864 19.3989ZM14.0173 5.93923C14.0195 4.99724 13.6052 4.13743 12.9317 3.50862C12.2584 2.87996 11.3269 2.48824 10.3027 2.48824C9.27627 2.48824 8.3471 2.87991 7.67373 3.50862C7.00065 4.13706 6.58821 4.99917 6.58821 5.93982V12.6537C6.58821 13.5965 7.00058 14.4564 7.67373 15.0849C8.34704 15.7135 9.27859 16.1053 10.3027 16.1053C11.3292 16.1053 12.2584 15.7136 12.9317 15.0849C13.6048 14.4565 14.0173 13.5943 14.0173 12.6537V5.93923ZM10.3027 0.5C11.896 0.5 13.347 1.10863 14.3995 2.09132C15.4522 3.07422 16.1112 4.43665 16.1112 5.93982V12.6537C16.1112 14.1569 15.4522 15.5193 14.3995 16.5022C13.347 17.4849 11.896 18.0935 10.3027 18.0935C8.70945 18.0935 7.25844 17.4849 6.20594 16.5022C5.15321 15.5193 4.49425 14.1569 4.49425 12.6537V5.93982C4.49425 4.43665 5.15321 3.07422 6.20594 2.09132C7.25844 1.10863 8.70945 0.5 10.3027 0.5ZM14.2289 2.27405C13.2222 1.33411 11.832 0.75 10.3027 0.75C8.77349 0.75 7.38327 1.33411 6.37656 2.27405C5.36985 3.21399 4.74425 4.512 4.74425 5.93982V12.6537C4.74425 14.0815 5.36985 15.3795 6.37656 16.3195C7.38327 17.2594 8.77349 17.8435 10.3027 17.8435C11.832 17.8435 13.2222 17.2594 14.2289 16.3195C15.2356 15.3795 15.8612 14.0815 15.8612 12.6537V5.93982C15.8612 4.512 15.2356 3.21399 14.2289 2.27405ZM10.3027 2.23824C11.3909 2.23824 12.3833 2.6545 13.1023 3.32589C13.8214 3.99727 14.2697 4.92155 14.2673 5.93982V12.6537C14.2673 13.6697 13.8214 14.5962 13.1023 15.2676C12.3833 15.939 11.3933 16.3553 10.3027 16.3553C9.21453 16.3553 8.2222 15.939 7.50312 15.2676C6.78404 14.5962 6.33821 13.672 6.33821 12.6537V5.93982C6.33821 4.92379 6.78404 3.99727 7.50312 3.32589C8.2222 2.6545 9.21213 2.23824 10.3027 2.23824Z" fill="#F6654B"/>
</svg>
