<svg width="20" height="23" viewBox="0 0 20 23" fill="none" xmlns="http://www.w3.org/2000/svg">
<path fill-rule="evenodd" clip-rule="evenodd" d="M19.55 4.59994C19.5324 3.41119 18.9167 2.31141 17.9125 1.67494C16.5823 0.796303 14.9065 0.623589 13.425 1.21244L7.73751 3.49994C6.29323 4.00897 5.30356 5.34502 5.23751 6.87494V15.9999C4.74882 15.7393 4.20385 15.602 3.65001 15.5999C1.72391 15.5999 0.162506 17.1614 0.162506 19.0874C0.162506 21.0135 1.72391 22.5749 3.65001 22.5749C5.5761 22.5749 7.13751 21.0135 7.13751 19.0874V6.84994C7.20674 6.08887 7.73095 5.44597 8.46251 5.22494L14.1375 2.96244C15.0426 2.59972 16.0673 2.69753 16.8875 3.22494C17.3686 3.52119 17.6726 4.03565 17.7 4.59994V13.6749C17.1989 13.4101 16.6418 13.2687 16.075 13.2624C14.1673 13.2508 12.6044 14.7742 12.567 16.6815C12.5296 18.5889 14.0317 20.1723 15.9383 20.2355C17.845 20.2986 19.4486 18.8181 19.5375 16.9124C19.5434 16.8543 19.5434 16.7956 19.5375 16.7374L19.55 4.59994ZM3.65 20.6874C2.7697 20.6994 2.04253 20.0031 2.01633 19.1231C1.99013 18.2431 2.67458 17.5047 3.55404 17.4643C4.43349 17.4238 5.18282 18.0963 5.2375 18.9749V19.1874C5.191 20.0299 4.49369 20.6887 3.65 20.6874ZM14.5514 17.3632C14.8049 17.9654 15.3967 18.355 16.05 18.3499C16.4765 18.35 16.8854 18.1797 17.1858 17.8769C17.4862 17.5741 17.6533 17.164 17.65 16.7374C17.65 16.0841 17.2557 15.4954 16.6517 15.2465C16.0476 14.9977 15.353 15.138 14.8929 15.6017C14.4327 16.0655 14.2978 16.7611 14.5514 17.3632Z" fill="#F6654B"/>
</svg>
