<svg width="30" height="30" viewBox="0 0 30 30" fill="none" xmlns="http://www.w3.org/2000/svg">
<path fill-rule="evenodd" clip-rule="evenodd" d="M17.5 10C17.5 11.3807 16.3807 12.5 15 12.5C13.6193 12.5 12.5 11.3807 12.5 10C12.5 8.61929 13.6193 7.5 15 7.5C16.3807 7.5 17.5 8.61929 17.5 10ZM15.625 10C15.625 9.65482 15.3452 9.375 15 9.375C14.6548 9.375 14.375 9.65482 14.375 10C14.375 10.3452 14.6548 10.625 15 10.625C15.3452 10.625 15.625 10.3452 15.625 10Z" fill="#F6654B"/>
<path fill-rule="evenodd" clip-rule="evenodd" d="M10 20C10 17.2386 12.2386 15 15 15C17.7614 15 20 17.2386 20 20C20 22.7614 17.7614 25 15 25C12.2386 25 10 22.7614 10 20ZM11.875 20C11.875 21.7259 13.2741 23.125 15 23.125C16.7259 23.125 18.125 21.7259 18.125 20C18.125 18.2741 16.7259 16.875 15 16.875C13.2741 16.875 11.875 18.2741 11.875 20Z" fill="#F6654B"/>
<path fill-rule="evenodd" clip-rule="evenodd" d="M18.75 2.5H11.25C8.48858 2.5 6.25 4.73858 6.25 7.5V23.75C6.25 26.5114 8.48858 28.75 11.25 28.75H18.75C21.5114 28.75 23.75 26.5114 23.75 23.75V7.5C23.75 4.73858 21.5114 2.5 18.75 2.5ZM21.875 23.75C21.875 25.4759 20.4759 26.875 18.75 26.875H11.25C9.52411 26.875 8.125 25.4759 8.125 23.75V7.5C8.125 5.77411 9.52411 4.375 11.25 4.375H18.75C20.4759 4.375 21.875 5.77411 21.875 7.5V23.75Z" fill="#F6654B"/>
</svg>
