<svg width="24" height="24" viewBox="0 0 24 24" fill="none" xmlns="http://www.w3.org/2000/svg">
<path fill-rule="evenodd" clip-rule="evenodd" d="M24 5.80047V18.1992C24 21.403 21.4028 24 18.1991 24H5.80094C2.59721 24 0 21.403 0 18.1992V5.80047C0 2.59699 2.59721 0 5.80094 0H18.1991C21.4028 0 24 2.59699 24 5.80047ZM22.7061 5.80047C22.7061 3.31264 20.6874 1.2957 18.1991 1.2957H5.80094C3.3126 1.2957 1.29706 3.31264 1.29394 5.80047V18.1992C1.29706 20.6874 3.3126 22.7043 5.80094 22.7043H18.1991C20.6874 22.7043 22.7061 20.6874 22.7061 18.1992V5.80047ZM18.6501 17.0618C18.5879 16.8649 18.5443 16.6366 18.5257 16.3776C18.2862 16.6472 17.9689 16.8621 17.577 17.0229C17.182 17.1837 16.7248 17.264 16.2084 17.264C15.3251 17.264 14.6812 17.0696 14.2706 16.6808C13.86 16.292 13.6579 15.7866 13.6579 15.1646C13.6579 14.615 13.7449 14.1771 13.9222 13.8505C14.0964 13.524 14.3422 13.2674 14.6532 13.0808C14.9643 12.8942 15.3344 12.7567 15.7636 12.6687C16.1929 12.5807 16.6625 12.5001 17.1726 12.4276C17.6796 12.3552 18.0218 12.2591 18.1991 12.1399C18.3732 12.0208 18.4635 11.8264 18.4635 11.5568C18.4635 11.308 18.3453 11.1136 18.112 10.9736C17.8787 10.8337 17.5646 10.7637 17.1726 10.7637C16.7061 10.7637 16.3702 10.8673 16.168 11.0747C15.9658 11.2822 15.8383 11.5568 15.7885 11.8989H13.9067C13.916 11.5049 13.9814 11.1422 14.0996 10.8104C14.2177 10.4785 14.4106 10.1936 14.675 9.95506C14.9394 9.7165 15.2846 9.53269 15.7107 9.40299C16.1337 9.2733 16.6532 9.2086 17.2659 9.2086C17.8662 9.2086 18.3764 9.2761 18.7963 9.41077C19.2162 9.54544 19.5521 9.73983 19.8072 9.99393C20.0622 10.248 20.2457 10.564 20.3608 10.9425C20.4728 11.321 20.5319 11.7487 20.5319 12.2255V17.0618H18.6501ZM18.5101 13.314C18.4044 13.4176 18.2551 13.5006 18.0591 13.5629C17.86 13.6251 17.577 13.6926 17.2037 13.765C16.6221 13.8792 16.224 14.0241 16.0062 14.2004C15.7885 14.3768 15.6796 14.6306 15.6796 14.9624C15.6796 15.5325 16.0062 15.8177 16.6594 15.8177C16.9176 15.8177 17.1571 15.7736 17.381 15.6856C17.605 15.5975 17.7947 15.4781 17.9565 15.3279C18.1182 15.1777 18.2457 15.0013 18.3453 14.7992C18.4448 14.597 18.4946 14.3818 18.4946 14.1538L18.5101 13.314ZM10.9518 17.0618L10.2986 14.9313H6.48837L5.75739 17.0618H3.47124L7.15708 6.73601H9.66098L13.3002 17.0618H10.9518ZM8.38571 9.0531H8.37015L7.04822 13.1585H9.67655L8.38571 9.0531Z" fill="#ACACAC"/>
</svg>
