<svg width="30" height="30" viewBox="0 0 30 30" fill="none" xmlns="http://www.w3.org/2000/svg">
<path fill-rule="evenodd" clip-rule="evenodd" d="M23.2934 3.10872L23.5174 2.8848C23.2892 2.63072 23.2972 2.23916 23.5417 1.99463C23.7863 1.74985 24.1778 1.74181 24.4322 1.97026L24.6561 1.74633C24.4276 1.492 24.4359 1.10044 24.6805 0.855913C24.925 0.611131 25.3163 0.603093 25.5709 0.83154L25.6146 0.787562C25.7003 0.702114 25.8081 0.642298 25.926 0.614905C25.9883 0.600328 27.3361 0.299755 28.5183 1.4817C29.702 2.6654 29.3987 4.01572 29.3851 4.07378C29.358 4.19165 29.2979 4.29971 29.2122 4.38541L29.1685 4.42914C29.3969 4.68347 29.3886 5.07477 29.1441 5.31956C29.0177 5.44597 28.8518 5.5093 28.6859 5.5093C28.5314 5.5093 28.3766 5.45401 28.2537 5.34393L28.0298 5.56761C28.2582 5.82194 28.2499 6.21349 28.0054 6.45802C27.879 6.58468 27.7131 6.64777 27.5472 6.64777C27.3927 6.64777 27.2379 6.59272 27.115 6.48239L26.891 6.70632C27.1195 6.96066 27.1112 7.35221 26.8667 7.59674C26.7403 7.7234 26.5744 7.78648 26.4085 7.78648C26.2429 7.78648 26.077 7.7234 25.9506 7.59674L25.8481 7.4942L24.6229 8.10691L19.9962 12.9131C20.7996 14.0015 21.8303 16.0053 20.7162 18.0872C19.9452 19.5318 18.9648 19.9203 18.0972 20.2598C17.4652 20.5074 16.9158 20.716 16.4204 21.3847C16.19 21.6959 16.0847 22.2734 15.952 22.9386C15.5959 24.7255 15.1003 27.1678 12.1269 28.7762C11.2674 29.2411 10.4145 29.4296 9.59617 29.4296C7.02973 29.4296 4.80231 27.5563 3.80559 26.5598L3.44168 26.1964C2.78926 25.5435 1.7576 24.3623 1.12629 22.9049C0.484934 21.4244 0.255486 19.6625 1.22331 17.8731C2.83174 14.8998 5.27453 14.4044 7.0619 14.048C7.72739 13.9153 8.30491 13.81 8.61629 13.5796C9.28479 13.0842 9.49339 12.5351 9.74068 11.903C10.08 11.0355 10.4685 10.0554 11.9136 9.28382C13.995 8.16974 15.9987 9.20014 17.0872 10.0033L21.8941 5.37585L22.5061 4.15219L22.403 4.04915C22.1502 3.79633 22.1502 3.38617 22.403 3.1331C22.6476 2.88857 23.0391 2.88053 23.2934 3.10872ZM26.6551 5.11021C26.6556 5.1097 26.6558 5.1092 26.6563 5.10895C26.6566 5.10845 26.6571 5.10819 26.6573 5.10769L27.7938 3.97149C27.794 3.97099 27.7945 3.97074 27.7948 3.97024C27.7953 3.96999 27.7955 3.96948 27.796 3.96923L28.1358 3.6292C28.1406 3.37436 28.0765 2.87223 27.602 2.39774C27.1285 1.92401 26.6272 1.85942 26.3701 1.86445L23.8265 4.40803L23.2118 5.63772L24.3618 6.789L25.591 6.17428L26.6551 5.11021ZM19.5735 17.4765C20.3118 16.0968 19.6682 14.7145 19.0824 13.8628L16.4302 16.6175C16.4307 16.6391 16.431 16.6607 16.431 16.6826C16.43 17.5145 16.106 18.2943 15.5195 18.8786C14.9346 19.4652 14.1536 19.7889 13.3212 19.7889C12.4891 19.7889 11.7077 19.4652 11.1212 18.8778C10.5343 18.2925 10.2106 17.5117 10.2104 16.6798C10.2101 15.8477 10.5338 15.0669 11.1209 14.4808C11.7082 13.8935 12.4906 13.5698 13.3235 13.5698C13.3428 13.5698 13.3622 13.57 13.3813 13.5705L16.1375 10.9174C15.2857 10.3316 13.9035 9.68819 12.5243 10.4266C11.4873 10.9802 11.2393 11.6286 10.947 12.3753C10.6638 13.0986 10.3388 13.9156 9.38733 14.621C8.87565 14.9998 8.15387 15.1516 7.31522 15.3187C5.70378 15.6399 3.693 16.0309 2.36278 18.4898C1.60531 19.8904 1.82496 21.3008 2.36453 22.4971C2.91567 23.7192 3.80031 24.7225 4.35672 25.2796L4.72239 25.6443C5.27881 26.2007 6.2808 27.0854 7.50245 27.6365C8.69847 28.1758 10.1086 28.3952 11.5105 27.6367C13.9693 26.3065 14.3604 24.2962 14.6816 22.6856C14.8487 21.8469 15.0005 21.1254 15.3792 20.6139C16.0842 19.662 16.9015 19.3368 17.625 19.0535C18.3717 18.7612 19.0203 18.5132 19.5735 17.4765ZM10.4622 23.8858C10.7153 24.1387 10.7153 24.5488 10.4622 24.8019C10.3358 24.9283 10.1699 24.9916 10.0041 24.9916C9.83845 24.9916 9.67258 24.9283 9.54617 24.8019L5.19788 20.4539C4.94506 20.2008 4.94506 19.7906 5.19788 19.5376C5.45096 19.2847 5.86111 19.2847 6.11418 19.5376L10.4622 23.8858ZM16.0364 15.1586L23.3264 7.58568L22.4146 6.67314L14.8412 13.9636C15.0872 14.1008 15.3156 14.2727 15.5205 14.4768C15.7258 14.6824 15.8984 14.9118 16.0364 15.1586ZM13.5557 14.8807L13.5542 14.8804C13.5496 14.8799 13.5451 14.8794 13.5406 14.8789C13.469 14.8703 13.3966 14.8656 13.3235 14.8656C12.8367 14.8656 12.3798 15.0546 12.0367 15.3974C11.6944 15.7392 11.5059 16.1943 11.5062 16.6796C11.5062 17.1646 11.6947 17.62 12.0367 17.961C12.3795 18.3041 12.8354 18.4931 13.3212 18.4931C13.8065 18.4931 14.2619 18.3048 14.6032 17.9626C14.946 17.6213 15.1347 17.1661 15.1352 16.6808C15.1354 16.6062 15.1304 16.5323 15.1219 16.4594C15.1211 16.4546 15.1206 16.4496 15.1199 16.4431C15.0691 16.0463 14.8909 15.6798 14.6044 15.3933C14.3187 15.1081 13.9525 14.9307 13.5557 14.8807Z" fill="#ACACAC"/>
</svg>
